<svg width="114" height="112" viewBox="0 0 114 112" fill="none" xmlns="http://www.w3.org/2000/svg">
<path d="M18.024 108.822H24.232V110.694H9.848V108.822H16.024V105.606H11.688V103.766H16.024V100.95H12.712C12.248 101.83 11.752 102.646 11.224 103.27C10.84 102.966 9.992 102.39 9.512 102.134C10.76 100.79 11.8 98.582 12.344 96.406L14.312 96.838C14.088 97.606 13.832 98.358 13.56 99.094H16.024V96.214H18.024V99.094H23.416V100.95H18.024V103.766H22.808V105.606H18.024V108.822ZM31.544 103.254L31.8 104.934C31.224 105.094 30.664 105.286 30.072 105.462V111.158H28.328V105.99C27.464 106.246 26.664 106.502 25.928 106.694L25.464 104.886C26.264 104.71 27.24 104.454 28.328 104.15V101.094H27.256C27.08 101.878 26.888 102.566 26.664 103.142C26.376 102.902 25.672 102.47 25.32 102.262C25.816 100.998 26.088 98.998 26.232 97.11L27.816 97.382C27.752 98.022 27.672 98.646 27.576 99.286H28.328V96.214H30.072V99.286H31.4V101.094H30.072V103.67L31.544 103.254ZM34.392 98.678H40.408C40.408 98.678 40.392 99.318 40.376 99.542C40.072 106.678 39.784 109.286 39.176 110.086C38.808 110.63 38.456 110.806 37.928 110.918C37.48 110.998 36.808 110.998 36.12 110.966C36.072 110.422 35.88 109.638 35.592 109.11C36.184 109.174 36.712 109.174 37.016 109.174C37.256 109.174 37.416 109.11 37.608 108.87C38.008 108.358 38.296 106.182 38.552 100.438H38.472C37.688 104.47 36.04 108.63 33.464 110.758C33.096 110.39 32.44 109.926 31.912 109.654C34.472 107.814 36.072 104.182 36.872 100.438H36.12C35.416 103.046 34.072 105.91 32.456 107.446C32.104 107.078 31.496 106.646 31 106.374C32.584 105.126 33.832 102.758 34.536 100.438H33.72C33.256 101.542 32.696 102.534 32.072 103.302C31.768 102.998 31.016 102.47 30.632 102.23C31.896 100.838 32.776 98.55 33.256 96.198L34.984 96.518C34.824 97.254 34.616 97.974 34.392 98.678ZM46.392 98.23L45.4 99.654C44.696 99.11 43.272 98.326 42.184 97.894L43.128 96.614C44.2 96.998 45.656 97.686 46.392 98.23ZM46.408 100.038L46.728 101.67C45.224 102.23 43.608 102.806 42.296 103.254L41.72 101.51C42.92 101.19 44.696 100.614 46.408 100.038ZM54.584 107.974H52.6V105.494H45.512V108.15H43.64V103.766H54.584V107.974ZM48.12 105.91H49.976C49.416 108.694 48.024 110.39 42.408 111.174C42.28 110.742 41.88 109.974 41.56 109.574C46.632 109.03 47.64 107.878 48.12 105.91ZM49.096 108.95L50.2 107.606C52.024 108.07 54.712 108.95 56.12 109.574L54.936 111.078C53.64 110.47 51 109.494 49.096 108.95ZM53.736 98.966H52.2C52.152 99.126 52.104 99.286 52.056 99.43C52.872 100.742 54.392 101.702 56.312 102.102C55.928 102.438 55.432 103.11 55.208 103.59C53.576 103.094 52.28 102.182 51.368 100.95C50.632 102.118 49.416 103.078 47.304 103.75C47.128 103.334 46.68 102.694 46.328 102.374C48.984 101.638 49.88 100.374 50.312 98.966H49.064C48.616 99.654 48.088 100.278 47.384 100.854C47.096 100.454 46.472 99.878 46.072 99.67C47.32 98.726 48.072 97.462 48.424 96.326L50.216 96.598C50.104 96.918 49.96 97.254 49.832 97.574H54.376L54.696 97.494L56.088 97.83C55.752 98.774 55.336 99.83 54.968 100.55L53.304 100.118C53.432 99.798 53.592 99.398 53.736 98.966ZM62.008 97.878L60.856 99.398C60.28 98.934 59.08 98.182 58.264 97.686L59.352 96.31C60.152 96.758 61.4 97.446 62.008 97.878ZM61.24 102.086L60.088 103.622C59.528 103.174 58.328 102.47 57.496 101.974L58.568 100.614C59.384 101.014 60.6 101.67 61.24 102.086ZM59.928 104.774L61.496 105.814C60.888 107.526 60.136 109.35 59.432 110.934L57.688 109.91C58.344 108.662 59.256 106.63 59.928 104.774ZM64.984 106.502L66.664 106.998C66.168 108.134 65.416 109.462 64.824 110.294C64.472 110.006 63.752 109.574 63.336 109.366C63.96 108.614 64.584 107.51 64.984 106.502ZM66.392 103.622V104.518H70.088V103.622H66.392ZM66.392 101.462V102.342H70.088V101.462H66.392ZM71.848 105.878H69.064V109.334C69.064 110.15 68.936 110.598 68.376 110.854C67.832 111.11 67.08 111.142 66.104 111.126C66.024 110.63 65.816 109.958 65.608 109.494C66.168 109.51 66.808 109.51 67 109.51C67.176 109.51 67.24 109.462 67.24 109.286V105.878H64.712V100.102H66.856C67.016 99.638 67.16 99.158 67.24 98.742H64.152V101.446C64.152 104.278 63.864 108.502 61.96 111.158C61.624 110.854 60.824 110.342 60.36 110.134C62.152 107.67 62.312 104.038 62.312 101.446V97.03H72.312V98.742H67.624L69.416 99.062C69.208 99.414 69 99.766 68.792 100.102H71.848V105.878ZM69.512 106.966L71.16 106.342C71.672 107.302 72.376 108.598 72.712 109.382L70.952 110.15C70.664 109.318 70.024 107.974 69.512 106.966ZM78.712 98.55V100.934H81.592V102.694H78.712V103.254C79.512 103.894 81.08 105.302 81.496 105.686L80.408 107.302C80.008 106.806 79.336 106.038 78.712 105.35V111.11H76.792V105.462C76.088 106.902 75.256 108.23 74.392 109.142C74.2 108.566 73.72 107.766 73.416 107.27C74.552 106.166 75.736 104.358 76.456 102.694H73.768V100.934H76.792V98.966C75.896 99.142 75 99.286 74.152 99.398C74.072 98.966 73.816 98.31 73.592 97.91C75.912 97.558 78.472 96.966 80.024 96.262L81.368 97.718C80.584 98.038 79.672 98.31 78.712 98.55ZM84.408 98.134V107.078H82.504V98.134H84.408ZM85.912 96.47H87.8V108.774C87.8 109.91 87.576 110.406 86.92 110.726C86.264 111.046 85.208 111.11 83.736 111.11C83.656 110.55 83.368 109.67 83.08 109.126C84.12 109.174 85.16 109.174 85.48 109.174C85.784 109.158 85.912 109.078 85.912 108.758V96.47ZM98.12 104.678H101.496V102.71H98.12V104.678ZM93.144 104.678H96.2V102.71H93.192V102.998C93.192 103.51 93.176 104.086 93.144 104.678ZM96.2 99.078H93.192V100.934H96.2V99.078ZM101.496 100.934V99.078H98.12V100.934H101.496ZM103.384 97.27V108.886C103.384 109.91 103.16 110.422 102.52 110.71C101.864 111.03 100.888 111.062 99.448 111.046C99.384 110.534 99.08 109.718 98.84 109.222C99.736 109.27 100.792 109.254 101.08 109.254C101.384 109.254 101.496 109.158 101.496 108.87V106.47H98.12V110.934H96.2V106.47H92.936C92.648 108.214 92.072 109.974 90.92 111.222C90.616 110.87 89.848 110.214 89.416 109.99C91.16 108.07 91.304 105.222 91.304 102.982V97.27H103.384Z" fill="#69531E"/>
<circle cx="56.5" cy="43.25" r="41.5" fill="#FFEEBD" stroke="#FFBB00" stroke-width="2"/>
<path d="M30 31.0708V33.7014C30 34.2749 30.3972 34.7393 30.897 34.7723V39.0633C30.897 39.0633 31.0373 41.5142 33.1824 41.5142C35.3275 41.5142 42.6404 41.6372 45.1481 41.6494C45.4173 41.6507 45.6879 41.6869 45.9403 41.7921C48.5824 42.8941 47.4171 47.7595 46.7747 49.8513C46.6285 50.3269 46.9362 50.8231 47.3814 50.8324L57.6579 51.0619C60.1248 51.0847 60.3949 49.5637 61.7988 49.7125C63.0817 49.8487 63.586 50.9924 63.9238 51.7197C64.4355 52.8771 64.4451 54.0903 64.3851 54.8167C64.3533 55.1997 64.5114 55.5715 64.7973 55.7796C65.2155 56.0838 65.7958 56.6527 66.1386 57.6159C66.4993 58.6288 66.4126 59.7814 66.2944 60.5103C66.2281 60.92 66.3803 61.3332 66.6863 61.5646C67.1084 61.8838 67.6655 62.4797 67.9426 63.5122C68.2055 64.4911 68.1812 65.3754 68.1049 65.9761C68.0378 66.506 68.3449 67.0028 68.8039 67.1332C69.0054 67.1906 69.2215 67.2451 69.4261 67.2317C69.6262 67.2185 70.0242 67.1765 70.5719 67.1131C70.5235 67.2355 70.5002 67.3724 70.515 67.515L70.6309 68.3737C70.6742 68.7971 71.0128 69.1004 71.3871 69.0513L81.6525 67.675C82.1809 67.6041 82.4504 66.9852 82.2668 66.4896C82.1608 66.2306 81.9744 66.1159 81.8353 66.0175C81.6868 65.9123 81.5026 65.7822 81.3734 65.6905C81.6355 65.654 81.8956 65.6178 82.1509 65.5819C83.1584 65.4402 83.7302 64.5356 83.9101 63.8638C84.9024 58.8971 77.0393 49.7917 76.9189 42.7729C77.3399 37.6815 81.3392 39.1678 81.7602 37.745C82.0036 36.9222 81.5553 36.099 81.1337 35.5496V29.9255C81.1337 29.1614 80.5863 28.5421 79.9109 28.5421H78.6373L78.2593 27H77.2062L76.8282 28.5421H59.0411V28.8751H50.9023V28.5421H33.9837L33.7097 27.7936H32.6565L32.3826 28.5421H32.1205C31.445 28.5421 30.8976 29.1614 30.8976 29.9255V29.9999C30.3978 30.0329 30.0006 30.4974 30.0006 31.0708H30ZM49.2596 44.0996C49.2596 42.3193 50.3923 41.5199 52.066 41.6334C53.1126 41.7042 55.3396 41.8286 57.0354 41.9658C57.0402 45.1679 55.7887 46.9847 55.1314 48.0402C54.9274 48.3678 55.2515 48.7897 55.5672 48.6076C56.8631 47.8607 58.9629 46.344 60.1402 42.746C60.8479 43.3342 61.2933 44.3573 61.1871 46.0952C61.0202 48.8246 58.6949 49.3609 57.8995 49.3609H52.0462C50.8533 49.3609 49.2596 48.3518 49.2596 46.0952V44.0996Z" fill="#FFBB00"/>
</svg>
