<svg width="119" height="119" viewBox="0 0 119 119" fill="none" xmlns="http://www.w3.org/2000/svg">
<g id="Group 15">
<path id="Vector" d="M59.3361 1C72.9111 1 86.0611 5.7343 96.5208 14.3873C106.981 23.0404 114.095 35.0703 116.639 48.4049C119.182 61.7395 116.996 75.5436 110.456 87.4395C103.916 99.3354 93.4327 108.578 80.811 113.575C68.1892 118.573 54.2198 119.012 41.3092 114.817C28.3987 110.622 17.3552 102.056 10.0814 90.5939C2.80753 79.1321 -0.241294 65.4925 1.46011 52.0245C3.16151 38.5565 9.50661 26.1036 19.4024 16.8109L31.953 30.1759C25.1673 36.5481 20.8164 45.0872 19.6497 54.3224C18.4831 63.5576 20.5737 72.9105 25.5615 80.77C30.5493 88.6295 38.1219 94.5034 46.9749 97.3799C55.8279 100.256 65.4069 99.9554 74.0618 96.5287C82.7167 93.102 89.9055 86.7641 94.39 78.6069C98.8744 70.4498 100.374 60.984 98.6294 51.8403C96.8851 42.6966 92.0066 34.4475 84.8342 28.514C77.6618 22.5805 68.6447 19.3342 59.3361 19.3342V1Z" fill="#FFD35C" stroke="white" stroke-linejoin="round"/>
<path id="Vector_2" d="M19.4025 16.8109C30.2186 6.65385 44.4986 0.999996 59.3362 1V19.3342C49.1618 19.3342 39.3698 23.2111 31.9531 30.1759L19.4025 16.8109Z" fill="#DCDBDB" stroke="white" stroke-linejoin="round"/>
</g>
</svg>
