<svg width="92" height="47" viewBox="0 0 92 47" fill="none" xmlns="http://www.w3.org/2000/svg">
<g id="Group">
<g id="Group_2">
<path id="Vector" d="M91.3907 34.6649C91.3907 34.6649 91.4186 33.8141 90.3015 33.3883C89.1843 32.9627 89.1843 31.7923 87.0569 33.1758C87.0569 33.1758 86.4186 31.8462 84.9827 32.1119C83.5467 32.3776 80.8867 30.729 79.8234 29.8245C79.8234 29.8245 79.5577 29.2393 74.6105 28.4949C69.6631 27.7503 72.5893 21.2606 76.8978 27.0588C76.8978 27.0588 75.994 27.9096 78.4406 28.1229C80.8874 28.3354 81.9513 26.9526 81.4194 25.8886C81.4194 25.8886 81.4194 24.2394 81.4194 24.0269C81.4194 23.8144 80.3555 23.3518 82.1109 23.0775C83.8664 22.8034 83.3343 22.0058 84.0789 20.8356C84.0789 20.8356 83.3343 18.2826 82.2704 17.3249C82.2704 17.3249 82.643 15.3037 81.9508 14.8249C81.2593 14.346 79.5838 12.6173 79.5838 12.6173C79.5838 12.6173 79.9033 11.2611 79.9831 9.66496C80.0628 8.06897 78.7065 9.74469 77.1105 10.6226C77.1105 10.6226 76.951 9.98435 75.6746 10.3039C74.398 10.6226 71.7652 9.85618 71.2066 9.00284L70.8074 9.82505C70.8074 9.82505 69.2114 8.94772 68.7332 7.91031C68.7332 7.91031 68.2543 8.30943 68.7332 9.26648C68.7332 9.26648 64.1051 9.34621 62.1904 10.7024C60.2756 12.0587 57.6429 10.2637 57.6429 10.2637C57.6429 10.2637 58.042 11.4202 58.6006 11.6601C59.1591 11.8992 55.9678 11.5006 54.1326 12.6178C52.2975 13.7349 50.0633 12.6177 46.7923 11.7404C43.5212 10.8631 33.8668 10.8631 30.5951 12.6178C30.5951 12.6178 28.2014 8.62818 14.2385 9.50614C0.275634 10.3841 2.1899 1.28765 6.41865 1.92579C10.6474 2.56425 6.33892 -2.68651 1.5516 1.89355C-3.23573 6.47346 3.62579 14.5319 14.3176 12.6967C25.0094 10.8615 26.2056 15.3295 26.2056 15.3295C26.2056 15.3295 25.2479 16.4464 24.929 18.2816C24.6101 20.1168 21.658 21.9518 21.658 21.9518C21.658 21.9518 22.6156 22.5902 23.2539 21.9518C23.8922 21.3135 19.5838 26.5798 19.504 28.4946C19.4243 30.4093 14.9565 32.803 14.9565 32.803C14.9565 32.803 13.6799 35.1169 13.7597 36.2342C13.7597 36.2342 9.93002 39.6654 9.5309 39.8247C9.13178 39.984 7.93491 41.5801 8.57321 42.3777C8.57321 42.3777 6.8975 46.6065 10.7278 44.6118C10.7278 44.6118 11.0465 46.3673 12.1637 46.2875C12.1637 46.2875 12.5628 47.8888 13.9191 46.2902C15.2754 44.6917 15.6746 44.2129 15.9136 42.7768C16.1528 41.3409 17.4292 34.0006 28.2805 30.0108L27.7219 31.0482C27.7219 31.0482 31.6313 30.1709 34.3444 28.0959C37.0575 26.0212 41.6848 24.8781 48.3338 30.8888C48.3338 30.8888 47.908 30.2505 48.1743 29.5061C48.4407 28.7615 49.8766 31.0489 50.8868 31.7402C51.8975 32.4317 50.7806 31.3676 51.1525 30.57C51.5251 29.7724 52.3759 31.5277 52.6416 31.8997C52.9073 32.2723 59.2374 31.1021 61.7374 31.2082C61.7374 31.2082 62.535 33.1761 61.6844 33.9207C60.8336 34.6652 65.2482 34.3465 65.674 34.612C65.674 34.612 68.7058 38.3354 72.1103 39.5588C75.5148 40.7822 76.5251 43.8673 76.7915 44.1336C77.0571 44.3993 79.2382 43.8141 80.9936 45.2508C82.7491 46.6867 83.9194 46.2615 84.5576 45.8891C85.1957 45.5166 85.4621 46.953 86.7386 46.1548C86.7386 46.1548 88.0151 46.6868 88.6535 45.3572C88.6535 45.3572 90.5683 44.7719 89.5042 43.9743C89.5042 43.9743 90.4087 41.5807 88.1213 42.0594C88.1213 42.0594 88.2277 40.6767 85.9939 40.9955C83.7598 41.3144 80.8879 40.1979 79.5576 38.6551C78.2279 37.1122 76.4193 35.6231 76.4193 35.6231C76.4193 35.6231 79.6108 35.6231 82.7489 37.6974C85.8872 39.7716 88.9723 39.4529 88.4934 38.3357C88.4934 38.3357 91.9511 38.5482 91.3128 35.8889C91.3122 35.8883 91.8954 35.0905 91.3907 34.6649Z" fill="#69531E"/>
</g>
</g>
</svg>
