<svg width="82" height="64" viewBox="0 0 82 64" fill="none" xmlns="http://www.w3.org/2000/svg">
<g id="&#230;&#156;&#177;&#233;&#185;&#174;2 1" clip-path="url(#clip0_273_1332)">
<path id="Vector" d="M65.3966 46.307C65.2798 46.1297 65.163 45.9506 65.1562 45.9421C65.0463 46.5168 64.89 47.187 64.7955 47.8657C64.6015 49.2709 64.4006 50.6761 64.2735 52.0882C64.0589 54.4927 63.9747 56.9092 63.6931 59.3052C63.5076 60.886 63.0715 62.4396 62.5906 64C61.9055 62.9086 61.1482 61.9144 61.526 60.5399C61.7114 59.8628 61.5741 59.0801 61.8334 58.4474C62.5924 56.6039 62.1304 54.6496 62.4911 52.7771C62.6988 51.6976 62.8276 50.6011 62.941 49.5063C62.9856 49.068 62.8637 48.6144 62.874 48.1693C62.8809 47.8521 62.977 47.5349 63.0388 47.2194C63.1608 46.6021 63.7721 45.9932 63.0543 45.3179C61.5689 47.9902 60.4064 50.7341 59.9204 53.7355C59.443 56.6807 58.9158 59.6156 57.7996 62.4072C57.7224 62.6033 57.597 62.7807 57.494 62.9649C57.3978 62.9649 57.2999 62.9649 57.2038 62.9649C57.1317 62.5078 57.0561 62.0491 56.9874 61.5921C56.9668 61.459 57.008 61.3039 56.9513 61.1913C56.4705 60.2107 56.8775 59.2864 57.111 58.3502C57.5318 56.6653 57.9903 54.9872 58.3577 53.2904C58.5621 52.3491 58.775 51.8358 59.4774 51.3259C59.3589 50.6557 58.9175 50.0298 59.7057 49.3562C60.0715 49.0441 60.1745 48.2426 60.1333 47.6815C60.0234 46.1672 59.7744 44.6631 59.589 43.2238C58.0538 45.6317 57.4425 48.5444 56.5186 51.3293C56.419 51.3071 56.3211 51.2832 56.2215 51.2611V48.7747C55.964 48.9708 55.8523 49.0577 55.8541 49.056C56.0103 46.9943 56.17 44.8592 56.3314 42.7241C56.2387 42.6797 56.146 42.6337 56.055 42.5894C55.6428 43.2238 55.2221 43.853 54.8186 44.4925C54.3034 45.3077 53.826 46.1484 53.2765 46.9397C53.1117 47.1785 52.7562 47.2859 52.4883 47.453C52.3149 47.1768 51.9989 46.9022 51.9938 46.6242C51.9732 45.4663 52.0453 44.3066 52.0882 43.147C52.0968 42.9151 52.1208 42.6849 51.9543 42.395C51.6349 42.8094 51.3172 43.2237 50.9944 43.6347C50.8535 43.8138 50.7333 44.0406 50.5462 44.1429C50.2388 44.3101 49.8576 44.5249 49.5622 44.4618C49.3836 44.4226 49.1861 43.8905 49.2102 43.5972C49.2892 42.6661 49.4661 41.7435 49.6086 40.8175C49.6532 40.5242 49.7082 40.2309 49.8009 39.6971C49.1758 40.2104 48.7809 40.6146 48.3104 40.8925C48.0339 41.0563 47.4913 41.1807 47.3298 41.0358C47.0946 40.8243 46.9606 40.3332 47.0156 39.9972C47.1822 38.9808 47.4586 37.9832 47.7368 36.7878C46.9383 37.1936 46.2497 37.5415 45.5216 37.9099C44.8485 37.1442 45.3087 36.2693 45.2503 35.2478C44.129 36.2949 43.5228 35.2308 42.5234 34.7993C43.0317 33.8597 43.5314 32.9354 43.9676 32.1305C43.7632 31.6939 43.5863 31.317 43.37 30.8566C42.9389 31.0697 42.4289 31.3221 41.8451 31.6103C41.8983 32.9678 40.6825 33.256 39.702 33.7795C41.1273 32.1833 41.3402 29.7583 43.5348 28.7027L43.3408 28.5219C42.3293 29.1171 41.3196 29.7123 40.2601 30.3364C40.2258 29.5571 40.935 28.5782 41.5721 28.4606C42.3019 28.3258 42.7913 27.9336 43.109 27.2787C42.4032 26.9343 41.6287 27.2037 40.9281 27.9234C40.7203 28.1365 40.3889 28.2354 40.1056 28.3719C39.9046 28.4691 39.6316 28.4895 39.4925 28.6362C38.5721 29.6117 37.6603 30.5956 36.7931 31.6172C36.6162 31.8252 36.6316 32.2038 36.5836 32.5073C35.8469 37.2704 35.4983 42.1187 33.5012 46.6055C32.5275 48.7934 31.5092 51.0206 29.6323 52.5725C28.5058 53.5036 27.9649 54.6547 27.3742 55.8655C26.7509 57.1428 26.0623 58.3894 25.384 59.6394C25.2569 59.8748 25.0405 60.0624 24.7658 60.3915C24.5408 59.9225 24.3794 59.5866 24.1132 59.0323C23.7698 59.7264 23.507 60.2568 23.2117 60.8536C22.5042 60.6882 21.7864 60.5211 21.0669 60.354C21.0789 60.2858 21.0927 60.2175 21.1047 60.1493C21.0549 60.1732 20.9931 60.1851 20.9587 60.2227C20.6513 60.5569 20.3938 60.9679 20.0228 61.2015C19.8339 61.3209 18.5958 59.856 18.534 59.549C18.3571 58.6896 18.4207 57.9102 19.1488 57.2895C17.7012 57.7175 18.1236 59.2643 17.3972 60.1374C17.2101 60.0283 16.9542 59.7554 16.7859 59.8014C15.9531 60.03 15.8861 59.4996 15.7796 58.9317C15.3057 56.43 16.0509 54.0988 16.7808 51.7658C17.0263 50.9797 17.3148 50.2054 17.5363 49.4125C17.5947 49.2027 17.5277 48.7593 17.435 48.7354C16.3755 48.4558 16.3188 47.5059 16.0939 46.7299C15.8981 46.0563 15.7367 45.514 14.9038 45.4083C14.6858 45.381 14.4522 45.0075 14.3337 44.7449C13.8134 43.5904 13.3154 42.4256 12.8449 41.2524C12.6457 40.7561 12.5393 40.2223 12.3778 39.7107C12.1495 38.9877 11.8541 38.2799 11.6841 37.5449C11.5003 36.7485 11.4282 35.9283 11.4505 35.1421C11.1518 34.7243 10.8564 34.3048 10.549 33.8938C8.47635 33.152 9.17353 31.0919 7.58855 29.8606C7.05278 28.3003 4.55768 27.7631 4.62294 25.9707C4.86506 24.8196 3.62696 24.5519 3.17533 23.6566C-0.356958 18.1159 -1.90931 22.2736 3.65443 17.4082C3.66817 16.4481 5.0986 15.8853 6.41914 16.4123C2.27552 18.4689 6.63894 17.6896 8.51584 16.6374C8.86615 16.4958 8.72363 16.0712 8.45402 15.9672C6.80551 15.5698 11.4883 14.4307 12.383 13.8781C13.8838 12.7117 14.66 10.2338 16.9353 9.39818C17.8987 9.04517 18.7126 8.29311 19.5935 7.72182C20.0864 7.40292 20.5809 7.08573 21.2506 6.65427C21.1734 7.02945 21.1442 7.17099 21.115 7.31083C21.1716 7.37564 21.2283 7.44044 21.2833 7.50524C21.965 6.88961 22.5849 6.18189 23.3456 5.68564C28.1572 5.05977 27.0428 3.09862 29.6546 4.24291C27.9632 6.06081 34.4731 2.65694 35.737 1.4649C36.6093 0.182479 38.2475 2.2289 39.587 0.891904C41.2217 -1.00615 41.6751 0.697494 43.4472 0.804931C45.094 0.494558 45.8771 2.85305 47.0877 2.5171C47.8622 2.75073 48.7328 3.83704 49.4781 4.30772C49.296 2.8667 45.9664 -0.264322 48.5954 1.94751C50.3109 3.87967 52.4969 4.88583 55.0332 4.83296C56.4551 4.80397 57.9147 4.40321 59.2696 3.92572C61.1619 3.25893 62.9289 3.13444 64.6874 4.22756C64.914 4.36911 65.23 4.38275 65.5082 4.42368C68.5064 4.86195 71.5133 5.24566 74.5012 5.74191C76.6632 6.10174 78.6895 6.88961 80.508 8.13452C81.2086 8.61372 81.8337 9.17137 81.9848 10.2321C81.6499 10.1042 81.2807 10.0309 80.9871 9.84157C76.5103 6.96294 71.6884 6.77706 66.6295 7.83267C64.7904 8.21637 63.384 9.33508 61.7561 10.0667C60.3291 10.7096 58.866 11.1325 57.2862 11.0882C57.0595 11.0814 56.8294 11.1103 56.6045 11.1393C56.5289 11.1496 56.4602 11.2144 56.2215 11.3491C57.1557 11.784 57.9576 12.2308 58.8111 12.5377C60.7773 13.2454 62.1476 14.6899 63.1213 16.3713C64.21 18.2506 64.9741 20.3243 65.795 22.3486C67.258 25.9571 68.7726 29.5503 70.0485 33.2236C71.175 36.4672 71.9769 39.8216 72.9746 43.1112C73.9465 46.3207 74.9923 49.5063 75.9866 52.7089C76.1634 53.2785 76.2476 53.8771 76.3764 54.4637C76.3043 54.4808 76.2304 54.4978 76.1583 54.5149C75.3512 52.2894 74.6197 50.0332 73.7181 47.847C72.82 45.6692 71.7537 43.5597 70.5877 41.4758C71.254 48.2818 72.9145 54.9668 72.2826 61.8376C72.2122 61.8461 72.14 61.853 72.0696 61.8615C71.9597 60.7343 71.843 59.6087 71.7416 58.4798C71.6558 57.518 71.63 56.5493 71.4926 55.5961C71.4102 55.0214 71.1269 54.4773 70.9981 53.9043C70.7302 52.7225 70.4452 51.539 70.2734 50.3419C69.9643 48.1795 69.7308 46.0052 69.4629 43.8002C68.8876 43.6023 68.5253 43.8581 68.4068 44.3425C68.2815 44.8575 68.254 45.4066 68.2626 45.9404C68.3313 50.5414 68.4446 55.1407 68.4755 59.7418C68.4824 60.8673 68.2488 61.9979 68.0806 63.1183C68.0514 63.3179 67.7972 63.485 67.6478 63.6675C67.4727 63.5037 67.1859 63.3639 67.1412 63.1695C66.9815 62.4584 66.8613 61.7336 66.8012 61.0088C66.6931 59.7145 66.5419 58.4133 66.5814 57.1206C66.6433 55.0674 66.851 53.0193 66.9867 50.9677C67.0004 50.7512 66.9627 50.5278 66.93 50.3112C66.8923 50.0605 66.7789 49.8098 66.7927 49.5642C66.8442 48.6553 67.0691 47.8009 66.7927 46.8289C66.5763 46.0717 66.9764 45.144 67.088 44.2896C67.1138 44.0952 67.1224 43.8701 67.0451 43.7013C66.9609 43.5205 66.7669 43.3909 66.6209 43.2391C66.4939 43.396 66.2947 43.5358 66.25 43.7132C66.0474 44.53 65.8877 45.3571 65.7142 46.1825C65.6043 46.2252 65.4927 46.2678 65.3828 46.3104L65.3966 46.307ZM36.1405 13.08C36.4977 10.5442 31.5745 7.74229 29.215 8.54721C29.5138 8.73991 29.9723 8.87293 30.12 9.16284C30.4995 9.90467 31.0885 9.9797 31.6981 9.71026C32.5636 9.32655 33.1663 9.80576 33.9511 10.1349C33.6283 10.3583 33.3913 10.5203 33.1182 10.7096C34.0644 11.5844 35.6443 11.4872 36.1388 13.08H36.1405ZM36.2607 25.2238L36.7398 25.3824C36.994 24.8367 37.322 24.308 37.4559 23.735C37.4937 23.5747 36.9528 23.2831 36.678 23.0512C36.5853 23.0887 36.4926 23.1262 36.4015 23.1637C36.3552 23.851 36.3088 24.5383 36.2625 25.2255L36.2607 25.2238ZM8.55877 18.2165C7.84098 17.1882 6.17701 18.6463 5.2978 18.9379C5.81296 19.6541 7.61088 18.295 8.55877 18.2165ZM37.6156 27.069C37.7049 27.1696 37.7942 27.2719 37.8818 27.3725C38.2235 27.0946 38.5635 26.8183 38.9052 26.5403C38.8331 26.4517 38.7593 26.3647 38.6871 26.276L37.6139 27.069H37.6156Z" fill="#69531E"/>
</g>
<defs>
<clipPath id="clip0_273_1332">
<rect width="82" height="64" fill="white"/>
</clipPath>
</defs>
</svg>
