<svg width="82" height="82" viewBox="0 0 82 82" fill="none" xmlns="http://www.w3.org/2000/svg">
<g id="monkey-svgrepo-com 1" clip-path="url(#clip0_273_1334)">
<g id="Group">
<g id="Group_2">
<path id="Vector" d="M81.5883 63.7864C81.571 63.5706 81.4863 63.3938 81.3314 63.2422C80.8338 62.7568 80.3349 62.2725 79.8472 61.7776C79.6727 61.6003 79.4691 61.4903 79.2394 61.4178C79.0947 61.3723 78.9475 61.3336 78.8011 61.2931C77.1487 60.8398 75.5204 60.2956 73.8345 59.968C73.7223 59.9459 73.614 59.878 73.516 59.813C72.8915 59.3988 72.2695 58.9806 71.6494 58.5595C71.5611 58.4997 71.4649 58.4335 71.409 58.3464C71.1868 57.9998 70.9603 57.6535 70.7699 57.2896C70.367 56.5201 70.0434 55.704 69.5846 54.9719C68.7177 53.5883 67.9287 52.1691 67.2813 50.6712C67.2123 50.5115 67.1339 50.3565 67.0631 50.1977C66.9698 49.9897 66.8602 49.7869 66.7906 49.5715C66.476 48.6009 66.172 47.6271 65.8667 46.6535C65.6686 46.0223 65.505 45.3789 65.274 44.7604C64.7414 43.3349 64.026 41.99 63.3842 40.6129C63.3296 40.4953 63.258 40.3761 63.2426 40.2512C63.1821 39.7669 63.1009 39.2795 63.102 38.7941C63.1039 37.8604 63.1464 36.9263 63.1914 35.9931C63.2565 34.6321 63.1706 33.2792 63.0002 31.9303C62.915 31.258 62.6943 30.6234 62.4542 29.9928C62.3794 29.7953 62.3465 29.5735 62.3362 29.3609C62.3119 28.8518 62.3177 28.3408 62.3033 27.8306C62.2728 26.7368 62.0944 25.6713 61.6762 24.6542C61.6231 24.5251 61.5586 24.3984 61.4832 24.2809C61.2788 23.9606 61.0754 23.6365 60.6948 23.5252C60.666 23.3018 60.7893 23.1838 60.9101 23.0806C61.2039 22.8294 61.3047 22.8324 61.6474 23.0512C61.7344 23.1071 61.8161 23.2027 61.9532 23.1094C62.0044 22.7978 62.0581 22.4735 62.1121 22.1493C62.1318 22.1441 62.1513 22.1383 62.1709 22.1332C62.2273 22.2351 62.2838 22.337 62.3408 22.4385C62.4987 22.2887 62.5643 22.1932 62.6206 22.0917C62.8274 21.7231 63.0458 21.3654 63.3009 21.0244C63.8947 20.2302 64.2253 19.3287 64.1959 18.326C64.1868 18.0184 64.2812 17.8198 64.5376 17.6562C64.8491 17.4574 65.0472 17.1638 65.1515 16.8036C65.2673 16.4051 65.3469 16.0042 65.3329 15.5855C65.3196 15.1943 65.3191 14.8033 65.4365 14.4225C65.5788 13.9612 65.7206 13.4993 65.8599 13.0374C65.9059 12.9435 65.936 12.845 65.9474 12.7453C65.9884 12.6094 66.0286 12.4729 66.069 12.3369C66.1237 12.1509 66.161 11.9567 66.1795 11.7638C66.2169 11.3785 65.8524 10.829 65.4895 10.7149C64.9739 10.5531 64.4677 10.5634 63.9752 10.8122C63.7453 10.9285 63.5086 11.0315 63.2541 11.1503C63.1228 10.9257 63.0041 10.7229 62.8838 10.5167C62.9926 10.4183 63.0842 10.3347 63.2126 10.2184C63.0871 10.1297 62.9954 10.0624 62.9004 9.99888C62.5491 9.76383 62.173 9.55886 61.851 9.28936C61.3937 8.90637 60.9725 8.48018 60.5429 8.06543C60.1898 7.72437 59.7446 7.55454 59.3035 7.37427C59.2885 7.36792 59.2638 7.38528 59.2429 7.39163C59.2124 7.45262 59.1818 7.51318 59.1439 7.58743C58.709 7.31103 58.2587 7.28618 57.7794 7.34731C57.2732 7.41182 56.7623 7.41013 56.2589 7.28279C56.0089 7.21941 55.7532 7.17917 55.4964 7.12722C55.4671 7.18482 55.4411 7.22054 55.4308 7.2602C55.4181 7.30863 55.4174 7.36043 55.4089 7.43709C55.0437 7.26543 54.6994 7.11452 54.2932 7.11169C54.2908 7.47224 54.0531 7.55581 53.7818 7.60536C53.6326 7.63232 53.4841 7.66522 53.336 7.70037C53.2307 7.72521 53.1196 7.74187 53.0244 7.78902C52.4185 8.09028 51.861 8.46466 51.3581 8.91851C51.2585 9.0083 51.1697 9.11149 51.0742 9.21045C50.9721 9.08608 50.8933 8.98938 50.781 8.8516C50.5408 9.19196 50.3243 9.49787 50.1042 9.80943C50.0201 9.73461 49.951 9.67348 49.8663 9.5981C49.1561 10.0998 48.9482 10.8946 48.6192 11.6647C48.3313 11.4648 48.0554 11.2961 47.8065 11.0939C47.5698 10.9009 47.2975 10.8048 47.0147 10.7317C46.6755 10.6442 46.426 10.8493 46.4215 11.1844C46.4202 11.2835 46.4306 11.3877 46.4537 11.4885C46.4584 11.5236 46.4677 11.5582 46.4819 11.591C46.4965 11.6347 46.5137 11.6768 46.5343 11.7166C46.7561 12.1503 47.0222 12.561 47.2468 12.9929C47.2653 13.0286 47.2838 13.0644 47.3023 13.1006C47.3034 13.104 47.3045 13.1069 47.3057 13.1104C47.5067 13.6863 47.5896 14.1931 47.5942 14.7807C47.5948 14.8901 47.6333 14.992 47.6956 15.0745C47.7001 15.1689 47.7038 15.2628 47.7059 15.3572C47.7186 15.9177 47.7543 16.4619 48.0445 16.9601C48.1194 17.0885 48.0836 17.1858 47.9419 17.2452C47.7917 17.308 47.6447 17.3776 47.4955 17.4427C46.5504 17.8539 45.6081 18.2715 44.6589 18.6736C44.0588 18.9275 43.4649 19.1844 42.988 19.6486C42.8872 19.7471 42.7737 19.8324 42.6643 19.9216C42.3324 20.1928 41.9564 20.3611 41.5464 20.4976C40.0418 20.9986 38.496 21.35 36.977 21.7958C35.7077 22.1685 34.4243 22.4944 33.2349 23.0998C32.7908 23.3262 32.325 23.5104 31.87 23.7155C31.7714 23.7599 31.6695 23.8019 31.5797 23.8612C30.71 24.4355 29.8122 24.967 29.0086 25.6387C28.6429 25.9446 28.2778 26.2642 27.87 26.5062C26.43 27.3609 25.0505 28.3055 23.6826 29.2674C23.2385 29.5796 22.8093 29.9131 22.3676 30.2281C22.238 30.3203 22.0974 30.4158 21.9472 30.4573C20.9358 30.7395 19.9953 31.1749 19.0996 31.7187C18.3295 32.1864 17.5491 32.638 16.7693 33.089C16.6317 33.1685 16.4761 33.2324 16.3212 33.2658C14.4637 33.6631 12.612 34.0842 10.8138 34.7028C9.89226 35.0202 8.96549 35.3486 8.09293 35.777C7.02273 36.3029 6.01944 36.9514 5.09845 37.7278C4.515 38.2196 3.96783 38.7317 3.47021 39.3129C2.89312 39.9867 2.43869 40.7223 2.02225 41.5028C1.3915 42.6851 1.00738 43.9539 0.681284 45.2311C0.387511 46.381 0.128326 47.5543 0.0903512 48.7565C0.074258 49.2665 -0.000561496 49.7754 3.17941e-06 50.2848C0.000567855 50.8269 0.0581647 51.3687 0.0927511 51.9102C0.108844 52.1598 0.105315 52.4126 0.151477 52.6566C0.338667 53.6598 0.54435 54.6589 0.961927 55.5994C1.10705 55.9257 1.20558 56.2743 1.36271 56.5947C1.87134 57.6315 2.47441 58.6089 3.2387 59.4801C3.35333 59.6108 3.4489 59.7578 3.56296 59.8879C3.77768 60.1321 3.98802 60.3823 4.22123 60.6073C4.86171 61.2244 5.51307 61.8296 6.16978 62.4489C6.15369 62.4717 6.13633 62.5139 6.10527 62.5403C5.73611 62.8599 5.37952 63.1968 4.99018 63.4903C4.33939 63.9797 3.66898 64.4429 3.00422 64.9141C2.52678 65.2526 2.15749 65.6621 2.10059 66.2761C2.06206 66.6961 2.08041 67.1176 2.38971 67.439C2.78244 67.8474 3.23644 68.1871 3.74436 68.4435C5.19812 69.1756 6.65992 69.8924 8.10958 70.6338C8.64235 70.9063 9.11979 71.2547 9.48499 71.7524C9.97344 72.4175 10.4838 73.0679 11.0079 73.7054C11.19 73.9273 11.4341 74.1005 11.6622 74.2813C11.9018 74.4716 12.1841 74.3939 12.4478 74.3563C12.6102 74.3332 12.722 74.1299 12.6955 73.9543C12.6764 73.8264 12.6384 73.7003 12.6016 73.5756C12.4973 73.2216 12.3931 72.8678 12.2813 72.516C12.2351 72.3713 12.2882 72.3173 12.4443 72.3023C12.4926 72.3986 12.5434 72.4923 12.5883 72.5884C12.8711 73.1989 13.151 73.8113 13.4373 74.4207C13.4822 74.5158 13.537 74.6264 13.6198 74.6799C13.8773 74.847 14.1429 74.9592 14.4733 74.8359C14.8449 74.6977 14.9595 74.5853 14.9837 74.1896C14.9861 74.1529 14.9992 74.117 15.0038 74.0964C15.1991 74.1637 15.3655 74.2451 15.5413 74.2773C16.0486 74.3699 16.4709 74.0519 16.3009 73.5289C16.2312 73.3142 16.2104 73.0825 16.1765 72.8572C16.0746 72.1823 15.8891 71.5211 15.8852 70.8293C15.8812 70.1342 15.8506 69.4397 15.8218 68.7449C15.8022 68.2681 15.6335 67.8788 15.145 67.6991C15.0027 67.6467 14.8662 67.5781 14.7235 67.5298C14.2915 67.384 13.8642 67.2194 13.4235 67.108C12.514 66.8789 11.6961 66.478 10.9659 65.893C10.8772 65.8221 10.7833 65.7587 10.6889 65.69C11.039 65.3249 11.039 65.3255 11.4532 65.492C11.5136 65.5163 11.5741 65.5438 11.637 65.5582C12.5666 65.7735 13.4928 66.0069 14.428 66.1952C15.2263 66.356 16.0355 66.4654 16.8546 66.4183C17.4064 66.3865 17.9594 66.3515 18.5082 66.2887C19.3376 66.1935 20.1624 66.0802 20.9647 65.8191C21.588 65.6164 22.1714 65.3331 22.7663 65.0711C23.8584 64.5894 24.837 63.9301 25.7475 63.1664C26.3384 62.6704 26.888 62.1331 27.4034 61.5554C28.4016 60.4351 29.3536 59.2774 30.2741 58.0942C30.7171 57.5246 31.2198 57.019 31.7497 56.535C31.9236 56.3762 32.1258 56.2668 32.3476 56.1774C32.3094 56.3123 32.2531 56.4265 32.1926 56.5381C31.8292 57.2057 31.4161 57.8514 31.1132 58.5454C30.7141 59.4589 30.3846 60.4046 30.0569 61.3476C29.7759 62.1558 29.7621 62.9867 29.9792 63.8155C30.0068 63.9208 30.0863 64.0223 30.1652 64.1017C30.3208 64.2582 30.5211 64.3333 30.7337 64.3973C31.1161 64.5112 31.4888 64.448 31.8598 64.3713C32.7629 64.1841 33.6609 63.9743 34.5652 63.7928C34.958 63.7139 35.3622 63.6276 35.7573 63.6441C36.3737 63.6701 36.9895 63.7599 37.5993 63.8597C38.522 64.0105 39.4465 64.131 40.3819 64.1619C41.0575 64.1845 41.6641 63.9592 42.2337 63.6309C42.5638 63.4409 42.5971 62.975 42.3 62.8015C42.0892 62.6783 41.8467 62.5914 41.6071 62.5396C41.1942 62.4497 40.7673 62.4244 40.3566 62.3265C39.9684 62.2344 39.5894 62.0942 39.2144 61.9542C39.0272 61.8848 39.0186 61.6565 39.1879 61.5495C39.2784 61.4924 39.382 61.4411 39.4856 61.424C39.8174 61.3685 40.1502 61.3109 40.4855 61.2892C41.3306 61.2343 42.1771 61.2021 43.022 61.1532C43.3671 61.1336 43.647 61.2379 43.9056 61.4749C44.5691 62.0845 45.2483 62.6766 45.925 63.2716C46.2315 63.5404 46.584 63.6505 47.0016 63.6378C47.4515 63.624 47.7773 63.2415 47.5504 62.7966C47.4502 62.5995 47.3915 62.3811 47.312 62.1657C47.861 62.0626 48.1363 61.3374 47.7935 60.8888C47.0614 59.9279 46.2943 59.0001 45.405 58.1799C45.1619 57.956 44.8688 57.8058 44.5375 57.7763C44.1016 57.7378 43.6639 57.7862 43.2479 57.9111C42.0608 58.267 40.8466 58.5021 39.6399 58.7706C39.5247 58.796 39.4037 58.8131 39.2863 58.8097C38.9925 58.7998 38.8951 58.6586 38.9925 58.3812C39.1043 58.0639 39.2309 57.7515 39.3508 57.4377C39.7568 56.3739 40.315 55.3956 41.0476 54.5249C41.6439 53.8171 42.1869 53.0724 42.6828 52.2925C43.0521 51.7127 43.4669 51.1675 43.972 50.7024C44.2869 50.412 44.4868 50.0641 44.6308 49.6748C44.6809 49.5394 44.7028 49.3936 44.7437 49.229C44.8071 49.2756 44.8521 49.3031 44.89 49.3384C45.3911 49.8044 45.9007 50.2604 46.3282 50.8002C46.6115 51.1572 46.9087 51.5043 47.2116 51.8454C47.8233 52.533 48.3026 53.3004 48.6833 54.1377C48.9028 54.6211 49.1763 55.0796 49.4194 55.5523C49.6447 55.9905 49.9694 56.3299 50.4026 56.562C50.5535 56.6425 50.6636 56.7541 50.7303 56.9091C50.9032 57.3072 51.073 57.7062 51.2464 58.1038C51.2918 58.208 51.3437 58.3095 51.4007 58.4292C51.4882 58.3595 51.5413 58.3176 51.6011 58.2701C51.7296 58.5293 51.8449 58.7747 51.9703 59.0148C52.2635 59.5731 52.7162 59.9795 53.2755 60.2407C53.7455 60.4597 54.2426 60.6269 54.739 60.7787C55.6726 61.0639 56.6132 61.3283 57.5549 61.5858C57.7841 61.6483 57.9292 61.7475 58.0127 61.98C58.2949 62.7703 58.6998 63.5025 59.1192 64.2263C59.3042 64.5462 59.5523 64.7942 59.9295 64.8806C60.3327 64.9735 60.6242 64.7652 60.6259 64.3573C60.6265 64.1649 60.5999 63.9656 60.5481 63.7799C60.3593 63.1004 60.1536 62.4253 59.9561 61.7481C59.9267 61.6483 59.9061 61.5462 59.8813 61.4456C59.9067 61.434 59.9319 61.423 59.9579 61.4117C60.0185 61.5153 60.092 61.6138 60.1371 61.7238C60.4948 62.5975 60.8415 63.4766 61.2054 64.3479C61.2832 64.5334 61.3978 64.7159 61.5343 64.8629C61.8971 65.2516 62.5883 65.2094 62.9079 64.7787C63.0163 64.6323 63.1199 64.5626 63.303 64.5576C63.5415 64.5504 63.7189 64.4251 63.7621 64.1749C63.799 63.9632 63.8354 63.7476 63.833 63.5339C63.8312 63.3641 63.8422 63.2298 63.9632 63.0895C64.0709 62.9643 64.1642 62.7912 64.1803 62.631C64.2096 62.331 64.2109 62.0191 64.167 61.7209C64.038 60.8408 63.8842 59.9643 63.7328 59.0878C63.7131 58.9732 63.6608 58.8619 63.6101 58.7553C63.4362 58.392 63.1332 58.1823 62.7686 58.0321C60.9124 57.2653 59.0893 56.4243 57.2836 55.5449C57.1477 55.4787 57.014 55.404 56.8896 55.318C56.389 54.9726 55.8921 54.6223 55.3962 54.27C55.2999 54.2014 55.2038 54.1253 55.1294 54.0348C54.6583 53.4623 54.2718 52.8346 53.9263 52.1797C53.3676 51.1209 52.9345 50.0106 52.5261 48.8868C51.7584 46.7753 51.0314 44.6482 50.1208 42.5915C50.0505 42.433 49.9769 42.2753 49.894 42.1231C49.3911 41.1975 48.8844 40.2744 48.3809 39.3494C48.3411 39.2763 48.3146 39.1963 48.2686 39.0891C48.7473 38.8454 49.1976 38.5834 49.6739 38.3806C51.0039 37.8145 52.3044 37.1924 53.5479 36.4546C53.6169 36.4137 53.6999 36.3948 53.7869 36.3619C53.8301 36.4673 53.8658 36.5457 53.894 36.6263C54.292 37.7747 54.6779 38.9277 54.9624 40.1109C55.0129 40.3211 55.0746 40.532 55.0931 40.7461C55.1542 41.4386 55.2066 42.1314 55.244 42.8249C55.2715 43.3352 55.252 43.8442 55.0568 44.3297C55.0125 44.4403 54.9751 44.5545 54.9444 44.6696C54.9306 44.722 54.9422 44.7813 54.9422 44.8695C55.2952 44.738 55.4847 44.4281 55.8493 44.2867V45.4493C56.0618 45.4054 56.2243 45.3727 56.4085 45.3347C56.5358 45.871 56.6568 46.3871 56.7806 46.9032C56.9085 47.4381 57.1544 47.9198 57.4592 48.3731C57.4841 48.4098 57.5415 48.4243 57.6004 48.4588C57.7248 48.2071 57.5576 47.8949 57.8192 47.6727C57.9598 47.9178 58.0818 48.1466 58.2184 48.3661C58.8376 49.3607 59.4181 50.3842 60.2959 51.189C60.3828 51.2689 60.4509 51.3704 60.5246 51.4641C61.0923 52.1922 61.6466 52.9317 62.2288 53.6484C63.1826 54.8217 64.0447 56.0576 64.8627 57.3275C65.6627 58.5694 66.4823 59.7983 67.2933 61.0327C67.7184 61.4118 67.7143 61.9138 67.6649 62.4143C67.6078 62.9897 67.6263 63.5613 67.6499 64.1372C67.6649 64.5017 67.7679 64.7879 68.0393 65.0201C68.1378 65.1043 68.2339 65.1952 68.3433 65.2625C69.3773 65.9024 70.4178 66.5308 71.4476 67.1776C71.851 67.431 72.2588 67.6907 72.6123 68.0058C72.9539 68.3105 73.3485 68.3866 73.7653 68.4707C74.2661 68.5714 74.638 67.9355 74.5423 67.5826C74.4645 67.2956 74.3265 67.0061 74.1445 66.7715C73.9209 66.4836 73.6421 66.2296 73.3548 66.0022C73.0502 65.7607 72.7115 65.5608 72.3802 65.3554C72.1723 65.2264 71.9978 65.076 71.8757 64.815C71.9725 64.7621 72.0565 64.681 72.1476 64.6727C72.3298 64.6562 72.5219 64.6498 72.6981 64.6906C73.7765 64.9382 74.8523 65.1969 75.9265 65.4607C76.0602 65.4935 76.1892 65.5633 76.3078 65.6357C76.8543 65.9699 77.3906 66.3217 77.9431 66.646C78.288 66.8481 78.6536 67.0145 79.0126 67.1919C79.2452 67.3065 79.4957 67.3113 79.7457 67.276C80.2317 67.2082 80.4058 66.8481 80.1599 66.4295C80.1023 66.3323 80.0404 66.2371 79.9605 66.1097C80.2192 66.1915 80.4265 66.2916 80.6432 66.3194C81.188 66.3889 81.617 66.1201 81.5521 65.5676C81.5446 65.5033 81.5706 65.4001 81.6171 65.3696C81.806 65.2439 81.9081 65.0608 82.0001 64.8668V64.6059C81.8981 64.4077 81.8399 64.1871 81.6616 64.0283C81.6039 63.9805 81.5947 63.87 81.5883 63.7864ZM11.6265 56.0577C10.8882 56.8076 10.1193 57.5281 9.51562 58.403C9.10906 58.9928 8.66141 59.5543 8.23184 60.1279C8.16845 60.2126 8.09942 60.2934 8.00371 60.4119C7.57568 60.0295 7.13679 59.6899 6.76199 59.2895C6.21242 58.7037 5.70915 58.0752 5.18612 57.4642C5.14405 57.4145 5.09916 57.3664 5.06344 57.312C4.40348 56.2955 3.88737 55.2089 3.53543 54.0504C3.4105 53.638 3.37648 53.1979 3.30674 52.7695C3.10346 51.5155 3.15978 50.2605 3.26637 49.0016C3.38043 47.6544 3.68394 46.3439 4.00651 45.0378C4.09926 44.6617 4.28758 44.3102 4.41774 43.9421C4.73565 43.0438 5.27252 42.261 5.73442 41.4391C5.7707 41.3741 5.82547 41.317 5.87841 41.2641C6.33171 40.8108 6.785 40.3575 7.24337 39.9093C7.32751 39.8276 7.42887 39.7589 7.53192 39.7014C8.18511 39.3345 8.83886 38.9693 9.496 38.6104C9.63717 38.5332 9.79034 38.4711 9.9452 38.426C10.5178 38.2579 11.0874 38.0759 11.669 37.9451C12.2186 37.8218 12.7847 37.7769 13.3359 37.6605C13.985 37.5234 14.6031 37.7106 15.2798 37.7538C15.1514 38.0947 15.0846 38.4115 14.8409 38.6516C14.7096 38.7812 14.584 38.9172 14.4615 39.0554C14.4229 39.0986 14.4033 39.1584 14.3549 39.2478C14.6849 39.2317 14.871 38.9731 15.1837 38.9108C14.8968 39.5236 14.6728 40.1175 14.5305 40.8128C14.8877 40.6342 14.993 40.3036 15.292 40.11C15.1716 40.6181 14.9832 41.0782 15.0835 41.5817C15.2039 41.5977 15.3075 41.6118 15.4446 41.63C15.425 42.0017 15.406 42.3645 15.3842 42.7787C15.5736 42.7509 15.7234 42.729 15.8928 42.7043C15.7615 43.4648 15.6336 44.2048 15.5057 44.9453C15.5276 44.9616 15.5489 44.9777 15.5708 44.9939C15.6676 44.9462 15.7638 44.8976 15.887 44.8368C15.9613 45.1718 15.8933 45.5044 15.9251 45.8296C15.9556 46.1505 16.008 46.469 16.0506 46.7892C16.3029 46.8294 16.315 46.5606 16.4981 46.5094C16.71 47.0848 16.4785 47.6619 16.5097 48.2748C16.6791 48.2412 16.8184 48.2135 17.0021 48.1775C16.8633 48.4746 16.7429 48.7332 16.603 49.0329C16.9117 49.0621 17.0511 48.7971 17.3183 48.7668C17.3516 48.8906 17.3926 49.0208 17.4208 49.153C17.5504 49.7579 17.68 50.361 17.6645 50.9871C17.6536 51.4219 17.4825 51.7922 17.2239 52.1136C16.8547 52.5718 16.4117 52.9479 15.8957 53.2488C15.155 53.6809 14.4437 54.1623 13.7082 54.604C13.0556 54.9963 12.4284 55.4232 11.8283 55.8907C11.7589 55.9452 11.6869 55.996 11.6265 56.0577ZM35.1825 51.1108C34.8087 51.7846 34.4349 52.4591 34.0674 53.1365C33.9891 53.2815 33.8894 53.3587 33.7254 53.3995C33.2629 53.5153 32.8055 53.6524 32.3464 53.7839C32.2739 53.8045 32.2019 53.8305 32.1333 53.8623C31.2083 54.289 30.3967 54.8852 29.633 55.5508C29.5518 55.6217 29.4838 55.7082 29.4148 55.7923C28.4904 56.9165 27.5687 58.0424 26.6409 59.1639C26.4756 59.3638 26.2901 59.5483 26.1065 59.7318C25.9608 59.8776 25.7989 60.0072 25.6526 60.1523C24.7472 61.0509 23.7405 61.8284 22.687 62.5381C22.1974 62.8673 21.6439 63.1174 21.0939 63.3385C20.2247 63.6882 19.3084 63.8806 18.3764 63.968C17.4468 64.0551 16.5148 64.0603 15.5795 64.005C14.8624 63.963 14.2002 63.7342 13.5238 63.5401C13.4657 63.5236 13.4103 63.4952 13.3447 63.4687C13.37 63.4221 13.3787 63.3871 13.4006 63.3691C13.9362 62.9286 14.4419 62.4551 15.0369 62.0835C17.2129 60.7251 19.4701 59.5188 21.7895 58.427C22.2118 58.2282 22.6385 58.0399 23.0688 57.8595C23.5711 57.6494 23.9881 57.3226 24.3268 56.908C24.6327 56.5342 24.7973 56.0792 24.9315 55.619C25.2599 54.494 25.6043 53.3727 25.894 52.2381C26.0599 51.5882 26.1405 50.9164 26.243 50.251C26.4682 48.7897 26.5551 47.3152 26.6415 45.8415C26.6445 45.7908 26.6565 45.7411 26.6709 45.6468C26.7521 45.7199 26.8085 45.7631 26.8551 45.8145C27.385 46.3974 27.6955 47.0712 27.7104 47.8695C27.7116 47.945 27.7462 48.0193 27.7853 48.1736C27.942 47.9641 28.0485 47.8218 28.1769 47.6489C28.2651 47.7547 28.3353 47.8452 28.4119 47.9298C28.5871 48.1222 28.7588 48.318 28.9436 48.5014C29.1255 48.6808 29.1388 48.674 29.3398 48.4936C29.3875 48.4506 29.4365 48.4089 29.4958 48.3565C29.5845 48.4031 29.6733 48.4431 29.7539 48.4936C30.2705 48.8193 30.8349 49.0442 31.3896 49.2926C31.7939 49.4735 32.2057 49.5006 32.6313 49.4608C32.9009 49.4354 33.1687 49.3899 33.4377 49.3546C33.4762 49.3497 33.516 49.354 33.5869 49.354C33.4682 49.5285 33.2447 49.547 33.1375 49.7776C33.3455 49.7776 33.5044 49.7993 33.6553 49.7735C34.0544 49.7049 34.434 49.8052 34.8131 49.8915C35.0631 49.9485 35.2232 50.1325 35.2785 50.3844C35.3362 50.636 35.3098 50.8802 35.1825 51.1108Z" fill="#69531E"/>
</g>
</g>
</g>
<defs>
<clipPath id="clip0_273_1334">
<rect width="82" height="82" fill="white"/>
</clipPath>
</defs>
</svg>
