<svg width="85" height="112" viewBox="0 0 85 112" fill="none" xmlns="http://www.w3.org/2000/svg">
<path d="M23.396 102.022L24.9 103.286C24.004 104.086 22.836 104.966 21.86 105.59C22.964 107.094 24.356 108.342 25.988 109.158C25.524 109.542 24.9 110.278 24.564 110.79C21.428 108.998 19.38 105.926 18.02 102.102C17.476 102.902 16.9 103.654 16.212 104.294V108.518L19.732 107.606C19.732 108.134 19.796 108.918 19.876 109.318C15.412 110.582 14.676 110.838 14.212 111.158C14.084 110.694 13.684 109.894 13.364 109.478C13.764 109.302 14.308 108.838 14.308 108.166V105.798C13.636 106.23 12.9 106.63 12.116 106.966C11.86 106.55 11.172 105.734 10.756 105.366C13.732 104.294 15.748 102.534 17.028 99.942H13.732V101.718H11.844V98.182H17.748C17.956 97.558 18.132 96.918 18.276 96.23L20.228 96.598C20.1 97.158 19.956 97.67 19.796 98.182H25.348V101.718H23.38V99.942H19.22C19.62 101.43 20.18 102.838 20.916 104.118C21.78 103.494 22.74 102.694 23.396 102.022ZM31.38 105.462L29.476 106.134C29.124 104.598 28.292 102.038 27.556 100.07L29.3 99.558C30.052 101.43 30.98 103.942 31.38 105.462ZM37.524 108.502H41.668V110.406H27.364V108.502H31.492V96.406H33.46V108.502H35.556V96.406H37.524V105.222C38.324 103.702 39.284 101.43 39.812 99.606L41.524 100.422C40.82 102.438 39.812 104.694 38.98 106.23L37.524 105.494V108.502ZM51.524 108.822H57.732V110.694H43.348V108.822H49.524V105.606H45.188V103.766H49.524V100.95H46.212C45.748 101.83 45.252 102.646 44.724 103.27C44.34 102.966 43.492 102.39 43.012 102.134C44.26 100.79 45.3 98.582 45.844 96.406L47.812 96.838C47.588 97.606 47.332 98.358 47.06 99.094H49.524V96.214H51.524V99.094H56.916V100.95H51.524V103.766H56.308V105.606H51.524V108.822ZM73.444 102.214V104.07H62.308V104.47C62.308 106.454 62.004 109.462 60.532 111.334C60.212 110.966 59.364 110.214 58.932 109.974C60.196 108.342 60.308 106.054 60.308 104.422V102.214H63.604C63.332 101.622 62.884 100.854 62.468 100.262L63.828 99.67H60.18V97.862H65.684C65.492 97.43 65.22 96.982 64.964 96.614L66.932 96.134C67.332 96.646 67.732 97.334 67.94 97.862H73.108V99.67H64.228C64.708 100.31 65.252 101.126 65.492 101.702L64.356 102.214H68.068C68.5 101.51 68.98 100.454 69.252 99.686L71.38 100.342C70.932 100.998 70.468 101.654 70.068 102.214H73.444Z" fill="#69531E"/>
<circle cx="42.5" cy="43.25" r="41.5" fill="#FFEEBD" stroke="#FFBB00" stroke-width="2"/>
<path d="M36.2794 50.1011L31.9278 42.1433L32.2598 41.7779L33.6954 43.1685C33.5476 43.504 33.5143 43.8893 33.6021 44.2508C33.6898 44.6123 33.8924 44.9244 34.1709 45.1275C34.3893 45.2802 34.6409 45.361 34.8976 45.3609C35.1767 45.364 35.4497 45.2682 35.6782 45.0869L44.6325 53.7349C44.6844 53.7932 44.746 53.8394 44.8138 53.8708C44.8815 53.9021 44.9541 53.918 45.0273 53.9176C45.1068 53.917 45.1853 53.8978 45.2579 53.8611C45.3305 53.8244 45.3956 53.7711 45.449 53.7045C45.5558 53.5811 45.6157 53.4153 45.6157 53.2426C45.6157 53.0699 45.5558 52.9041 45.449 52.7808L36.3781 44.0515L40.8642 36.0531C41.0044 35.8082 41.079 35.5227 41.079 35.2309C41.079 34.9392 41.0044 34.6537 40.8642 34.4088C40.7969 34.3037 40.7219 34.2052 40.6399 34.1144L35.427 27.1412C35.304 26.9353 35.1383 26.7665 34.9443 26.6498C34.7504 26.533 34.5341 26.4717 34.3144 26.4713L27.4327 26.5423C27.2312 26.5477 27.035 26.616 26.8656 26.7396C26.6962 26.8632 26.5602 27.0373 26.4727 27.2427L24.3463 32.4092L23.7811 31.8611C23.7284 31.8003 23.6656 31.752 23.5963 31.719C23.5269 31.6861 23.4525 31.6691 23.3773 31.6691C23.3021 31.6691 23.2277 31.6861 23.1583 31.719C23.089 31.752 23.0262 31.8003 22.9736 31.8611C22.9196 31.9215 22.8767 31.9934 22.8475 32.0727C22.8182 32.1519 22.8032 32.237 22.8032 32.3229C22.8032 32.4088 22.8182 32.4938 22.8475 32.5731C22.8767 32.6524 22.9196 32.7243 22.9736 32.7847L23.808 33.5967L23.5926 34.1347C23.4354 34.4857 23.4027 34.8913 23.5011 35.2686C23.5995 35.646 23.8216 35.9665 24.122 36.1648C24.3227 36.3 24.5524 36.3702 24.7859 36.3678C25.0133 36.367 25.2369 36.3016 25.436 36.1774C25.6351 36.0532 25.8034 35.8743 25.9254 35.6573L26.6252 36.3373L23.4581 40.2046C23.2516 40.4205 23.085 40.6806 22.9679 40.9698C22.8509 41.259 22.7857 41.5716 22.7762 41.8895L22.5429 50.5985L20.4524 60.8299C20.3288 61.445 20.4255 62.0903 20.7215 62.6248C21.0174 63.1594 21.4884 63.5395 22.0315 63.6822C22.1905 63.7225 22.353 63.7429 22.516 63.7431C22.9938 63.7427 23.4574 63.5587 23.8307 63.2212C24.204 62.8837 24.4649 62.4128 24.5706 61.8856L26.7598 51.1973L26.9662 43.4527L28.2223 44.4677L31.8112 51.0552L27.8814 60.3427C27.7518 60.6276 27.6743 60.939 27.6535 61.2585C27.6327 61.5779 27.669 61.8989 27.7602 62.2021C27.8513 62.5054 27.9956 62.7848 28.1843 63.0236C28.373 63.2624 28.6023 63.4558 28.8585 63.5922C29.1147 63.7286 29.3926 63.8052 29.6755 63.8175C29.9584 63.8298 30.2407 63.7774 30.5054 63.6636C30.77 63.5498 31.0117 63.3769 31.2161 63.1551C31.4204 62.9333 31.5831 62.6673 31.6946 62.3728L36.3422 51.5018C36.4424 51.283 36.4893 51.038 36.4783 50.7919C36.4673 50.5457 36.3986 50.3073 36.2794 50.1011Z" fill="#FFBB00"/>
<path d="M41.4572 31.7292C43.5879 31.7292 45.3152 29.7751 45.3152 27.3646C45.3152 24.9541 43.5879 23 41.4572 23C39.3264 23 37.5991 24.9541 37.5991 27.3646C37.5991 29.7751 39.3264 31.7292 41.4572 31.7292Z" fill="#FFBB00"/>
<path d="M66.5162 60.9719C65.2242 58.8403 59.0333 45.5841 57.4363 43.7164C55.8392 41.8488 54.4216 41.6052 53.4526 42.0518C52.3882 42.5164 51.4571 43.3029 50.761 44.3254C49.6215 46.0814 48.0693 51.3393 46.7773 53.6941C46.5209 54.0165 46.2813 54.3554 46.0595 54.7092L45.9877 54.7701C45.0367 55.4197 42.3988 55.9779 41.3311 57.2061C40.6779 58.0161 40.1005 58.9005 39.6085 59.8452L39.447 60.099C38.6134 61.6012 37.3782 62.7639 35.9209 63.4181V63.7429H65.6548C65.8612 63.7632 68.0953 63.5805 66.5162 60.9719Z" fill="#FFBB00"/>
</svg>
