<svg width="1440" height="155" viewBox="0 0 1440 155" fill="none" xmlns="http://www.w3.org/2000/svg">
<rect width="1440" height="155" fill="#FFFAD9"/>
<path d="M175.824 68.656H185.136L184.824 71.656C177.496 71.496 170.44 71.496 163.656 71.656L163.512 68.656H172.56V64.072C169.904 64.072 167.584 64.088 165.6 64.12L165.456 61.288H172.56V57.448C170.896 57.448 169.12 57.464 167.232 57.496C166.88 58.424 166.504 59.344 166.104 60.256L163.056 59.824C164.32 57.104 165.16 54.328 165.576 51.496L168.648 51.76C168.488 52.768 168.296 53.744 168.072 54.688H172.56V50.68H175.824V54.688H184.176L183.888 57.52C182.208 57.472 179.52 57.448 175.824 57.448V61.288H183.144L182.904 64.12C181.048 64.088 178.688 64.072 175.824 64.072V68.656ZM194.544 65.704L191.856 67.072C190.704 65.696 189.72 64.344 188.904 63.016L191.52 61.84C192.336 63.072 193.344 64.36 194.544 65.704ZM203.976 61.888L207 62.632C206.28 64.136 205.392 65.584 204.336 66.976L201.504 65.92C202.528 64.672 203.352 63.328 203.976 61.888ZM203.232 56.824C198.256 56.792 193.84 56.816 189.984 56.896L189.816 55.192H203.232V53.56H188.88L188.736 51.4H206.448V60.712C199.616 60.584 193.776 60.584 188.928 60.712L188.76 58.552H203.232V56.824ZM199.056 64.984C201.984 67.752 205.416 69.4 209.352 69.928L207.336 72.544C205.48 72.208 203.72 71.584 202.056 70.672C200.44 69.792 199.032 68.72 197.832 67.456C196.104 69.984 193.088 71.688 188.784 72.568L186.888 70.024C190.504 69.448 193.08 68.344 194.616 66.712C195.832 65.416 196.496 63.616 196.608 61.312L199.656 61.408C199.608 62.72 199.408 63.912 199.056 64.984Z" fill="#FFD35C"/>
<path d="M225.84 58.552H229.368V54.208H225.84V58.552ZM230.568 61.984V72.16C224.76 72.048 219.064 72.048 213.48 72.16V61.984H230.568ZM232.152 51.808V60.952C229.496 60.824 226.512 60.824 223.2 60.952V51.808H232.152ZM227.544 67.696C223.88 67.632 220.192 67.632 216.48 67.696V69.688H227.544V67.696ZM227.544 65.968V64.216H216.48V65.968H227.544ZM219.576 57.736C220.472 58.728 221.64 59.464 223.08 59.944L220.704 61.864C219.488 61.112 218.416 60.12 217.488 58.888C216.544 60.104 215.336 61.128 213.864 61.96L211.032 60.208C213.016 59.552 214.392 58.728 215.16 57.736C214.008 57.736 212.84 57.76 211.656 57.808L211.536 55.624H215.952V55.432V53.968C215.504 53.984 215.056 53.992 214.608 53.992C214.352 54.472 214.04 54.928 213.672 55.36L211.536 54.592C212.448 53.52 213.152 52.2 213.648 50.632L215.832 50.992C215.704 51.44 215.6 51.768 215.52 51.976H222.144L221.976 54.016C220.568 53.984 219.536 53.968 218.88 53.968V55.336V55.624H222.672L222.48 57.808C221.824 57.792 220.856 57.768 219.576 57.736ZM250.68 69.328V72.544H247.584V69.328C245.264 69.328 242.768 69.352 240.096 69.4L239.976 66.64H247.584V64.84C245.136 64.872 243.144 64.896 241.608 64.912L241.416 62.752C242.344 61.552 243.032 60.528 243.48 59.68C242.568 59.696 241.656 59.712 240.744 59.728L240.624 57.208H244.632C244.824 56.76 245.024 56.224 245.232 55.6L248.352 55.744C248.112 56.352 247.92 56.84 247.776 57.208H256.32L256.056 59.728C253.256 59.68 250.112 59.656 246.624 59.656C246.112 60.632 245.488 61.56 244.752 62.44H247.944V60.472H250.68V62.44H255.744L255.6 64.912C253.456 64.88 251.816 64.864 250.68 64.864V66.64H256.848L256.56 69.4C254.608 69.384 252.648 69.36 250.68 69.328ZM248.424 52.312H256.896L256.632 55.024H239.64V60.76C239.64 65.896 239.136 69.752 238.128 72.328L234.864 71.512C236 69.16 236.568 65.576 236.568 60.76V52.312H245.04C245.024 51.976 244.984 51.432 244.92 50.68H248.52C248.488 51.064 248.456 51.608 248.424 52.312Z" fill="#464646"/>
<path d="M116.029 72.1817C119.153 75.9646 121.012 80.9096 126.831 82.0409C125.35 80.8059 124.052 79.8678 122.948 78.7388C122.409 78.1849 122.092 77.301 121.927 76.5162C121.775 75.7902 122.207 75.5545 122.967 75.8939C124.826 76.7212 126.673 77.631 128.612 78.2179C131.696 79.1536 134.102 80.9096 135.97 83.6625C136.297 83.2689 136.557 82.9672 136.806 82.6537C138.456 80.5914 140.503 79.1489 143.045 78.3546C145.293 77.6522 147.488 76.7778 149.849 75.9293C150.978 77.1243 149.445 79.3139 145.422 81.6261C146.497 81.9348 147.546 81.6685 148.905 80.6574C151.475 78.7459 153.177 76.1178 154.773 73.4073C155.041 72.9501 155.362 72.5258 155.66 72.0874C155.778 72.1204 155.895 72.1558 156.012 72.1888C156.012 72.6625 156.083 73.148 156.001 73.6077C154.975 79.3257 151.79 83.7332 147.483 87.3912C146.793 87.9781 145.737 88.2091 144.81 88.4189C142.228 89.0058 139.63 89.5219 137.027 90.0075C136.376 90.1277 135.668 90.13 135.02 90.0098C132.37 89.5243 129.725 89.0034 127.096 88.4189C126.256 88.2327 125.312 87.9993 124.678 87.469C120.292 83.8133 117.102 79.3634 116.041 73.6053C115.956 73.1457 116.029 72.6578 116.029 72.1817Z" fill="#FFD35C"/>
<path d="M144.579 76.356C141.202 77.0372 138.381 78.482 136.055 81.1289C133.949 78.845 131.475 77.2587 128.314 76.5728C129.455 72.7098 131.142 69.3393 134.944 67.6965C135.914 67.2769 137.437 67.4113 138.416 67.8898C141.829 69.5608 143.418 72.7051 144.579 76.356Z" fill="#FFD35C"/>
<path d="M146.333 56.0929C146.157 58.497 145.619 60.7032 144.195 62.61C142.319 65.1225 139.745 64.8232 138.634 61.8817C137.287 58.3108 137.764 54.8319 139.928 51.7207C141.716 49.1493 144.331 49.517 145.476 52.442C145.927 53.5945 146.058 54.872 146.333 56.0929Z" fill="#FFD35C"/>
<path d="M135.313 58.379C134.762 59.9346 134.407 61.6033 133.605 63.0128C132.675 64.6438 130.973 64.7075 129.544 63.4795C126.645 60.9905 125.807 54.5041 127.981 51.3741C129.237 49.5639 131.246 49.5663 132.781 51.4354C134.4 53.4058 134.94 55.751 134.966 58.2494L135.313 58.379Z" fill="#FFD35C"/>
<path d="M119.254 65.4172C119.27 62.9376 120.179 61.2217 121.7 60.8093C123.216 60.3968 125.021 61.375 126.26 63.3831C127.664 65.6599 128.286 68.1088 127.45 70.7486C126.671 73.2046 124.573 73.9258 122.538 72.3655C120.287 70.6402 119.263 68.2502 119.254 65.4172Z" fill="#FFD35C"/>
<path d="M153.708 65.2591C153.572 68.4363 152.546 70.9158 150.072 72.5775C148.255 73.7984 146.366 73.1031 145.561 71.0596C144.375 68.0521 145.697 63.4725 148.307 61.5468C150.403 60.0006 152.59 60.6818 153.353 63.1661C153.583 63.9132 153.621 64.7217 153.71 65.2591H153.708Z" fill="#FFD35C"/>
<path d="M168.244 80.2451H172.065C172.544 80.2451 172.952 80.2998 173.289 80.4092C173.626 80.514 173.902 80.6781 174.116 80.9014C174.335 81.1201 174.494 81.3981 174.595 81.7354C174.695 82.068 174.745 82.4622 174.745 82.918C174.745 83.3053 174.704 83.6198 174.622 83.8613C174.545 84.1029 174.447 84.2943 174.328 84.4355C174.21 84.5768 174.077 84.6794 173.932 84.7432C173.786 84.8024 173.649 84.8457 173.521 84.873V84.8867C173.604 84.8958 173.701 84.9163 173.815 84.9482C173.929 84.9756 174.048 85.0212 174.171 85.085C174.294 85.1442 174.415 85.2262 174.533 85.3311C174.652 85.4313 174.759 85.5612 174.854 85.7207C174.95 85.8802 175.028 86.0739 175.087 86.3018C175.146 86.5251 175.176 86.7871 175.176 87.0879C175.176 87.6895 175.117 88.1794 174.998 88.5576C174.88 88.9359 174.7 89.2321 174.458 89.4463C174.221 89.6605 173.918 89.8063 173.549 89.8838C173.184 89.9613 172.756 90 172.264 90H168.244V80.2451ZM171.744 84.3604C171.99 84.3604 172.2 84.3444 172.373 84.3125C172.546 84.2806 172.688 84.2168 172.797 84.1211C172.911 84.0208 172.993 83.8818 173.043 83.7041C173.093 83.5264 173.118 83.2917 173.118 83C173.118 82.7585 173.089 82.5579 173.029 82.3984C172.97 82.2344 172.883 82.1045 172.77 82.0088C172.656 81.9131 172.514 81.8447 172.346 81.8037C172.182 81.7627 171.995 81.7422 171.785 81.7422H169.885V84.3604H171.744ZM172.065 88.5029C172.275 88.5029 172.464 88.487 172.633 88.4551C172.806 88.4186 172.952 88.3503 173.07 88.25C173.193 88.1497 173.287 88.0107 173.351 87.833C173.419 87.6507 173.453 87.4115 173.453 87.1152C173.453 86.819 173.424 86.582 173.364 86.4043C173.31 86.222 173.221 86.083 173.098 85.9873C172.979 85.8916 172.826 85.8301 172.64 85.8027C172.457 85.7708 172.239 85.7549 171.983 85.7549H169.885V88.5029H172.065ZM178.04 81.5645C177.853 81.5645 177.698 81.5508 177.575 81.5234C177.457 81.4961 177.359 81.4482 177.281 81.3799C177.208 81.3115 177.156 81.2181 177.124 81.0996C177.097 80.9811 177.083 80.8285 177.083 80.6416C177.083 80.4548 177.097 80.3021 177.124 80.1836C177.156 80.0605 177.208 79.9626 177.281 79.8896C177.359 79.8167 177.457 79.7666 177.575 79.7393C177.698 79.7119 177.853 79.6982 178.04 79.6982C178.227 79.6982 178.38 79.7119 178.498 79.7393C178.621 79.7666 178.719 79.8167 178.792 79.8896C178.865 79.9626 178.915 80.0605 178.942 80.1836C178.97 80.3021 178.983 80.4548 178.983 80.6416C178.983 80.8285 178.97 80.9811 178.942 81.0996C178.915 81.2181 178.865 81.3115 178.792 81.3799C178.719 81.4482 178.621 81.4961 178.498 81.5234C178.38 81.5508 178.227 81.5645 178.04 81.5645ZM177.227 82.7881H178.854V90H177.227V82.7881ZM180.74 86.3906C180.74 85.7799 180.806 85.2399 180.938 84.7705C181.071 84.2965 181.276 83.8978 181.554 83.5742C181.836 83.2507 182.192 83.0046 182.62 82.8359C183.049 82.6673 183.561 82.583 184.158 82.583C184.755 82.583 185.268 82.6673 185.696 82.8359C186.129 83.0046 186.485 83.2507 186.763 83.5742C187.041 83.8978 187.246 84.2965 187.378 84.7705C187.51 85.2399 187.576 85.7799 187.576 86.3906C187.576 87.0013 187.51 87.5459 187.378 88.0244C187.246 88.4984 187.041 88.8971 186.763 89.2207C186.485 89.5443 186.129 89.7904 185.696 89.959C185.268 90.1276 184.755 90.2119 184.158 90.2119C183.561 90.2119 183.049 90.1276 182.62 89.959C182.192 89.7904 181.836 89.5443 181.554 89.2207C181.276 88.8971 181.071 88.4984 180.938 88.0244C180.806 87.5459 180.74 87.0013 180.74 86.3906ZM184.158 88.8379C184.518 88.8379 184.81 88.7855 185.033 88.6807C185.257 88.5713 185.43 88.4141 185.553 88.209C185.676 87.9993 185.758 87.7441 185.799 87.4434C185.844 87.138 185.867 86.7871 185.867 86.3906C185.867 85.9987 185.844 85.6523 185.799 85.3516C185.758 85.0462 185.676 84.791 185.553 84.5859C185.43 84.3763 185.257 84.2191 185.033 84.1143C184.81 84.0049 184.518 83.9502 184.158 83.9502C183.803 83.9502 183.513 84.0049 183.29 84.1143C183.067 84.2191 182.891 84.3763 182.764 84.5859C182.641 84.791 182.556 85.0462 182.511 85.3516C182.47 85.6523 182.449 85.9987 182.449 86.3906C182.449 86.7871 182.47 87.138 182.511 87.4434C182.556 87.7441 182.641 87.9993 182.764 88.209C182.891 88.4141 183.067 88.5713 183.29 88.6807C183.513 88.7855 183.803 88.8379 184.158 88.8379ZM191.479 80.2451H193.653L196.846 90H195.034L194.214 87.3545H190.892L190.105 90H188.314L191.479 80.2451ZM193.763 85.8848L192.56 81.7559H192.532L191.329 85.8848H193.763ZM198.076 82.7881H199.478L199.573 83.5742C199.929 83.3418 200.327 83.1504 200.77 83C201.212 82.8496 201.708 82.7607 202.26 82.7334L202.246 84.415C201.676 84.4242 201.182 84.4538 200.763 84.5039C200.348 84.5495 199.993 84.6315 199.696 84.75V90H198.076V82.7881ZM203.162 86.3906C203.162 85.707 203.244 85.126 203.408 84.6475C203.577 84.1689 203.802 83.7816 204.085 83.4854C204.372 83.1846 204.707 82.9658 205.09 82.8291C205.473 82.6924 205.881 82.624 206.313 82.624C206.646 82.624 206.945 82.6468 207.209 82.6924C207.473 82.7334 207.699 82.779 207.886 82.8291C208.104 82.8883 208.294 82.9544 208.453 83.0273V84.1484C208.298 84.1348 208.13 84.1188 207.947 84.1006C207.792 84.0915 207.617 84.0824 207.421 84.0732C207.225 84.0596 207.02 84.0527 206.806 84.0527C206.464 84.0527 206.17 84.0824 205.924 84.1416C205.678 84.2008 205.477 84.3148 205.322 84.4834C205.167 84.6475 205.053 84.8822 204.98 85.1875C204.908 85.4883 204.871 85.8848 204.871 86.377C204.871 86.8783 204.912 87.2839 204.994 87.5938C205.081 87.9036 205.211 88.1452 205.384 88.3184C205.557 88.487 205.773 88.6009 206.033 88.6602C206.293 88.7148 206.601 88.7422 206.956 88.7422C207.179 88.7422 207.384 88.7376 207.571 88.7285C207.763 88.7148 207.929 88.6989 208.07 88.6807C208.234 88.6624 208.382 88.6396 208.515 88.6123V89.7471C208.369 89.8291 208.191 89.902 207.981 89.9658C207.804 90.0205 207.58 90.0706 207.312 90.1162C207.043 90.1618 206.728 90.1846 206.368 90.1846C205.926 90.1846 205.509 90.123 205.117 90C204.73 89.8815 204.39 89.6764 204.099 89.3848C203.812 89.0931 203.584 88.7057 203.415 88.2227C203.246 87.735 203.162 87.1243 203.162 86.3906ZM210.258 79.377H211.878V83.1367C212.119 83.0456 212.379 82.9613 212.657 82.8838C212.894 82.82 213.165 82.7607 213.471 82.7061C213.781 82.6514 214.1 82.624 214.428 82.624C214.756 82.624 215.052 82.6605 215.316 82.7334C215.585 82.8018 215.811 82.9271 215.993 83.1094C216.18 83.2871 216.324 83.5309 216.424 83.8408C216.524 84.1462 216.574 84.5381 216.574 85.0166V90H214.947V85.2148C214.947 85.0234 214.934 84.8571 214.906 84.7158C214.879 84.57 214.82 84.4515 214.729 84.3604C214.642 84.2646 214.514 84.194 214.346 84.1484C214.182 84.1029 213.963 84.0801 213.689 84.0801C213.471 84.0801 213.254 84.0938 213.04 84.1211C212.83 84.1484 212.639 84.1781 212.466 84.21C212.261 84.2464 212.065 84.2874 211.878 84.333V90H210.258V79.377ZM219.767 81.5645C219.58 81.5645 219.425 81.5508 219.302 81.5234C219.183 81.4961 219.085 81.4482 219.008 81.3799C218.935 81.3115 218.882 81.2181 218.851 81.0996C218.823 80.9811 218.81 80.8285 218.81 80.6416C218.81 80.4548 218.823 80.3021 218.851 80.1836C218.882 80.0605 218.935 79.9626 219.008 79.8896C219.085 79.8167 219.183 79.7666 219.302 79.7393C219.425 79.7119 219.58 79.6982 219.767 79.6982C219.953 79.6982 220.106 79.7119 220.225 79.7393C220.348 79.7666 220.446 79.8167 220.519 79.8896C220.591 79.9626 220.642 80.0605 220.669 80.1836C220.696 80.3021 220.71 80.4548 220.71 80.6416C220.71 80.8285 220.696 80.9811 220.669 81.0996C220.642 81.2181 220.591 81.3115 220.519 81.3799C220.446 81.4482 220.348 81.4961 220.225 81.5234C220.106 81.5508 219.953 81.5645 219.767 81.5645ZM218.953 82.7881H220.58V90H218.953V82.7881ZM221.865 82.7881H223.629L225.406 88.4893H225.434L227.211 82.7881H228.975L226.486 90H224.36L221.865 82.7881ZM229.658 86.3154C229.658 85.5635 229.756 84.946 229.952 84.4629C230.148 83.9798 230.408 83.5993 230.731 83.3213C231.055 83.0433 231.424 82.8519 231.839 82.7471C232.254 82.6377 232.68 82.583 233.117 82.583C233.669 82.583 234.124 82.6582 234.484 82.8086C234.849 82.959 235.138 83.1709 235.353 83.4443C235.567 83.7132 235.717 84.0368 235.804 84.415C235.89 84.7933 235.934 85.2103 235.934 85.666C235.934 85.8802 235.924 86.1012 235.906 86.3291C235.893 86.557 235.872 86.7917 235.845 87.0332H231.326C231.331 87.3568 231.365 87.6302 231.429 87.8535C231.497 88.0723 231.606 88.2523 231.757 88.3936C231.912 88.5303 232.115 88.6305 232.365 88.6943C232.62 88.7536 232.937 88.7832 233.315 88.7832C233.634 88.7832 233.933 88.7764 234.211 88.7627C234.489 88.7445 234.733 88.724 234.942 88.7012C235.188 88.6784 235.412 88.6488 235.612 88.6123V89.7471C235.38 89.8337 235.127 89.9111 234.854 89.9795C234.621 90.0387 234.35 90.0911 234.04 90.1367C233.73 90.1868 233.4 90.2119 233.049 90.2119C232.511 90.2119 232.033 90.1436 231.613 90.0068C231.194 89.8747 230.839 89.6559 230.547 89.3506C230.26 89.0407 230.039 88.6374 229.884 88.1406C229.733 87.6439 229.658 87.0355 229.658 86.3154ZM234.437 85.8164V85.5566C234.437 85.2832 234.418 85.0462 234.382 84.8457C234.35 84.6406 234.282 84.472 234.177 84.3398C234.072 84.2077 233.924 84.1097 233.732 84.0459C233.541 83.9821 233.286 83.9502 232.967 83.9502C232.625 83.9502 232.345 83.9912 232.126 84.0732C231.912 84.1507 231.743 84.2692 231.62 84.4287C231.502 84.5837 231.42 84.7773 231.374 85.0098C231.333 85.2422 231.312 85.5111 231.312 85.8164H234.437Z" fill="#464646"/>
<path d="M346.144 44.72L348.784 45.584C348.16 47.144 347.416 48.776 346.552 50.312V67.04H343.84V54.488C343.24 55.256 342.64 55.976 342.016 56.624C341.752 55.928 340.96 54.392 340.48 53.696C342.712 51.536 344.896 48.128 346.144 44.72ZM351.976 48.224V51.44H359.008V48.224H351.976ZM363.04 58.712H358.24C359.656 60.8 361.72 62.768 363.736 63.944C363.088 64.496 362.176 65.504 361.72 66.224C359.968 64.976 358.216 63.032 356.848 60.896V67.088H353.968V61.016C352.504 63.128 350.68 64.952 348.784 66.176C348.352 65.48 347.464 64.448 346.816 63.896C348.976 62.768 351.112 60.824 352.6 58.712H347.68V56.12H353.968V53.96H349.264V45.728H361.864V53.96H356.848V56.12H363.04V58.712ZM373.072 54.656L373.432 57.248C372.592 57.512 371.704 57.776 370.816 58.016V63.752C370.816 65.12 370.6 65.888 369.808 66.344C369.064 66.848 367.96 66.944 366.376 66.944C366.28 66.176 365.944 64.928 365.584 64.136C366.472 64.16 367.312 64.16 367.624 64.136C367.912 64.136 368.008 64.04 368.008 63.728V58.808C367.024 59.072 366.136 59.312 365.272 59.552L364.648 56.792C365.608 56.576 366.76 56.312 368.008 56V51.92H365.032V49.208H368.008V44.696H370.816V49.208H373.192V51.92H370.816V55.28L373.072 54.656ZM377.224 54.848H383.584V51.296H377.224V54.848ZM380.968 48.752H386.416V58.808H383.584V57.56H377.128C376.888 60.872 376.072 64.64 373.816 67.16C373.384 66.56 372.184 65.48 371.536 65.12C374.104 62.24 374.368 58.04 374.368 54.848V48.752H379.744C379.384 47.816 378.712 46.64 378.064 45.704L380.656 44.768C381.448 45.776 382.264 47.144 382.624 48.08L380.968 48.752ZM402.52 50.312H404.584C404.824 49.688 405.064 48.944 405.232 48.248H402.16V46.04H410.872V48.248H407.608C407.344 48.968 407.104 49.688 406.864 50.312H410.608V61.448H408.448V52.4H404.584V61.544H402.52V50.312ZM393.856 48.2L392.32 50.048C391.744 49.208 390.496 47.912 389.536 47.024L391 45.344C391.936 46.184 393.256 47.384 393.856 48.2ZM393.16 54.536L391.816 56.48C391.144 55.664 389.728 54.44 388.648 53.6L389.944 51.872C391 52.616 392.44 53.744 393.16 54.536ZM391.816 57.368L393.64 58.904C392.944 61.352 392.032 64.04 391.168 66.296L389.08 64.784C389.896 62.984 391 60.056 391.816 57.368ZM394.696 55.232L396.712 55.616C396.424 57.488 395.992 59.84 395.152 61.304C394.744 60.992 394 60.512 393.544 60.296C394.264 58.952 394.552 56.816 394.696 55.232ZM400.384 55.328L402.424 55.76C401.416 61.496 399.16 64.952 394.576 67.064C394.336 66.392 393.76 65.552 393.232 65.048C395.464 64.208 397.12 62.888 398.296 61.088H397.192V54.344H393.472V52.04H394.576V46.928H396.544V52.04H397.552V44.672H399.664V47.456H401.728V49.712H399.664V52.04H402.064V54.344H399.232V59.36C399.736 58.16 400.12 56.84 400.384 55.328ZM411.376 65.648L409.672 67.064C409.024 66.056 407.632 64.496 406.504 63.272C405.736 65 404.464 66.2 402.352 67.136C402.112 66.536 401.464 65.624 400.984 65.168C405.352 63.416 405.496 60.68 405.544 53.216H407.608C407.584 57.632 407.488 60.68 406.624 62.888L407.944 61.904C409.12 63.032 410.656 64.616 411.376 65.648ZM427 49.28H419.488C418.912 49.952 418.312 50.6 417.616 51.248H425.872C426.232 50.624 426.64 49.952 427 49.28ZM434.872 53.84H418.792V55.472C418.792 58.952 418.144 63.968 414.832 67.04C414.448 66.488 413.272 65.456 412.648 65.12C415.648 62.336 415.96 58.376 415.96 55.424V52.688C415.504 53.048 415.024 53.408 414.544 53.744C414.136 53.024 413.224 51.92 412.624 51.464C415.816 49.52 417.952 46.856 419.128 44.528L422.224 45.152C421.936 45.68 421.624 46.232 421.288 46.784H428.632L429.088 46.616L431.152 48.104C430.576 48.992 429.808 50.168 429.04 51.248H434.872V53.84ZM425.32 64.16H430.552C432.064 64.16 432.28 63.704 432.472 60.896C433.096 61.352 434.32 61.808 435.088 61.952C434.704 65.72 433.84 66.752 430.72 66.752H425.104C421.624 66.752 420.52 65.96 420.52 63.032V55.472H431.656C431.656 55.472 431.656 56.12 431.632 56.456C431.464 59.6 431.224 61.088 430.672 61.712C430.216 62.216 429.64 62.408 428.92 62.504C428.272 62.576 427.144 62.576 425.896 62.552C425.848 61.784 425.56 60.776 425.152 60.104C426.16 60.2 427.096 60.224 427.504 60.224C427.888 60.224 428.08 60.176 428.296 59.984C428.488 59.768 428.632 59.168 428.752 57.92H423.328V62.984C423.328 63.992 423.616 64.16 425.32 64.16ZM447.376 46.52V49.04H437.992V46.52H447.376ZM453.592 49.856H458.8C458.8 49.856 458.776 50.792 458.776 51.152C458.536 60.824 458.272 64.328 457.48 65.432C456.904 66.272 456.352 66.512 455.488 66.68C454.744 66.8 453.52 66.8 452.272 66.752C452.224 65.936 451.912 64.76 451.432 63.968C452.56 64.064 453.592 64.064 454.096 64.064C454.504 64.064 454.744 63.992 454.984 63.656C455.512 62.984 455.752 60.104 455.968 52.592H453.496C453.16 58.616 452.152 63.704 448.768 67.064C448.312 66.344 447.352 65.336 446.656 64.88C447.352 64.184 447.952 63.392 448.456 62.576L446.176 63.272C446.104 62.936 446.008 62.552 445.888 62.144C439.96 63.68 438.928 64.04 438.232 64.472C438.088 63.92 437.632 62.624 437.32 61.928C437.776 61.76 438.112 61.208 438.496 60.344C438.808 59.624 439.648 57.2 440.176 54.656H437.224V52.064H447.808V54.656H443.104C442.6 56.696 441.88 58.856 441.088 60.704L445.168 59.768C444.808 58.736 444.448 57.704 444.088 56.792L446.368 56.168C447.208 58.112 448.168 60.632 448.6 62.312C449.992 59.696 450.52 56.384 450.688 52.592H448.096V49.856H450.784C450.808 48.344 450.808 46.736 450.808 45.104H453.64C453.64 46.736 453.616 48.32 453.592 49.856ZM469.816 55.256L470.2 57.776C469.336 58.016 468.496 58.304 467.608 58.568V67.112H464.992V59.36C463.696 59.744 462.496 60.128 461.392 60.416L460.696 57.704C461.896 57.44 463.36 57.056 464.992 56.6V52.016H463.384C463.12 53.192 462.832 54.224 462.496 55.088C462.064 54.728 461.008 54.08 460.48 53.768C461.224 51.872 461.632 48.872 461.848 46.04L464.224 46.448C464.128 47.408 464.008 48.344 463.864 49.304H464.992V44.696H467.608V49.304H469.6V52.016H467.608V55.88L469.816 55.256ZM474.088 48.392H483.112C483.112 48.392 483.088 49.352 483.064 49.688C482.608 60.392 482.176 64.304 481.264 65.504C480.712 66.32 480.184 66.584 479.392 66.752C478.72 66.872 477.712 66.872 476.68 66.824C476.608 66.008 476.32 64.832 475.888 64.04C476.776 64.136 477.568 64.136 478.024 64.136C478.384 64.136 478.624 64.04 478.912 63.68C479.512 62.912 479.944 59.648 480.328 51.032H480.208C479.032 57.08 476.56 63.32 472.696 66.512C472.144 65.96 471.16 65.264 470.368 64.856C474.208 62.096 476.608 56.648 477.808 51.032H476.68C475.624 54.944 473.608 59.24 471.184 61.544C470.656 60.992 469.744 60.344 469 59.936C471.376 58.064 473.248 54.512 474.304 51.032H473.08C472.384 52.688 471.544 54.176 470.608 55.328C470.152 54.872 469.024 54.08 468.448 53.72C470.344 51.632 471.664 48.2 472.384 44.672L474.976 45.152C474.736 46.256 474.424 47.336 474.088 48.392ZM488.656 68.312L487.888 66.368C489.76 65.768 490.84 64.736 490.984 63.464C490.912 63.488 490.816 63.488 490.72 63.488C489.52 63.488 488.44 62.72 488.44 61.352C488.44 60.008 489.52 59.192 490.792 59.192C492.496 59.192 493.384 60.464 493.384 62.48C493.384 65.216 491.632 67.424 488.656 68.312ZM352.624 94.928L350.464 97.016C349.888 95.816 348.856 94.16 347.704 92.6C346.912 96.848 345.616 100.352 343.48 102.944C342.952 102.44 341.416 101.384 340.648 100.952C344.464 96.968 345.4 89.744 345.664 81.008L348.808 81.104C348.712 83.888 348.52 86.528 348.232 88.976C349.96 90.824 351.784 93.248 352.624 94.928ZM354.904 81.008L358.072 81.128C357.928 83.888 357.736 86.456 357.4 88.832C358.24 92.72 359.992 97.64 363.352 99.992C362.704 100.544 361.648 101.792 361.216 102.632C358.888 100.664 357.304 97.616 356.272 94.544C355.312 97.976 353.896 100.784 351.784 102.92C351.28 102.44 349.744 101.384 348.952 100.928C353.392 97.088 354.568 90.008 354.904 81.008ZM372.664 84.464L370.672 86.528C369.88 85.544 368.104 83.912 366.88 82.76L368.752 80.96C369.952 82.016 371.776 83.528 372.664 84.464ZM371.344 97.232L373.48 95.744C373.648 96.512 374.056 97.64 374.32 98.192C369.808 101.48 369.04 102.128 368.608 102.68C368.344 102.08 367.6 101.12 367.168 100.688C367.72 100.232 368.584 99.272 368.584 98.024V90.776H365.008V88.04H371.344V97.232ZM378.448 80.792H381.352C381.328 83.096 381.304 85.424 381.16 87.68C381.424 90.248 382.264 97.328 387.448 100.976C386.68 101.504 385.864 102.368 385.408 103.112C382.576 101.024 380.968 97.808 380.008 94.808C379.096 98.048 377.488 100.928 374.752 103.064C374.272 102.32 373.384 101.456 372.592 100.928C378.616 96.512 378.376 88.568 378.448 80.792ZM406.744 90.848V84.92H401.176V90.848H406.744ZM409.744 82.208V93.584H398.32V82.208H409.744ZM395.752 84.656L393.784 86.624C393.016 85.568 391.288 83.936 390.016 82.784L391.84 81.032C393.16 82.112 394.912 83.624 395.752 84.656ZM394.6 96.824L396.712 95.048C396.952 95.864 397.48 96.992 397.84 97.544C393.304 101.408 392.512 102.08 392.056 102.68C391.744 102.128 390.808 101.216 390.352 100.832C390.928 100.304 391.816 99.152 391.816 97.688V90.776H389.008V88.04H394.6V96.824ZM399.808 95.528L402.76 96.176C401.92 98.84 400.456 101.432 398.872 103.064C398.32 102.608 397.072 101.792 396.352 101.432C397.912 100.016 399.136 97.784 399.808 95.528ZM405.208 96.344L407.848 95.408C409.168 97.424 410.56 100.112 411.088 101.864L408.208 102.968C407.752 101.24 406.48 98.456 405.208 96.344ZM422.44 99.728H428.632C430.48 99.728 430.768 99.2 431.056 96.104C431.776 96.584 433.072 97.088 433.912 97.28C433.432 101.36 432.496 102.56 428.776 102.56H422.32C418.216 102.56 417.016 101.624 417.016 98.336V88.424H420.016V93.08C423.424 92.168 426.856 90.968 429.112 89.792L431.392 92.072C428.128 93.536 423.928 94.76 420.016 95.672V98.288C420.016 99.56 420.352 99.728 422.44 99.728ZM426.064 83.72H434.008V89.312H431.008V86.456H416.776V89.312H413.92V83.72H422.896C422.632 82.928 422.248 82.016 421.864 81.248L424.648 80.432C425.248 81.464 425.8 82.784 426.064 83.72ZM440.896 80.744L443.536 81.512C443.032 83.216 442.408 84.968 441.664 86.696V103.064H438.952V91.808C438.64 92.264 438.328 92.672 438.016 93.08C437.8 92.384 437.104 90.752 436.624 90.032C438.4 87.728 439.984 84.224 440.896 80.744ZM443.608 103.04V85.928H446.392V103.04H443.608ZM444.664 81.896L446.824 80.624C447.856 82.04 449.176 83.936 449.776 85.136L447.448 86.6C446.92 85.352 445.672 83.36 444.664 81.896ZM458.392 81.464V99.944C458.392 101.36 458.08 102.08 457.192 102.512C456.328 102.968 455.032 103.016 453.16 103.016C453.04 102.272 452.632 101.096 452.272 100.376C453.4 100.448 454.648 100.448 455.032 100.424C455.416 100.424 455.56 100.28 455.56 99.896V84.032H449.752V81.464H458.392ZM469.504 90.608H475V84.752H469.504V89.912V90.608ZM482.92 90.608V93.344H478V103.112H475V93.344H469.336C468.904 96.92 467.56 100.568 463.384 103.184C462.904 102.536 461.8 101.528 461.08 101.048C464.584 98.936 465.88 96.176 466.336 93.344H461.152V90.608H466.576V89.888V84.752H461.944V82.064H482.2V84.752H478V90.608H482.92ZM490.696 88.04H489.112C488.8 89.72 488.416 91.352 488.056 92.792C488.56 93.2 489.064 93.632 489.544 94.064C490.096 92.288 490.48 90.296 490.696 88.04ZM491.8 85.376L493.432 85.592C493.216 89.864 492.664 93.272 491.704 96.008C492.544 96.872 493.312 97.688 493.816 98.408L492.112 100.784C491.728 100.16 491.152 99.44 490.48 98.696C489.448 100.568 488.104 101.96 486.424 103.064C486.064 102.368 485.32 101.336 484.744 100.808C486.328 99.944 487.552 98.528 488.512 96.68C487.408 95.6 486.256 94.568 485.176 93.704C485.632 92.168 486.112 90.176 486.52 88.04H484.936V85.424H486.976C487.216 83.84 487.408 82.256 487.528 80.816L490.216 80.984C490.048 82.376 489.832 83.912 489.568 85.424H491.32L491.8 85.376ZM507.544 90.824L505.096 92.144C504.952 91.664 504.712 91.112 504.496 90.536C496.48 91.232 495.256 91.352 494.368 91.712C494.2 91.16 493.768 89.792 493.432 89.048C493.96 88.904 494.392 88.424 494.944 87.56C495.544 86.744 497.248 83.672 498.256 80.696L501.232 81.488C500.2 83.936 498.832 86.432 497.512 88.448L503.176 88.064C502.6 87.032 501.952 86.048 501.328 85.184L503.608 84.056C505.24 86.144 506.872 88.904 507.544 90.824ZM503.224 95.552H497.368V99.608H503.224V95.552ZM494.752 103.088V93.056H505.936V103.064H503.224V102.128H497.368V103.088H494.752Z" fill="#464646"/>
</svg>
