<svg width="269" height="155" viewBox="0 0 269 155" fill="none" xmlns="http://www.w3.org/2000/svg">
<g id="Group 36">
<path id="Vector" d="M130.699 221.284C131.131 220.686 131.364 220.003 130.33 219.853C129.132 219.681 129.433 220.431 129.454 221.118C129.476 221.766 129.345 222.956 128.69 223.187C127.851 223.484 125.865 222.791 124.962 222.62C122.909 222.235 121.033 221.225 119.024 220.682C116.803 220.085 114.824 219.075 112.817 217.948C112.083 217.536 110.684 217.445 110.244 216.717C109.831 216.035 110.574 214.784 110.1 214.251C109.488 213.565 108.552 214.71 107.865 214.672C106.731 214.61 106.25 213.389 105.805 212.582C104.956 211.043 103.079 210.016 103.122 208.021C103.145 206.897 104.308 206.731 104.452 205.817C104.679 204.385 103.3 205.366 102.892 205.623C102.485 204.836 102.286 203.51 101.589 202.95C101.422 203.244 101.297 203.56 101.217 203.891C100.465 202.618 100.168 200.384 101.148 199.33C101.962 198.453 101.856 199.031 101.803 197.659C101.787 197.268 102.007 195.322 102.449 195.179C103.586 194.811 103.979 197.768 105.291 196.093C105.684 195.592 105.536 194.87 106.231 194.548C106.958 194.213 108.118 194.524 108.905 194.565C112.493 194.744 115.971 193.852 119.45 194.112C120.936 194.224 121.959 193.444 123.253 192.878C124.275 192.43 124.194 192.285 124.4 191.266C124.516 190.698 124.828 190.455 124.977 189.991C125.142 189.475 125.16 189.272 125.237 188.656C125.492 186.611 126.871 188.605 127.859 189.094C128.412 189.367 129.594 189.661 130.088 189.144C130.668 188.54 130.282 187.568 129.668 187.183C128.461 186.423 126.937 187.601 125.934 186.642C125.55 186.274 125.275 184.924 124.569 184.912C124.225 184.906 124.124 185.395 123.801 185.447C123.423 185.509 123.07 185.061 122.693 185.031C122.512 185.016 121.989 185.223 121.843 185.187C121.235 185.04 121.533 184.936 121.187 184.436C120.741 183.791 120.566 183.212 119.611 183.425C118.826 183.601 118.131 184.355 117.29 184.575C116.425 184.803 115.882 184.873 115.163 185.353C114.617 185.717 114.11 186.441 113.434 186.59C112.538 186.786 112.33 185.817 111.676 185.779C111.024 185.74 110.65 186.623 110.005 186.652C109.211 186.683 108.727 185.737 107.946 185.477C106.913 185.132 106.601 185.711 105.658 185.953C104.586 186.228 104.392 185.802 103.735 185.206C103.406 184.912 102.422 183.849 101.789 183.943C101.131 184.04 101.109 184.988 100.32 185.092C99.9457 185.14 98.6717 184.634 98.5841 184.241C98.4373 183.586 99.4503 183.361 99.0546 182.729C98.7987 182.321 96.8003 181.696 96.4673 182.05C95.8014 182.759 97.1801 183.887 97.4676 184.288C96.9089 184.495 95.419 184.122 94.8744 183.741C94.0848 183.189 94.188 182.372 93.8949 181.525C93.1539 179.378 91.1717 180.331 89.5168 179.576C87.7394 178.764 86.0479 177.211 84.9284 175.628C84.6325 175.211 83.9182 174.418 84.1263 173.933C84.4553 173.167 85.497 173.655 84.5283 172.451C83.9471 171.731 83.0915 171.83 82.6533 170.931C82.2953 170.196 82.2883 169.196 82.3062 168.401C82.3236 167.638 82.412 167.044 82.283 166.391C82.124 165.574 81.5991 164.712 81.8075 163.745C82.117 162.299 83.7665 162.985 83.4101 161.316C83.2023 160.351 82.8346 160.583 82.1896 159.887C81.594 159.246 81.5109 157.925 81.6866 157.104C81.8068 156.539 81.8413 156.175 82.6227 156.252C83.3782 156.323 83.3524 157.033 83.9409 157.363C84.5782 157.721 85.4775 157.594 85.9686 157.131C86.0105 157.091 86.9575 155.715 86.9362 155.895C86.9709 155.581 85.6178 155.244 85.2914 155.167C84.2511 154.929 83.8551 155.444 82.9546 155.564C81.8092 155.719 81.5355 154.607 80.5157 154.134C79.083 153.466 77.5696 154.18 76.1785 153.253C75.8895 153.06 75.7014 153.114 75.5195 152.819C75.285 152.436 75.984 152.141 75.4608 151.749C75.1502 151.517 73.9119 151.888 73.5677 152.015C71.3104 152.838 72.8273 153.95 74.3508 154.172C75.2192 154.298 75.7478 154.059 75.6503 154.959C75.57 155.69 74.7142 157.142 73.8622 157.168C73.1465 157.188 72.3549 156.213 71.5069 156.916C70.8752 157.44 71.2368 158.197 71.9196 158.635C73.0898 159.386 73.4136 158.563 73.8462 160.117C74.0302 160.775 74.9352 162.512 74.6558 163.118C74.1168 164.284 72.9545 162.857 72.4867 162.425C71.7232 161.723 71.2524 161.043 70.133 161.337C69.015 161.628 68.403 162.07 69.0969 163.002C69.9285 164.119 70.6041 163.581 71.5858 163.051C71.3326 162.574 72.3089 164.492 71.9881 164.197C72.2592 164.446 72.3122 164.332 72.6455 164.463C73.0243 164.614 73.3434 164.536 73.7427 164.792C74.0816 165.007 74.2872 165.439 74.6386 165.623C75.0045 165.815 75.6121 165.696 75.9224 165.938C76.2354 166.184 76.2442 167.002 76.3231 167.352C76.5957 168.567 76.8737 169.78 77.1463 170.995C77.3801 172.039 77.8878 173.072 77.2503 173.911C76.8185 174.48 75.4596 174.917 75.4452 175.831C75.4304 176.718 76.4176 176.731 77.0577 176.659C77.8697 176.565 78.23 175.971 78.2267 177.402C78.2215 180.323 75.2416 179.635 73.4146 179.131C72.4347 178.861 71.6952 178.648 70.8921 178.06C69.9403 177.361 69.106 177.545 68.0221 177.143C67.1083 176.804 66.4577 176.12 65.4959 175.843C64.3421 175.51 63.7842 175.239 62.864 174.399C62.0728 173.68 61.3168 172.903 60.7853 171.963C60.0931 170.74 60.6985 171.055 61.6792 170.737C61.0633 169.969 60.3832 170.564 59.6024 170.092C58.7917 169.602 58.0841 167.955 57.5192 167.18C56.2264 165.406 55.3416 163.385 53.9641 161.635C53.2655 160.747 52.7048 159.865 52.2824 158.811C52.0878 158.328 51.8737 157.807 51.7691 157.295C51.6808 156.862 51.8573 156.082 51.6721 155.718C51.2752 154.945 49.9434 154.693 49.3433 154.072C48.4963 153.196 48.6255 152.022 48.3389 150.913C48.2104 150.421 48.039 150.144 48.0692 149.643C48.0942 149.256 48.4146 148.955 48.3421 148.537C48.2049 147.736 47.3012 147.557 47.0955 146.749C46.8994 145.979 47.0813 143.829 47.5495 143.15C48.1247 142.319 48.6674 142.555 48.5868 141.529C48.5117 140.573 48.0652 140.167 49.4188 140.228C49.7857 140.245 49.8392 140.46 50.2333 140.356C50.3759 140.319 50.3104 139.896 50.5245 139.885C50.9086 139.863 50.7568 139.963 51.0896 140.201C51.644 140.596 51.9204 141.108 52.7994 140.926C53.6951 140.74 53.9682 139.78 53.5908 138.911C52.9517 137.441 51.1485 139.009 50.4463 138.039C49.932 137.327 51.6077 135.999 52.2068 135.754C52.7133 135.545 53.1355 135.545 53.6759 135.67C54.5768 135.88 54.148 135.899 54.5895 136.431C55.0232 136.951 54.5529 136.904 55.5052 136.928C56.1381 136.944 56.7144 136.822 57.2241 136.476C56.286 135.391 55.5472 134.117 55.3732 132.637C55.6017 132.62 55.8508 132.537 56.0828 132.602C56.3392 132.675 56.5918 133.22 56.8412 133.225C57.5058 133.233 57.0753 132.383 57.1982 131.92C57.3566 131.329 57.6124 131.059 58.2249 130.947C59.2626 130.756 59.05 131.298 59.545 131.779C60.546 132.75 61.6513 132.646 62.9562 133.032C64.5927 133.514 65.8518 135.271 67.6143 135.456C69.2609 135.627 68.5225 133.605 67.6491 132.903C66.647 132.095 65.3602 132.899 64.1829 132.443C63.1535 132.043 63.7534 131.985 63.308 131.137C63.0119 130.574 62.6813 130.604 62.0999 130.476C61.546 130.351 60.4945 130.358 60.7418 129.392C61.0643 128.126 61.7383 129.319 62.1327 129.169C62.7219 128.947 62.1812 128.469 63.05 128.489C63.3769 128.496 64.1431 128.865 64.4706 129.009C65.2357 129.346 65.9152 129.509 66.8037 129.653C67.356 129.744 67.7429 129.631 68.3005 129.815C68.8336 129.992 69.4662 130.623 70.0799 130.518C70.5944 130.432 70.5766 129.897 71.1211 129.938C71.5583 129.972 71.8944 131.283 72.2555 131.578C72.794 132.018 73.594 132.174 74.1776 132.607C74.7939 133.063 74.8392 133.335 75.5874 133.059C75.9043 132.942 76.4255 132.644 76.3472 132.225C76.2489 131.705 75.3163 131.938 74.9998 131.742C74.4521 131.402 74.5821 130.778 74.3686 130.26C74.1131 129.636 73.6597 129.501 73.3052 129.018C72.7266 128.23 73.1775 128.749 73.1348 127.9C73.1138 127.466 72.9526 127.12 72.9192 126.679C73.7284 126.846 73.8372 127.554 74.6672 127.669C75.4362 127.777 76.4679 127.379 77.2873 127.381C77.9469 127.382 79.4978 127.195 79.9267 127.781C80.323 128.321 80.003 130.281 81.3994 129.463C82.2651 128.955 81.4292 128.234 81.6867 127.708C82.0062 127.051 82.5982 127.404 83.2879 127.304C84.0625 127.193 84.6437 126.606 85.4324 126.631C86.7015 126.672 86.4901 127.015 87.6326 126.382C88.9257 125.664 90.5403 124.485 91.9486 124.54C93.1414 124.585 92.8484 124.549 93.4287 123.702C94.1588 122.634 94.8977 122.444 95.9671 121.715C96.5114 121.344 96.9357 120.812 97.6371 120.835C98.3191 120.856 98.7644 121.691 99.3757 121.741C100.245 121.811 100.141 121.5 100.008 120.798C99.9359 120.417 99.441 120.311 99.626 119.826C99.7701 119.448 100.665 119.185 101.027 118.992C102.923 117.989 104.804 117.478 106.793 116.739C107.618 116.435 108.289 116.279 109.162 116.119C110.318 115.908 110.579 116.171 111.618 116.63C112.473 117.01 112.479 117.037 112.753 116.261C112.836 116.022 112.514 115.792 112.686 115.514C112.878 115.197 113.742 115.211 114.013 115.177C115.117 115.042 115.84 115.263 116.914 115.458C118.014 115.659 118.781 115.247 119.842 115.14C120.728 115.053 121.203 115.439 121.935 115.877C122.585 116.264 123.455 116.471 123.982 117.036C124.531 117.627 124.331 118.596 124.911 119.093C125.679 119.752 126.601 119.305 127.418 119.181C128.445 119.023 128.746 119.351 129.209 120.248C129.892 121.581 129.185 120.703 128.751 121.28C128.336 121.831 128.987 122.22 129.334 122.544C129.585 122.779 130.214 122.729 130.205 123.245C130.202 123.409 129.475 123.524 129.489 123.588C129.714 124.519 130.26 123.71 130.68 123.851C131.038 123.971 131.33 124.435 131.539 124.783C131.555 124.811 132.009 125.103 132.086 125.198C132.338 125.511 132.434 126.721 132.477 127.125C132.562 127.898 131.954 128.659 132.203 129.325C132.497 130.117 133.234 130.112 133.865 129.92C134.727 129.656 134.656 129.424 134.72 128.752C134.769 128.226 134.136 127.734 135.063 127.866C135.418 127.917 136.77 129.375 136.843 129.747C136.943 130.265 136.303 130.59 136.571 131.16C136.861 131.783 137.971 131.708 138.508 132.044C139.258 132.517 139.457 133.156 139.929 133.728C140.43 134.33 141.241 134.288 141.174 135.175C141.119 135.87 140.153 136.116 140.427 136.999C140.743 138.013 141.744 137.593 142.317 138.178C142.628 138.496 142.897 139.676 143.008 140.119C143.188 140.834 142.946 141.608 143.234 142.325C143.526 143.055 143.929 143.324 143.847 144.185C143.739 145.311 143.599 144.917 142.826 145.163C142.148 145.38 141.546 145.67 141.8 146.576C141.857 146.773 142.368 147.306 142.472 147.391C143.122 147.915 143.303 147.441 143.898 147.715C144.391 147.943 144.8 149.892 144.324 150.452C143.833 151.035 143.431 150.182 142.934 150.015C142.423 149.844 141.349 149.855 141.067 150.369C140.554 151.292 142.059 152.169 142.571 152.549C143.292 153.085 143.463 153.312 143.654 154.241C143.81 155.007 144.131 155.505 144.356 156.244C144.627 157.122 144.376 158.161 144.072 158.999C143.809 159.72 143.082 160.288 142.901 161.001C142.776 161.49 143.485 162.479 143.343 162.762C142.95 163.545 142.201 162.886 142.003 162.553C141.946 162.459 141.927 161.783 141.841 161.581C141.767 161.408 141.414 161.285 141.349 161.085C141.232 160.724 141.529 160.377 141.433 160.085C141.282 159.636 140.853 159.412 140.504 159.123C139.75 158.5 138.915 158.062 138.324 159.204C137.87 160.083 138.429 160.861 139.253 161.178C139.661 161.334 140.096 161.063 140.491 161.266C141.037 161.544 140.898 161.933 141.091 162.428C141.554 163.628 142.016 163.491 141.634 164.738C140.925 167.042 143.74 167.48 143.969 169.522C144.099 170.691 143.644 170.674 142.919 169.963C142.315 169.366 141.456 168.474 140.787 169.563C140.334 170.3 140.736 171.382 141.386 171.843C142.098 172.349 142.722 172.052 143.51 171.867C144.562 171.625 144.439 171.625 145.04 172.589C145.529 173.373 146.123 174.085 146.7 174.806C147.253 175.496 148.527 176.168 148.319 177.129C148.13 177.997 147.133 178.552 148.04 179.538C148.567 180.109 149.316 179.803 149.763 180.25C149.896 180.383 149.965 180.889 150.141 181.109C150.519 181.582 151.499 182.106 152.081 182.191C152.06 181.707 151.955 181.415 151.799 180.966C153.032 181.795 154.084 183.921 155.501 184.285C156.287 184.488 156.94 184.123 157.63 184.752C158.345 185.402 158.182 185.903 157.421 186.22C156.817 186.472 155.393 186.116 156.235 187.468C156.577 188.018 157.126 187.999 157.6 187.821C158.215 187.591 158.357 186.662 159.106 187.75C159.588 188.448 158.992 189.261 159.058 189.991C159.118 190.629 159.744 191.016 159.837 191.622C159.927 192.223 159.299 193.292 158.874 193.649C158.525 193.943 157.646 193.538 157.881 194.567C157.977 194.989 158.519 195.295 158.995 195.097C159.327 194.959 159.092 194.362 159.541 194.342C160.414 194.302 159.861 195.319 159.81 195.668C159.719 196.294 160.012 196.775 159.155 196.99C158.965 197.038 157.216 196.774 157.035 196.699C156.515 196.485 156.248 195.84 155.765 195.54C154.929 195.024 153.981 195.04 153.17 195.633C152.313 196.257 152.711 195.923 153.045 196.677C153.122 196.85 153.411 197.708 153.551 197.795C153.954 198.051 153.998 197.71 154.371 197.804C154.609 197.866 155.147 198.339 155.344 198.342C155.807 198.348 155.907 197.765 156.423 197.823C157.055 197.891 157.605 199.071 158.222 199.358C159.269 199.843 158.831 199.283 159.716 198.982C160.815 198.611 160.193 199.434 160.135 199.972C160.081 200.478 160.07 201.571 159.603 201.835C159.085 202.129 158.563 201.63 158.039 201.597C157.207 201.544 157.016 201.908 156.371 202.295C155.784 202.646 155.215 203.089 154.649 202.32C154.246 201.771 154.633 201.273 153.928 200.893C153.639 200.737 152.389 200.68 152.102 200.984C151.442 201.684 152.613 202.585 153.141 202.948C154.062 203.584 154.018 203.516 154.444 204.447C154.672 204.944 154.287 204.805 154.903 205.084C155.335 205.281 156.042 204.868 156.556 205.094C158.582 205.989 154.864 206.091 154.134 205.829C153.191 205.489 152.597 204.998 151.55 205.362C150.799 205.623 150.321 206.128 150.762 206.88C151.201 207.627 152.225 207.603 152.94 207.652C153.829 207.714 154.366 208.073 155.176 208.432C154.831 209.091 151.805 207.532 152.436 209.509C152.486 209.665 153.39 210.353 153.497 210.384C153.846 210.48 153.987 210.266 154.261 210.301C154.76 210.364 155.419 211.124 155.761 210.39C155.948 209.989 155.08 209.541 155.61 209.043C156.103 208.578 157.608 209.798 157.872 210.112C158.062 210.336 158.155 210.753 158.362 211.018C158.531 211.238 159.026 211.44 159.107 211.718C159.255 212.221 158.885 212.153 158.882 212.58C158.879 212.854 159.077 213.14 159.084 213.471C158.453 213.163 158.04 212.545 157.511 212.276C157.075 212.053 156.093 211.941 155.598 211.825C154.51 211.576 154.379 211.917 153.684 212.648C153.205 213.15 152.677 213.31 152.388 213.906C152.298 214.09 152.489 214.418 152.395 214.612C152.086 215.26 151.707 215.172 151.221 215.615C150.87 215.933 150.795 216.647 150.557 216.834C149.694 217.517 147.766 214.67 147.129 214.252C147.259 215.055 147.859 215.543 147.94 216.357C146.477 215.942 145.048 213.112 143.36 213.975C141.066 215.149 144.863 216.368 145.493 216.741C145.177 217.237 144.695 217.284 144.384 217.741C144.211 217.994 144.45 218.287 144.161 218.53C143.817 218.817 143.482 218.468 143.1 218.56C141.765 218.885 141.367 220.546 140.483 221.326C140.137 220.786 139.976 219.695 140.323 219.098C140.79 218.296 141.804 218.983 142.16 218.395C142.351 218.081 141.464 216.947 141.17 216.781C140.842 216.596 140.379 216.863 139.998 216.688C139.903 216.645 140.216 216.18 140.212 216.163C140.003 215.593 137.938 215.808 137.582 215.892C137.425 215.929 136.451 216.175 136.418 216.224C136.288 216.423 136.743 217.101 136.72 217.348C136.639 218.254 135.612 218.774 136.129 219.747C136.41 220.277 138.143 220.746 137.275 221.559C136.903 221.908 136.506 221.437 136.161 221.47C135.732 221.512 135.764 221.536 135.402 221.679C134.903 221.877 135.009 221.96 134.455 222.008C134.051 222.045 133.886 221.716 133.418 221.863C133.119 221.955 132.891 222.495 132.551 222.648C132.225 222.795 131.744 222.79 131.4 222.756C130.189 222.639 129.98 222.268 130.696 221.279L130.694 221.277L130.699 221.284ZM63.4863 148.874C63.3124 150.274 64.0493 150.702 65.2835 151.006C65.8673 151.15 66.0382 151.267 66.5171 151.55C67.0238 151.851 67.5037 151.862 68.0049 152.128C69.0346 152.674 68.8648 153.134 70.0195 152.952C70.4668 152.88 71.6482 153.12 71.8592 152.943C72.45 152.453 70.0623 150.86 69.6131 150.751C68.7947 150.551 67.2322 151.453 66.76 150.848C66.5445 150.572 66.7024 149.881 66.524 149.536C66.2833 149.066 65.9365 148.898 65.4718 148.691C64.5975 148.298 64.1553 148.22 63.4863 148.874Z" fill="#F5CF5D"/>
<path id="Vector_2" d="M207.54 138.372C208.913 139.366 210.305 140.49 211.112 142.013C211.481 142.711 211.503 143.52 211.891 144.182C212.231 144.763 212.711 145.16 213.009 145.79C214.553 149.058 214.465 152.442 214.406 155.988C214.392 156.704 214.434 157.629 214.189 158.311C213.844 159.278 213.431 158.766 212.874 159.375C212.427 159.864 213.004 160.182 212.901 160.664C212.75 161.358 212.208 160.869 211.761 161.381C210.849 162.425 212.215 163.865 212.007 164.931C211.854 165.716 211.335 165.983 211.349 166.836C211.361 167.494 211.61 167.485 211.245 168.15C209.55 166.654 209.662 164.619 208.434 162.938C208.125 162.515 207.873 162.061 207.49 161.694C207.19 161.407 206.66 161.222 206.475 160.843C206.304 160.488 206.572 160.127 206.393 159.736C206.187 159.282 205.602 158.828 205.112 158.752C204.31 158.626 203.301 159.272 203.559 160.201C203.815 161.122 205.172 161.134 205.842 161.452C205.988 161.522 206.49 161.773 206.537 161.906C206.631 162.166 206.289 162.523 206.302 162.555C206.526 163.145 205.947 162.693 206.854 163.339C207.431 163.75 208.199 164.061 208.675 164.601C209.388 165.41 209.343 166.597 209.296 167.621C209.275 168.08 209.111 170.11 208.423 170.189C207.844 170.254 206.75 168.122 206.231 167.802C205.455 167.327 204.012 167.393 204.241 168.564C204.329 169.015 205.623 170.151 206.002 170.435C206.761 170.998 208.084 171.213 206.701 171.797C206.394 171.926 206.003 171.65 205.633 171.886C205.366 172.057 205.344 172.665 205.094 172.759C204.228 173.087 204.448 171.691 203.586 171.634C201.201 171.473 204.177 175.099 202.875 175.851C201.993 176.363 202.105 175.038 202.031 174.7C201.821 173.765 201.782 172.726 201.338 171.844C200.54 170.261 199.07 168.056 197.62 167.036C196.51 166.256 197.169 166.497 196.647 165.42C196.222 164.548 194.871 164.18 194.194 164.967C192.466 166.982 196.699 166.697 197.085 167.623C197.443 168.483 196.295 168.132 197.397 168.973C198.279 169.645 199.506 169.768 199.087 170.947C198.79 171.779 197.694 171.752 198.734 172.76C199.412 173.417 200.615 172.994 201.045 173.919C201.653 175.235 200.475 174.266 200.241 174.8C200.03 175.284 200.433 175.204 200.64 175.45C200.816 175.515 200.972 175.611 201.116 175.735C201.308 175.947 201.36 176.19 201.277 176.471C201.619 176.948 201.819 176.947 201.856 177.484C201.881 177.83 201.333 178.256 201.361 178.694C201.375 178.95 201.844 179.399 201.809 179.576C201.66 180.3 200.2 180.105 200.18 181.248C200.165 182.149 201.307 182.326 200.882 183.312C200.427 184.362 199.614 183.64 198.872 183.972C198.172 184.284 198.093 185.195 197.582 185.717C196.862 186.45 195.511 187.159 194.539 187.457C194.099 187.592 193.388 187.807 192.949 187.546C192.3 187.158 192.575 186.787 191.665 186.682C190.778 186.581 190.171 186.947 190.05 187.857C189.983 188.363 190.305 188.689 190.038 189.195C189.899 189.46 189.159 189.908 188.912 190.084C186.955 191.466 184.431 191.648 182.096 191.841C181.212 191.914 180.885 191.797 180.252 192.309C179.871 192.614 180.147 192.807 179.609 192.968C179.125 193.112 178.451 192.7 178.097 192.431C177.259 191.791 176.514 190.814 175.706 190.103C174.733 189.246 173.607 188.51 172.728 187.559C172.309 187.106 172.004 186.54 171.553 186.117C171.132 185.72 170.449 185.517 170.095 185.075C169.472 184.302 169.598 183.067 169.099 182.165C168.138 180.432 166.682 179.162 165.904 177.382C165.571 176.617 165.458 176.227 166.208 175.769C166.57 175.55 166.81 176.135 167.192 175.589C167.442 175.236 167.169 174.753 166.97 174.47C166.34 173.573 165.649 174.004 164.881 174.065C163.494 174.172 163.558 173.23 164.04 172.023C164.278 171.423 164.698 170.743 165.039 170.19C165.291 169.782 165.169 169.532 165.641 169.303C165.96 169.146 166.504 169.593 166.861 169.394C167.968 168.782 166.248 167.776 165.541 167.665C164.994 167.581 164.803 167.84 164.295 167.459C163.892 167.158 163.524 166.354 163.453 165.865C163.376 165.328 163.502 163.755 163.768 163.291C164.399 162.186 165.448 163.131 164.65 161.811C164.194 161.056 163.558 160.566 164.652 159.978C165.272 159.645 166.581 159.764 166.188 160.633C166.047 160.946 165.387 160.908 165.489 161.367C165.575 161.741 166.758 161.643 167.049 161.833C167.475 162.112 167.527 162.468 168.052 162.669C168.374 162.793 170.157 162.983 170.432 162.787C171.156 162.273 170.368 162.622 170.476 161.977C170.543 161.587 170.87 161.002 170.869 160.623C170.866 159.384 169.726 159.099 168.786 158.966C168.201 158.884 167.029 158.997 166.535 158.772C166.096 158.57 165.035 156.874 165.236 156.422C165.593 155.613 167.151 156.32 167.523 155.26C167.802 154.47 166.031 152.764 166.788 152.095C167.455 151.503 168.917 152.774 168.814 150.879C168.795 150.53 168.378 150.215 168.402 149.894C168.428 149.508 168.849 149.312 168.99 148.953C169.11 148.639 168.985 148.28 169.093 147.957C169.209 147.603 169.661 147.251 169.653 146.88C169.645 146.543 169.207 146.382 169.164 146.046C169.087 145.436 169.681 144.855 170.101 144.486C170.876 143.806 172.055 142.989 172.39 144.339C172.697 145.576 171.743 145.986 171.318 146.875C171.208 147.104 170.792 147.267 171.082 147.573C171.5 148.019 171.792 147.106 172.02 146.969C172.25 146.831 172.965 146.871 173.088 146.724C173.384 146.375 173.174 145.798 173.14 145.373C174.484 145.328 175.389 146.391 176.728 146.565C177.765 146.698 178.974 146.41 177.453 145.77C178.207 144.472 177.411 144.668 176.531 145.185C176.213 145.373 176.239 145.938 175.75 145.488C175.468 145.227 175.627 144.806 175.744 144.529C175.736 144.55 176.45 143.329 176.448 143.331C176.873 142.988 176.903 143.084 177.29 143.394C177.461 143.53 177.177 143.945 177.446 144.083C177.842 144.287 178.246 143.877 178.581 143.671C178.675 144.134 178.574 145.388 178.841 145.657C179.276 146.102 179.703 145.737 180.349 145.423C180.667 145.268 180.759 145.082 181.124 145.009C181.406 144.954 181.799 145.232 182.084 145.114C183.114 144.682 182.504 144.167 181.846 143.993C182.049 143.676 182.371 143.461 182.399 143.097C182.44 142.553 181.674 142.28 182.496 141.893C183.095 141.611 183.029 141.928 183.223 142.317C183.615 143.092 182.949 143.773 183.868 143.958C183.88 143.96 185.325 143.822 185.353 143.816C186.002 143.613 185.971 142.848 186.368 142.657C186.657 142.519 188.138 142.672 188.347 143.053C188.399 143.147 187.969 144.709 187.946 144.795C187.733 145.609 187.435 146.222 187.43 147.091C187.423 148.206 187.739 149.509 188.686 150.238C189.746 151.055 190.207 150.235 189.9 149.177C189.719 148.559 188.092 147.255 189.534 146.897C190.221 146.724 190.893 147.731 191.029 148.26C191.186 148.868 190.975 149.17 191.483 149.647C191.799 149.945 193.128 150.669 193.57 150.71C194.186 150.768 194.657 150.154 195.212 150.172C195.919 150.196 195.735 150.68 195.965 151.303C196.187 151.905 196.513 152.377 196.916 152.871C197.182 153.196 197.941 154.24 198.407 154.17C199.028 154.079 198.691 153.191 198.717 152.709C198.792 151.358 198.831 150.726 197.394 150.169C196.33 149.757 194.365 149.333 194.91 147.933C195.297 146.944 197.293 146.482 196.295 145.249C195.725 144.545 193.56 144.25 194.364 143.158C194.604 142.831 195.519 142.187 195.856 141.914C196.602 141.306 197.187 141.663 198.074 141.53C199.34 141.342 200.57 140.322 201.522 139.543C201.901 139.231 202.396 138.677 202.853 138.527C203.065 138.459 203.384 138.666 203.608 138.613C203.97 138.53 204.136 138.232 204.465 138.113C205.6 137.701 206.546 137.666 207.535 138.382L207.54 138.372Z" fill="#F5CF5D"/>
<path id="Vector_3" d="M68.9699 78.5029C67.1971 77.5047 69.031 75.9994 70.3475 77.0057C70.7161 77.2891 70.7886 77.8525 71.1482 78.1991C71.1642 78.214 72.3688 79.126 72.2783 78.523C72.2223 78.1441 71.7114 78.1955 71.6053 77.7936C71.4641 77.2468 72.3207 76.6396 71.8935 75.8426C71.4984 75.112 68.1811 74.3623 69.9514 73.1061C70.9548 72.3929 72.7261 74.5545 73.5672 73.4019C74.6085 71.9729 71.4487 71.8813 71.4184 70.9371C71.4014 70.4306 72.3998 69.6506 72.8605 69.6226C73.6003 69.5777 74.3317 70.6181 75.1312 70.2879C75.6845 70.0582 75.6926 69.3973 75.4722 68.8032C75.1699 67.9904 74.6274 68.0853 73.9162 67.6898C74.3385 66.9638 74.9931 66.7278 75.8537 66.7372C76.4456 66.7445 77.9072 66.7809 78.4404 66.9845C79.1834 67.267 79.3051 68.2509 80.0876 68.5387C80.6994 68.7627 81.7772 68.7303 82.4096 68.6309C82.0974 67.2835 81.4901 66.7675 80.1994 66.5595C79.3687 66.4258 78.8259 65.7011 78.0941 65.6888C77.5831 65.6804 77.5668 66.3387 77.1068 66.0156C77.1506 66.0473 76.834 64.8395 76.8232 64.8913C76.9648 64.2441 77.9967 63.6576 78.6491 63.5859C79.0318 63.5412 79.5077 63.8792 79.8482 63.5518C80.2554 63.1599 79.7424 62.5828 79.9261 62.1585C80.0928 61.7716 81.6428 60.9763 82.1244 61.053C82.9654 61.1908 83.3438 62.47 84.4086 61.3864C84.7894 60.9987 84.5921 60.4279 85.0481 60.0515C85.3699 59.7868 86.1862 59.7376 86.5515 59.8229C87.4527 60.0342 87.8139 60.7104 87.428 61.529C86.9846 62.4686 86.0558 62.3369 87.3436 63.0603C87.6643 63.2394 88.2958 63.5606 88.6804 63.4443C89.2783 63.2635 89.1539 62.8317 89.4429 62.4371C90.1993 61.3924 90.6572 62.0225 91.7282 61.9487C92.2055 61.9161 93.1072 61.3481 92.8622 62.3086C92.7725 62.6583 91.9693 62.8 91.9183 63.1745C91.862 63.5749 92.1015 64.0966 92.6252 63.8986C93.2378 63.6653 93.0865 61.5288 93.8986 62.3656C94.17 62.6451 93.7833 63.1745 93.9868 63.4049C94.256 63.7059 94.9821 63.4587 95.3125 63.3894C95.0594 62.8312 94.0814 62.3388 94.4574 61.7551C94.9506 60.9909 95.5782 62.2713 95.9214 62.3871C96.4688 62.5711 96.0584 62.41 96.5156 62.2899C96.9955 62.1662 97.4221 61.2775 97.569 62.4155C97.6619 63.1397 96.829 63.2532 96.6225 63.8103C96.3391 64.5705 96.9214 64.6139 97.0304 65.3298C97.0646 65.5636 96.8825 66.6492 96.8073 66.8867C96.6889 67.2621 97.0948 67.2176 96.7061 67.6162C96.336 67.9985 95.6385 67.5333 95.3465 68.1347C94.9342 68.9807 98.1017 69.2138 97.3708 70.3799C96.9324 71.0776 94.2034 70.8932 93.594 70.7074C93.0757 70.5477 90.9616 68.3436 90.3865 69.8614C90.1325 70.5301 91.0775 70.9621 91.5271 71.1383C91.8837 71.2771 92.3077 71.249 92.6514 71.3917C93.049 71.5568 93.3789 71.9583 93.7177 72.0709C94.3118 72.2688 94.625 72.2003 95.1977 72.469C95.6747 72.6949 96.1975 73.0004 96.698 73.2169C96.9309 73.3191 97.1092 73.5245 97.3562 73.6303C97.5368 73.708 97.945 73.4529 98.1609 73.5694C98.4128 73.7054 98.6869 74.2853 98.8912 74.4962C99.167 74.7788 99.6948 74.8193 99.6985 75.3395C99.7092 77.2647 96.0371 75.0605 95.4981 74.8096C94.9444 74.5514 94.1203 74.0078 93.578 74.554C93.0125 75.1232 93.4011 75.7661 94.0347 76.1121C95.122 76.7069 96.6334 76.9188 97.788 77.3931C98.4704 77.6716 99.1963 77.8488 99.8609 78.1243C100.783 78.5098 100.821 78.9455 101.136 79.6848C101.541 80.6377 102.848 82.7353 100.524 81.8719C99.9565 81.6602 99.9577 81.0042 99.5434 80.8436C99.2341 80.7225 99.126 81.2082 98.8569 81.156C98.5103 81.0909 98.5819 80.7479 98.3048 80.6468C97.5962 80.3859 94.1275 79.4768 95.2165 81.6221C95.7192 82.6097 96.2254 81.9843 96.8487 81.8285C97.6781 81.6229 98.5035 81.985 99.3418 82.2004C101.267 82.6983 101.935 83.3648 103.184 84.7733C103.461 85.0866 104.612 86.4506 105.142 86.2708C105.783 86.0544 104.762 85.1231 104.7 84.6468C105.738 84.6553 106.304 85.8144 106.674 86.6666C106.783 86.9176 107.294 87.875 107.231 88.178C107.107 88.7915 106.657 88.5152 106.308 89.0387C105.643 90.0401 107.146 89.964 107.746 90.458C108.764 91.2951 108.462 92.907 108.482 94.113C108.493 94.7247 108.607 95.4571 108.516 96.0579C108.395 96.8599 108.068 96.7918 107.675 97.3531C107.312 97.8672 107.284 97.8003 107.338 98.5325C107.354 98.7595 107.836 99.9451 107.085 99.8356C106.545 99.7565 105.869 98.0863 105.599 97.6582C105.065 96.8105 104.138 95.9107 103.191 95.8088C102.633 95.7499 102.745 95.9966 102.196 95.7453C102.146 95.7223 101.846 95.2893 101.692 95.1977C101.555 95.1189 101.264 95.2129 101.093 95.1491C100.339 94.8549 98.9588 93.6503 98.4596 94.9111C97.8643 96.4108 99.8369 96.0409 100.498 96.2939C101.338 96.617 101.072 97.5886 101.307 98.4254C101.449 98.9334 101.625 99.2896 101.634 99.8302C101.644 100.411 101.421 100.747 101.708 101.29C101.884 101.627 102.331 101.775 102.519 102.1C102.689 102.396 103.002 103.76 102.541 104.01C101.697 104.471 101.603 102.2 101.371 101.903C100.713 101.047 99.5505 101.261 99.0989 101.972C98.8497 102.363 98.862 103.267 98.2493 103.275C97.7116 103.28 97.3824 102.113 96.8222 101.91C95.7106 101.51 94.9093 102.575 95.7241 103.523C96.291 104.182 98.1975 104.236 98.929 104.152C99.0861 104.133 99.1595 103.801 99.3522 103.834C99.6044 103.878 99.5162 104.082 99.7081 104.158C100.252 104.37 99.8738 105.128 100.555 103.965C100.982 104.218 102.335 104.995 102.254 105.577C102.18 106.117 101.379 105.813 101.112 105.938C100.706 106.125 100.743 106.374 100.419 106.614C99.4199 107.353 96.458 108.997 96.101 107.127C95.9869 106.533 96.5085 105.564 96.2297 104.991C95.8317 104.172 95.5603 104.994 95.0334 105.362C94.4421 105.773 94.191 105.677 93.4738 105.553C92.3138 105.353 92.2064 104.907 91.2481 104.263C90.7167 103.905 89.8096 103.587 89.6682 104.579C89.542 105.463 90.6122 105.621 91.2261 105.787C92.0276 106.002 92.5545 106.463 93.3128 106.757C93.7374 106.921 95.3787 106.77 94.8007 107.642C94.4816 108.124 93.4607 107.617 93.0139 107.635C92.1741 107.671 91.5021 107.954 90.6061 107.823C89.9656 107.73 89.0537 107.253 88.4555 107.669C87.679 108.211 88.4124 109.548 87.8573 110.016C87.6126 110.22 87.3616 109.852 87.1608 109.959C86.8998 110.099 86.6242 110.41 86.3527 110.509C85.6987 110.748 84.6191 110.687 83.9925 110.455C83.2552 110.183 82.8284 109.602 81.9725 109.752C81.0586 109.913 80.9226 110.631 79.9756 110.506C79.0345 110.382 78.8625 110.085 78.6386 109.445C78.4453 108.887 78.6394 108.218 77.778 108.062C76.7278 107.873 76.8154 108.765 77.1554 109.383C77.7119 110.393 78.0454 110.592 76.603 110.649C74.6349 110.726 72.7737 110.228 70.8421 110.104C69.8726 110.042 68.9603 110.095 68 109.9C67.5348 109.806 66.6735 109.709 66.2735 109.446C65.815 109.144 65.6706 108.519 65.1848 108.204C63.8336 107.328 61.9357 108.346 61.0959 106.368C60.8697 105.832 60.6961 104.377 61.16 103.906C61.5906 103.468 63.5428 103.601 62.843 102.328C62.4839 101.677 61.2673 101.864 60.7585 101.194C60.1638 100.412 60.4441 99.218 60.4412 98.3234C60.4366 97.3713 60.0691 96.0403 60.6868 95.2103C61.4279 94.2143 62.1789 94.7115 61.8507 93.2664C61.6286 92.2829 61.5832 92.4192 62.5752 91.8602C62.8335 91.7154 62.8767 91.4714 63.173 91.3708C63.6173 91.218 64.2472 91.6244 64.4407 91.0346C64.6535 90.3859 63.423 89.0073 63.3002 88.3014C63.1931 87.6798 63.0807 86.6462 63.2483 86.0875C63.8598 86.464 64.0255 87.1844 64.7889 87.3788C65.4558 87.5498 66.1867 87.1899 66.235 86.432C66.2763 85.7852 65.1917 84.7212 64.6061 84.6223C63.8716 84.4986 63.422 85.4835 62.6007 85.194C60.2676 84.3707 63.1139 81.6974 64.7312 82.1685C65.4951 82.3898 65.8185 83.45 66.5404 83.8399C67.1821 84.1885 67.2559 83.9898 67.7717 84.4893C67.9989 84.7101 68.1791 85.1524 68.3816 85.4118C69.9425 83.8549 69.3911 85.7778 71.1341 85.8356C72.5668 85.8843 72.3809 84.4592 71.4713 83.8769C70.9305 83.5318 70.3422 83.3812 69.711 83.3821C68.7206 83.3815 68.7681 83.5785 68.0747 82.7945C67.0728 81.6577 66.8347 81.9266 65.368 82.0954C65.5882 81.4088 65.8975 80.7604 66.3656 80.1969C67.084 79.3336 66.8611 79.6599 67.6977 80.0666C69.3539 80.8709 70.5419 79.9397 68.9919 78.4956L68.9699 78.5029Z" fill="#F5CF5D"/>
<path id="Vector_4" d="M177.326 81.6209C177.524 80.9117 178.984 80.6299 179.601 80.291C180.554 79.7688 181.464 79.0026 182.564 78.91C184.574 78.7401 186.218 79.9837 188.049 80.4601C189.125 80.7398 189.973 81.4867 190.915 82.0427C191.301 82.2719 191.636 82.5709 192.101 82.5383C192.441 82.5144 192.726 81.9918 193.043 82.0082C194.264 82.0697 193.341 84.0053 194.263 84.3967C195.086 84.7463 195.522 82.2815 196.664 82.9385C197.063 83.1674 197.022 83.8436 197.494 84.1186C197.959 84.3889 198.509 84.0744 198.942 84.265C199.479 84.5005 199.195 84.5946 199.575 85.0195C200.002 85.4948 200.314 85.811 200.867 86.1945C201.471 86.6121 201.896 86.6595 201.642 87.4047C201.261 88.5176 200.74 87.3611 199.959 87.7649C199.132 88.1916 199.125 88.8257 199.816 89.1097C200.097 89.2264 200.875 88.8906 201.165 88.8708C201.695 88.8354 202.16 88.9089 202.703 88.8388C202.963 88.8045 203.379 88.4924 203.646 88.6962C204.083 89.029 203.533 89.2567 203.602 89.6468C203.742 90.4172 204.487 90.8663 204.537 91.6222C204.603 92.5724 203.704 92.7136 204.729 93.4762C205.489 94.0425 206.025 93.7186 206.113 94.9277C206.226 96.4608 205.76 95.5076 204.858 95.7071C203.652 95.973 204.176 97.3974 205.272 97.2725C205.689 97.2246 206.246 96.3688 206.573 96.4761C207.335 96.7216 206.82 98.4698 206.829 98.9257C206.837 99.2813 207.257 99.5648 207.09 99.9468C206.794 100.622 206.523 100.059 206.159 100.242C205.463 100.587 205.801 99.956 205.389 100.81C205.304 100.982 205.179 102.003 205.337 102.174C205.923 102.801 206.391 101.642 206.918 102.533C207.319 103.213 206.858 103.625 206.347 103.831C205.939 103.995 204.603 103.657 204.834 104.747C205.023 105.646 206.888 104.969 206.131 106.432C205.606 107.447 204.574 106.876 203.954 106.334C203.149 105.628 202.748 105.191 201.603 105.538C201.037 105.71 200.218 106.03 199.719 106.342C198.777 106.932 198.845 107.779 199.968 107.187C200.3 107.012 200.289 106.481 200.687 106.336C201.315 106.105 201.659 106.557 202.159 106.839C202.632 107.108 202.859 107.286 203.425 107.266C203.841 107.251 204.778 106.691 204.92 107.526C204.996 107.968 204.574 107.958 204.446 108.315C204.276 108.778 204.46 109.048 204.104 109.516C203.42 110.419 203.374 109.85 202.61 109.543C202.229 109.39 201.819 109.53 201.459 109.366C200.757 109.051 200.903 108.593 200.196 109.134C199.133 109.946 200.06 110.055 200.501 110.464C201.037 110.958 201.465 112.464 200.373 112.536C199.532 112.592 199.268 111.03 198.639 110.651C198.387 111.793 200.098 112.999 198.327 113.614C198.003 113.726 197.7 113.521 197.398 113.691C197.093 113.864 197.076 114.25 196.839 114.495C196.27 115.089 195.654 115.122 194.915 115.413C194.385 115.622 193.483 116.474 192.897 116.37C192.014 116.213 192.62 115.936 192.706 115.482C192.831 114.823 193.116 114.527 192.505 113.985C192.332 113.829 191.578 113.54 191.329 113.586C190.776 113.689 191.239 113.677 190.738 113.961C189.211 114.827 189.318 115.143 187.939 113.589C187.478 113.069 187.076 112.368 186.298 112.704C185.545 113.028 185.712 113.572 185.985 114.122C186.501 115.162 188.693 116.106 187.798 117.683C186.874 119.308 185.193 115.959 184.76 115.516C184.265 116.333 184.44 117.536 184.332 118.469C183.375 117.86 183.02 118.542 182.193 119.212C181.935 119.421 181.357 120.178 181.075 120.197C180.531 120.233 180.286 119.429 179.782 119.258C179.291 119.092 178.672 119.19 178.552 119.809C178.381 120.688 179.316 120.608 179.56 121.142C179.826 121.724 179.831 121.461 179.246 121.92C178.814 122.26 177.739 123.053 177.219 123.133C176.035 123.314 176.066 121.802 175.297 121.438C174.92 121.261 174.044 121.37 173.861 121.82C173.59 122.493 174.887 123.023 174.892 123.529C174.895 123.847 174.525 124.119 174.214 124.187C173.08 124.435 173.856 123.635 173.241 123.199C172.061 122.365 172.189 124.735 171.497 125.153C170.577 125.709 169.104 125.628 168.073 125.997C166.26 126.643 165.903 126.861 164.396 125.726C163.22 124.841 161.676 124.566 160.408 123.738C159.194 122.942 157.526 121.837 156.897 120.467C156.539 119.681 157.026 118.995 155.861 118.82C155.303 118.737 154.986 119.239 154.362 118.964C153.835 118.732 153.285 117.878 152.976 117.391C152.15 116.087 153.344 115.36 153.907 114.192C154.387 113.195 154.396 112.255 155.296 113.434C155.603 113.832 156.005 114.359 156.207 114.832C156.457 115.409 156.205 115.633 156.702 116.02C157.807 116.876 159.512 115.906 158.24 114.763C157.631 114.215 156.27 113.805 155.992 112.858C155.929 112.643 155.927 111.852 155.935 111.625C155.948 111.198 155.632 110.81 156.224 110.446C156.691 110.158 157.195 110.6 157.661 110.287C158.125 109.977 157.84 109.379 158.142 109.044C158.701 108.423 159.616 109.275 160.436 108.468C160.77 108.14 160.77 107.833 161.047 107.445C161.406 106.945 162.119 106.722 162.585 106.344C163.614 105.51 164.35 104.085 165.373 103.347C166.43 102.584 166.458 103.84 167.481 103.812C167.888 103.8 168.499 103.35 168.552 102.929C168.647 102.179 167.872 102.19 167.435 101.894C166.886 101.523 166.764 101.591 166.799 100.867C166.814 100.549 167.173 99.4566 167.497 99.3483C168.019 99.1734 169.642 100.831 169.615 99.1398C169.597 98.1047 167.984 98.3785 167.842 97.3865C167.804 97.1263 168.09 96.1078 168.325 95.9715C168.784 95.7082 169.12 96.3177 169.601 96.3328C170.163 96.3502 170.808 95.9278 170.705 95.3173C170.631 94.8739 169.934 94.8126 169.824 94.4195C169.743 94.1278 169.977 93.6982 169.925 93.3941C169.812 92.7331 169.147 92.7208 170.237 92.4775C170.661 92.382 171.757 92.7261 171.836 91.9339C171.9 91.2714 171.086 91.2408 170.916 90.7781C170.376 89.312 172.963 90.2356 172.719 88.9204C172.598 88.2666 169.887 87.1199 171.126 85.936C171.299 85.7711 174.398 86.2532 173.778 84.9158C173.482 84.2786 172.202 84.7032 171.865 84.0802C171.345 83.1107 172.615 83.0447 173.177 82.9521C173.433 82.9109 174.608 82.5765 174.713 82.6193C174.897 82.6958 174.933 83.2708 175.018 83.3593C175.25 83.5939 175.514 83.725 175.756 83.9465C176.47 84.5972 177.67 85.5593 178.347 84.0513C179.262 82.0167 175.882 83.3319 177.309 81.6314L177.326 81.6209Z" fill="#F5CF5D"/>
<path id="Vector_5" d="M133.018 102.317C131.664 101.04 128.71 103.97 129.158 100.612C129.522 97.8866 131.907 99.5033 133.486 99.5905C134.493 99.6459 135.004 98.7697 133.919 98.2341C133.321 97.9413 133.063 98.2841 132.476 98.2757C132.011 98.269 131.523 97.9025 131.138 97.6839C130.533 97.3421 129.016 96.147 128.254 96.9686C127.527 97.7518 128.641 97.9387 129.208 98.252C128.867 98.755 127.395 99.9822 126.776 100.004C125.604 100.045 124.735 98.5796 125.518 97.7236C125.816 97.3995 126.435 97.4377 126.442 96.8896C126.453 96.1746 125.697 96.2899 125.275 96.0444C124.311 95.4797 123.819 93.9639 124.547 92.9447C124.751 92.6627 125.48 92.6077 125.497 92.3094C125.509 92.0485 125.002 91.7914 124.852 91.5564C124.337 90.7401 124.285 89.4631 124.542 88.529C124.8 87.5966 125.942 87.0272 125.703 85.9579C125.495 85.0172 124.023 84.1647 125.669 83.7271C126.708 83.4526 127.971 84.0139 128.771 84.6531C129.123 84.9349 129.151 85.3285 129.653 85.4453C130.147 85.5596 130.619 85.3351 131.14 85.4818C131.463 85.573 133.169 86.2277 132.405 85.0917C132.247 84.8541 131.303 84.5974 131.006 84.3319C130.35 83.7507 130.313 83.5538 129.358 83.5153C128.873 83.4944 128.368 83.755 127.892 83.5336C127.395 83.3001 127.309 82.7185 126.939 82.3738C126.047 81.5482 124.862 82.0066 125.074 80.4536C125.305 78.7582 126.385 79.8532 127.499 80.1368C128.139 80.2971 128.809 80.3058 129.435 80.5322C130.2 80.806 130.832 81.3369 131.621 81.5584C133.446 82.0702 132.414 79.9896 131.356 79.7704C130.045 79.4972 129.815 80.6009 128.697 79.5545C128.194 79.0841 127.843 78.4967 127.118 78.3481C126.457 78.2124 126.181 78.3957 125.59 78.0013C124.026 76.9528 124.851 76.2969 126.059 75.6417C125.425 74.8733 124.954 74.715 124.97 73.6705C124.972 73.5485 124.996 72.9126 125.019 72.8798C125.283 72.5245 125.41 72.8193 125.635 72.6055C126.19 72.0778 126.531 72.1217 126.286 71.2545C126.104 70.6129 125.218 70.061 125.842 69.3599C126.273 68.8754 127.021 69.374 127.44 68.8508C128.094 68.031 127.082 67.8548 126.889 67.329C126.302 65.7241 128.46 66.8398 128.866 65.358C129.147 64.3388 128.596 64.4793 128.392 63.6788C128.226 63.0251 128.42 62.5689 128.674 61.9367C128.967 61.2094 129.304 60.4133 129.784 59.7778C130.25 59.1621 130.968 59.0722 131.36 58.4798C131.577 58.1533 131.523 57.7077 131.744 57.3612C131.976 56.9993 132.526 56.8513 132.71 56.5145C132.984 56.0164 132.413 55.4333 132.804 55.0595C134.043 53.8811 135.135 57.8309 136.412 57.0659C137.992 56.1171 134.6 55.6571 135.204 54.6751C135.591 54.045 136.355 54.4387 136.839 54.5158C138.115 54.7232 137.748 54.4805 138.437 53.5467C138.861 52.9705 139.581 52.6253 140.273 52.4932C141.113 52.3316 141.617 52.8134 142.383 52.8145C143.135 52.8158 143.298 52.3471 143.957 52.0812C144.696 51.7831 145.731 52 146.488 52.1011C147.517 52.2398 148.623 52.4743 149.566 52.9205C149.853 53.0545 151.181 53.6594 151.166 53.9188C151.129 54.5414 150.655 54.0354 150.319 54.5049C149.86 55.1389 150.851 55.8229 151.417 55.7497C151.938 55.6836 152.083 55.0225 152.655 55.1802C153.145 55.3145 153.449 56.4912 153.685 56.9056C153.959 57.3837 154.115 58.0062 154.35 58.4169C154.79 59.1815 155.185 58.6447 155.676 59.1498C156.268 59.7586 154.316 59.4352 154.286 59.4303C153.762 59.3074 152.742 58.6783 152.522 59.5891C152.086 61.3926 155.343 60.1154 155.782 60.393C157.466 61.459 153.162 62.8284 155.539 62.96C155.822 62.9746 156.371 62.2894 156.449 63.0985C156.516 63.7836 154.904 64.4457 154.495 64.7797C155.668 65.3959 156.609 65.1409 157.622 64.4144C158.024 64.1258 158.551 63.4539 159.072 63.8846C159.501 64.2391 159.39 65.8147 159.342 66.2728C159.27 66.9473 159.082 67.5378 158.727 68.1069C158.47 68.5173 157.953 68.6966 158.038 69.2707C158.131 69.9051 160.993 71.0608 159.986 72.028C159.737 72.267 159.182 71.7084 158.981 71.6362C158.304 71.3928 157.603 71.5186 156.934 71.274C156.209 71.0092 155.859 70.2496 155.147 70.01C154.483 69.7896 153.342 70.1231 153.622 71.0388C153.849 71.7833 154.558 71.4998 155.087 71.7262C155.741 72.0062 155.321 71.8724 155.67 72.3653C156.152 73.044 155.781 72.8019 156.561 72.9998C157.25 73.1755 158.22 73.1883 158.912 73.5761C159.434 73.8675 159.681 74.0696 159.571 74.7193C159.426 75.5678 159.131 75.4275 158.59 75.292C157.974 75.1393 157.703 74.6202 157 74.9706C156.308 75.3132 156.18 75.9135 156.668 76.4733C157.111 76.9841 159.807 77.7063 158.407 78.9317C157.83 79.4339 157.238 78.4386 156.653 78.2886C155.891 78.0936 155.133 78.5146 154.376 78.346C153.897 78.239 151.196 75.2272 150.882 77.276C150.638 78.8652 153.506 78.2224 154.172 78.9584C154.529 79.3497 154.372 79.9624 154.786 80.2324C154.963 80.3471 156.061 80.0727 156.446 80.2044C158.047 80.7443 157.093 81.879 155.805 81.7431C155.158 81.6747 154.086 80.8684 153.945 82.0331C153.849 82.8332 155.006 82.9244 155.284 83.4056C156.272 85.1106 153.317 84.1439 153.036 85.2403C152.822 86.0748 153.767 86.4027 152.873 87.1046C152.516 87.3859 150.687 87.8914 150.259 87.7917C149.609 87.6407 149.426 86.8717 148.795 86.6945C147.953 86.4582 147.379 87.1589 146.855 87.6931C147.471 88.0487 148.739 88.2438 149.121 88.7973C149.507 89.356 149.175 90.2459 148.501 90.4139C147.923 90.5586 146.792 90.0033 146.172 89.8609C145.195 89.6366 144.847 89.2381 144.054 88.737C143.66 88.4888 142.894 88.0509 142.43 88.3978C141.766 88.8965 142.465 90.093 142.976 90.363C143.933 90.8689 146.987 90.2408 146.24 92.4961C146.017 93.1677 145.041 93.527 144.628 94.0782C144.023 94.8863 144.052 95.8171 143.685 96.7109C143.23 97.8178 142.297 98.8118 141.637 99.8066C141.06 100.672 140.369 100.955 139.701 101.657C139.247 102.132 139.072 102.838 138.288 102.78C137.754 102.74 137.386 101.95 136.867 102.045C136.197 102.17 136.729 102.811 136.149 103.121C135.445 103.494 133.613 102.661 133.026 102.316L133.018 102.317ZM128.489 73.426C128.781 73.5976 130.561 74.1593 130.887 73.7089C131.165 73.3241 130.065 72.3039 129.627 72.1402C129.472 72.0818 127.643 71.7871 127.576 71.8752C127.312 72.2268 128.29 73.1583 128.489 73.426ZM134.358 73.6633C132.939 72.6458 131.229 74.087 133.244 74.9956C133.598 75.1554 134.886 75.3917 135.192 75.1031C135.739 74.5864 134.732 74.0036 134.357 73.6655L134.358 73.6633Z" fill="#F5CF5D"/>
<path id="Vector_6" d="M212.687 127.118C213.575 125.893 214.507 124.721 215.379 123.475C215.567 123.205 216.792 120.782 217.114 120.769C217.968 120.732 217.754 122.677 217.439 123.038C217.02 123.514 215.775 123.211 216.167 124.396C216.516 125.456 217.393 124.551 217.951 125.073C218.38 125.475 217.877 127.424 217.857 128.031C217.809 129.422 217.841 130.819 217.643 132.203C217.483 133.333 217.448 135.033 216.652 135.855C216.069 134.882 216.436 133.301 216.472 132.182C216.5 131.193 216.397 128.71 214.834 128.659C214.287 128.641 214.349 129.163 213.995 129.439C213.393 129.909 213.41 129.58 212.717 129.666C211.611 129.804 210.638 130.542 209.615 130.973C208.48 131.452 207.315 131.959 206.086 132.123C204.554 132.328 204.783 131.186 205.862 130.576C207.034 129.912 208.464 129.748 209.674 129.081C210.732 128.499 211.891 127.991 212.727 127.161C212.716 127.149 212.706 127.135 212.694 127.123L212.687 127.118Z" fill="#F5CF5D"/>
<path id="Vector_7" d="M210.222 73.7163C209.645 73.2754 207.655 73.5067 206.943 73.5636C205.76 73.6576 204.548 74.1633 203.421 74.5131C202.789 74.7106 201.814 75.2723 201.654 74.5936C201.552 74.159 203.662 71.8009 204.12 71.4471C205.095 70.6995 206.458 70.4018 207.543 69.7841C208.254 69.3783 209.596 68.3143 210.422 68.4254C210.959 68.4965 211.77 69.6866 211.354 70.1469C210.891 70.6589 209.297 70.0378 210.085 71.4026C210.252 71.6924 210.9 71.8109 211.124 72.1453C211.405 72.557 211.37 73.0482 211.437 73.5172C211.604 74.7169 211.746 75.8762 211.693 77.092C211.596 79.2994 211.336 82.1566 210.625 84.2535C210.292 85.234 209.635 85.5794 209.513 84.3554C209.467 83.902 209.949 83.0493 210.03 82.5621C210.125 82.0018 210.144 81.4326 210.167 80.8666C210.215 79.7823 210.383 78.64 210.256 77.5646C210.128 76.4989 209.634 75.6282 209.333 74.6383C210.097 74.4369 210.475 74.5354 210.222 73.72L210.222 73.7163Z" fill="#F5CF5D"/>
<path id="Vector_8" d="M104.051 43.8532C103.407 44.0644 103.216 43.9724 103.09 44.5753C103.022 44.9013 103.314 45.606 103.267 46.007C103.225 46.3807 103.046 47.2784 102.684 47.4868C102.217 47.754 102.11 47.3277 101.612 47.313C101.163 47.3003 100.626 47.3129 100.69 47.9219C100.766 48.6416 101.586 48.2745 101.863 48.4885C102.351 48.8678 102.343 48.7697 102.115 49.5625C101.951 50.135 101.894 50.4096 101.342 50.4705C100.23 50.5935 100.179 49.7037 100.005 49.0778C99.7175 48.0437 99.6268 47.2804 98.3434 47.016C97.1432 46.7689 96.5906 47.6325 95.6653 48.1768C94.9097 48.6235 93.6664 48.8323 92.822 48.8001C92.9222 48.0237 94.2531 47.0194 94.9655 46.7783C95.4586 46.6121 96.2632 46.9545 96.6268 46.6254C97.002 46.285 96.7893 45.4531 97.1929 44.9687C98.1139 43.8652 100.161 42.9154 101.454 42.328C102.957 41.646 104.59 42.0288 104.054 43.8585L104.051 43.8532Z" fill="#F5CF5D"/>
<path id="Vector_9" d="M159.635 40.9749C158.783 41.654 160.841 43.3296 159.203 43.9144C158.166 44.2835 157.054 42.1393 156.739 41.3532C156.532 40.8382 156.685 38.3306 155.516 39.6009C155.169 39.9771 155.407 40.5979 154.912 40.9471C154.47 41.2586 153.279 41.2437 152.75 41.409C152.263 41.5615 151.488 42.0363 151.052 41.6344C150.503 41.1307 151.054 40.7855 151.464 40.4641C152.554 39.6091 154.236 38.6874 155.514 38.1706C156.121 37.9253 156.632 38.01 157.249 37.8549C157.779 37.7239 158.172 37.2808 158.714 37.4638C159.685 37.7951 160.434 40.2013 159.633 40.9734L159.635 40.9749Z" fill="#F5CF5D"/>
<path id="Vector_10" d="M99.4765 54.2965C100.51 53.4552 98.6158 52.2451 100.213 51.5918C101.75 50.9643 101.118 52.4566 100.979 53.314C100.854 54.072 101.238 56.8764 100.401 57.2729C99.455 57.7211 99.3527 54.9176 99.4765 54.2965Z" fill="#F5CF5D"/>
<path id="Vector_11" d="M193.473 147.788C193.034 146.944 192.277 147.683 191.656 147.341C191.426 147.217 191.009 146.58 190.902 146.365C190.56 145.672 190.501 145.066 191.385 145.123C191.858 145.153 192.415 145.773 192.758 146.044C193.032 146.258 193.875 146.575 193.997 146.721C194.342 147.133 194.221 148.364 193.475 147.785L193.473 147.788Z" fill="#F5CF5D"/>
<path id="Vector_12" d="M105.649 99.6156C105.273 99.8388 104.102 99.9681 103.687 99.8267C103.055 99.6117 103.243 99.5604 102.968 99.0922C102.98 98.8321 102.932 98.5842 102.824 98.3505C102.704 98.1209 102.528 97.9417 102.305 97.8096C102.201 97.5306 101.726 96.8243 102.351 96.6582C102.397 96.6464 103.632 97.9447 103.949 98.1197C104.33 98.3302 106.161 98.8991 105.653 99.615L105.649 99.6156Z" fill="#F5CF5D"/>
<path id="Vector_13" d="M105.928 102.444C105.052 103.799 103.712 101.313 104.304 100.857C104.509 100.698 105.39 100.719 105.606 100.863C106.167 101.239 105.927 101.946 105.928 102.444Z" fill="#F5CF5D"/>
<path id="Vector_14" d="M181.752 142.317C181.308 142.628 179.662 144.602 179.755 142.795C179.81 141.738 181.471 141.133 181.752 142.317Z" fill="#F5CF5D"/>
<path id="Vector_15" d="M215.943 137.508C216.181 137.262 216.336 137.101 216.49 136.942C216.377 137.826 215.957 139.08 215.172 139.71C215.09 139.022 215.583 138.272 215.943 137.508Z" fill="#F5CF5D"/>
<path id="Vector_16" d="M190.197 116.51L189.881 115.666C192.05 115.23 191.339 117.21 190.296 116.454C190.263 116.471 190.23 116.493 190.197 116.51Z" fill="#F5CF5D"/>
<path id="Vector_17" d="M193.203 145.208C193.192 144.94 193.182 144.74 193.171 144.54C193.667 144.502 193.555 144.401 193.698 145.097C193.568 145.127 193.435 145.156 193.203 145.208Z" fill="#F5CF5D"/>
<path id="Vector_18" d="M63.3759 149.01C64.0824 148.312 64.5386 148.389 65.44 148.787C65.9175 148.999 66.2765 149.167 66.5189 149.657C66.6969 150.018 66.5236 150.743 66.743 151.028C67.2219 151.657 68.8584 150.687 69.7065 150.882C70.1711 150.989 72.6246 152.621 72.0034 153.144C71.7833 153.331 70.559 153.1 70.0934 153.183C68.8923 153.396 69.0736 152.91 68.0151 152.351C67.499 152.08 67.0009 152.076 66.4797 151.769C65.987 151.479 65.8114 151.359 65.2076 151.218C63.9335 150.92 63.173 150.482 63.3759 149.01Z" fill="white"/>
<path id="Vector_19" d="M128.381 73.6151C128.183 73.3389 127.212 72.3949 127.497 72.0152C127.567 71.9185 129.441 72.1645 129.598 72.2204C130.043 72.3771 131.139 73.4116 130.838 73.8267C130.486 74.3127 128.675 73.7853 128.381 73.6151Z" fill="white"/>
<path id="Vector_20" d="M134.222 73.6569C134.587 73.9944 135.583 74.5581 135.014 75.1091C134.697 75.4155 133.408 75.2146 133.057 75.062C131.06 74.194 132.827 72.6577 134.222 73.6569Z" fill="white"/>
</g>
</svg>
