<svg width="181" height="155" viewBox="0 0 181 155" fill="none" xmlns="http://www.w3.org/2000/svg">
<g id="Group 37">
<path id="Vector" d="M42.7156 70.8921C43.4288 70.701 44.15 70.7278 43.9211 71.7473C43.6543 72.9272 43.061 72.3788 42.4266 72.1143C41.8291 71.8622 40.6713 71.5597 40.2219 72.0895C39.6449 72.7677 39.5834 74.8703 39.4212 75.7744C39.0486 77.8294 39.3219 79.9425 39.1122 82.0124C38.8773 84.3007 39.115 86.5097 39.4518 88.7868C39.5746 89.6201 39.1608 90.9593 39.6835 91.6297C40.1729 92.2589 41.6072 92.011 41.9359 92.6443C42.3584 93.4613 40.9545 93.9267 40.745 94.5816C40.3988 95.6631 41.3669 96.5484 41.9627 97.2522C43.0977 98.5941 43.3869 100.714 45.2657 101.386C46.3241 101.765 46.8941 100.738 47.7991 100.93C49.2182 101.229 47.8096 102.167 47.4242 102.456C48.0141 103.117 49.1811 103.777 49.4565 104.627C49.1214 104.678 48.7823 104.683 48.4444 104.64C49.3653 105.797 51.3461 106.87 52.6802 106.332C53.7904 105.884 53.2122 105.777 54.4752 106.316C54.8346 106.47 56.7313 106.959 57.022 106.597C57.7713 105.666 55.1502 104.244 57.1827 103.616C57.7907 103.428 58.4128 103.824 58.9615 103.289C59.5339 102.729 59.6574 101.535 59.8999 100.785C61.0128 97.3699 63.0865 94.4385 64.085 91.0961C64.5111 89.6674 65.6044 88.9901 66.5956 87.9836C67.3785 87.189 67.4851 87.3163 68.5101 87.4873C69.0821 87.5819 69.4206 87.3771 69.9072 87.4026C70.4482 87.4332 70.6445 87.4892 71.2475 87.6367C73.2482 88.1284 71.8781 86.1281 71.7738 85.0308C71.7154 84.4171 71.8628 83.2078 72.5222 82.9308C73.2938 82.6043 74.0636 83.3116 74.204 84.0232C74.4839 85.4215 72.8391 86.4249 73.3771 87.7039C73.5839 88.1944 74.7469 88.9328 74.5062 89.5961C74.3893 89.9199 73.8965 89.8402 73.7326 90.1237C73.5394 90.454 73.8324 90.9436 73.7259 91.3064C73.6752 91.4815 73.2951 91.8953 73.2767 92.0451C73.1974 92.6651 73.4006 92.4241 73.7441 92.9253C74.188 93.5722 74.6666 93.9425 74.1265 94.7585C73.6814 95.4292 72.7289 95.8098 72.2236 96.5161C71.7017 97.2436 71.443 97.7252 70.7376 98.2261C70.2034 98.606 69.3462 98.8217 68.9656 99.4C68.4626 100.167 69.2936 100.707 69.0954 101.332C68.8998 101.955 67.941 101.989 67.6841 102.581C67.372 103.311 68.0829 104.101 68.0468 104.924C68.0007 106.012 67.3486 106.097 66.7859 106.891C66.1466 107.795 66.4756 108.127 66.7976 108.955C66.9554 109.366 67.5963 110.665 67.2826 111.223C66.9582 111.803 66.0642 111.485 65.6856 112.185C65.5068 112.517 65.5254 113.888 65.861 114.11C66.4207 114.481 66.992 113.615 67.4416 114.21C67.7315 114.595 67.6026 116.685 67.1527 116.87C66.253 117.239 65.6913 115.548 65.4192 115.137C65.0259 115.585 64.8432 117.11 65.0048 117.754C65.2384 118.689 66.0383 118.884 66.7255 119.46C68.4663 120.918 66.8685 122.43 66.984 124.245C67.1075 126.195 67.9557 128.33 69.0343 129.94C69.3184 130.366 69.8046 131.316 70.3316 131.295C71.165 131.261 71.0807 130.113 71.8595 131.448C72.3249 132.248 71.927 133.012 72.6109 133.742C73.1697 134.339 74.101 134.702 74.8504 134.969C75.5689 135.225 76.156 135.354 76.7192 135.708C77.4258 136.148 78.044 136.946 79.0216 137.096C80.4827 137.323 80.431 135.537 81.8625 136.466C82.6902 137.004 82.3416 137.265 82.7621 138.116C83.1482 138.901 84.3525 139.45 85.182 139.579C85.7527 139.668 86.1052 139.766 86.3123 139.008C86.5153 138.277 85.843 138.048 85.7451 137.381C85.6378 136.657 86.0776 135.863 86.6851 135.569C86.737 135.544 88.361 135.151 88.1845 135.106C88.4904 135.186 88.323 136.57 88.2781 136.902C88.1289 137.959 87.5065 138.145 87.0733 138.944C86.5195 139.958 87.4615 140.611 87.5388 141.732C87.6516 143.309 86.4447 144.468 86.8146 146.098C86.8914 146.437 86.7744 146.594 86.9848 146.869C87.2586 147.224 87.7842 146.677 87.9638 147.306C88.0692 147.678 87.281 148.703 87.0398 148.979C85.4646 150.794 84.9675 148.98 85.3042 147.478C85.4959 146.622 85.9081 146.213 85.0319 145.983C84.3211 145.797 82.6586 146.078 82.331 146.865C82.0563 147.527 82.6853 148.614 81.7257 149.155C81.0108 149.559 80.4322 148.95 80.2669 148.156C79.9831 146.795 80.8678 146.787 79.5705 145.828C79.0207 145.421 77.7216 143.956 77.0557 144.001C75.7736 144.088 76.6919 145.683 76.9285 146.274C77.3122 147.238 77.7796 147.921 77.1057 148.861C76.4343 149.802 75.8033 150.216 75.1807 149.235C74.4333 148.06 75.1776 147.621 76.0231 146.893C76.3774 147.299 74.9343 145.703 75.0959 146.108C74.9595 145.766 75.0855 145.757 75.0816 145.399C75.0755 144.991 75.2625 144.721 75.166 144.256C75.0857 143.863 74.7559 143.517 74.7089 143.123C74.6603 142.713 74.9882 142.187 74.8735 141.811C74.7548 141.431 73.9938 141.131 73.6951 140.932C72.6571 140.244 71.6236 139.552 70.5856 138.863C69.6936 138.272 68.9099 137.43 67.8986 137.726C67.2131 137.926 66.3204 139.04 65.4611 138.727C64.6268 138.424 64.967 137.497 65.2628 136.925C65.6404 136.2 66.3239 136.076 64.9856 135.568C62.2558 134.531 61.8344 137.56 61.6537 139.446C61.5567 140.458 61.4915 141.225 61.7544 142.185C62.0679 143.324 61.5979 144.037 61.5869 145.193C61.5775 146.168 61.9843 147.02 61.9 148.017C61.7995 149.214 61.8534 149.832 62.3091 150.991C62.6986 151.987 63.1546 152.97 63.8434 153.802C64.7389 154.885 64.6604 154.207 65.3073 153.404C65.8055 154.254 65.0067 154.677 65.1692 155.575C65.3381 156.507 66.6239 157.756 67.1462 158.56C68.3424 160.401 69.9147 161.948 71.0572 163.859C71.6378 164.829 72.2613 165.667 73.0955 166.438C73.4777 166.792 73.8879 167.178 74.3285 167.459C74.7016 167.696 75.4936 167.809 75.7671 168.112C76.3477 168.758 76.1082 170.093 76.474 170.875C76.9901 171.979 78.1328 172.277 79.0665 172.94C79.4805 173.236 79.6782 173.495 80.1564 173.645C80.5276 173.76 80.9224 173.568 81.2874 173.785C81.9869 174.199 81.8313 175.107 82.5123 175.588C83.1623 176.046 85.2359 176.643 86.0372 176.448C87.0187 176.207 86.9913 175.616 87.9214 176.057C88.7875 176.468 89.0079 177.03 89.4331 175.744C89.5489 175.395 89.3671 175.269 89.6047 174.938C89.6897 174.817 90.0618 175.03 90.1487 174.834C90.3057 174.482 90.1584 174.589 90.0552 174.193C89.8842 173.534 89.5038 173.093 89.9874 172.337C90.4812 171.567 91.4753 171.654 92.1521 172.317C93.2979 173.438 91.1892 174.563 91.8455 175.565C92.3269 176.3 94.1655 175.208 94.608 174.736C94.9838 174.337 95.1348 173.943 95.2107 173.394C95.3361 172.477 95.1655 172.871 94.8256 172.269C94.4943 171.678 94.3711 172.134 94.6883 171.236C94.8994 170.639 95.2186 170.144 95.7239 169.791C96.4028 171.055 97.3287 172.2 98.6491 172.89C98.747 172.683 98.9129 172.48 98.9351 172.24C98.9588 171.974 98.5393 171.544 98.6244 171.309C98.8533 170.685 99.4942 171.391 99.9708 171.441C100.579 171.504 100.923 171.362 101.246 170.83C101.794 169.928 101.213 169.933 100.939 169.299C100.39 168.018 100.882 167.022 100.987 165.666C101.12 163.965 99.9279 162.162 100.384 160.449C100.812 158.85 102.437 160.261 102.781 161.328C103.179 162.552 101.968 163.467 101.974 164.73C101.98 165.834 102.248 165.294 102.882 166.013C103.303 166.491 103.157 166.789 103.069 167.378C102.988 167.94 102.606 168.919 103.596 169.033C104.895 169.184 104.02 168.128 104.301 167.813C104.719 167.342 104.973 168.018 105.264 167.199C105.374 166.891 105.303 166.044 105.285 165.687C105.243 164.851 105.333 164.159 105.516 163.277C105.628 162.729 105.871 162.407 105.898 161.821C105.923 161.26 105.56 160.444 105.876 159.908C106.141 159.458 106.634 159.666 106.79 159.142C106.914 158.722 105.809 157.94 105.663 157.497C105.444 156.837 105.583 156.034 105.387 155.335C105.181 154.596 104.943 154.457 105.468 153.856C105.69 153.602 106.155 153.221 106.518 153.444C106.969 153.721 106.419 154.51 106.489 154.875C106.611 155.508 107.241 155.609 107.648 155.993C108.14 156.455 108.104 156.927 108.429 157.43C108.959 158.252 108.634 157.645 109.412 157.988C109.811 158.163 110.077 158.437 110.476 158.625C110.609 157.81 109.987 157.456 110.175 156.639C110.349 155.882 111.088 155.06 111.379 154.294C111.613 153.678 112.342 152.296 111.947 151.686C111.584 151.123 109.638 150.722 110.901 149.71C111.684 149.082 112.06 150.121 112.643 150.068C113.371 150.004 113.253 149.325 113.592 148.716C113.972 148.032 114.728 147.699 114.986 146.953C115.4 145.753 115.005 145.828 116.004 144.987C117.135 144.035 118.813 142.947 119.265 141.612C119.648 140.481 119.577 140.768 120.575 140.528C121.834 140.227 122.275 139.605 123.338 138.866C123.879 138.49 124.526 138.283 124.756 137.62C124.979 136.975 124.358 136.261 124.53 135.672C124.774 134.835 125.028 135.043 125.636 135.418C125.966 135.622 125.888 136.122 126.407 136.122C126.812 136.122 127.377 135.38 127.687 135.11C129.3 133.698 130.449 132.123 131.849 130.528C132.427 129.866 132.813 129.295 133.273 128.536C133.883 127.532 133.731 127.194 133.672 126.059C133.623 125.125 133.599 125.11 134.422 125.131C134.675 125.139 134.775 125.521 135.096 125.46C135.46 125.393 135.756 124.582 135.884 124.341C136.405 123.358 136.456 122.603 136.657 121.53C136.862 120.431 137.521 119.862 137.999 118.909C138.396 118.112 138.205 117.531 138.057 116.69C137.927 115.945 138.044 115.059 137.705 114.364C137.349 113.641 136.372 113.482 136.115 112.763C135.773 111.81 136.52 111.109 136.927 110.39C137.441 109.486 137.242 109.088 136.569 108.335C135.568 107.222 136.135 108.195 135.441 108.395C134.779 108.587 134.648 107.839 134.469 107.4C134.339 107.081 134.61 106.512 134.125 106.336C133.971 106.28 133.604 106.918 133.549 106.883C132.759 106.34 133.71 106.118 133.728 105.676C133.744 105.299 133.415 104.861 133.164 104.541C133.144 104.515 133.033 103.988 132.971 103.882C132.77 103.535 131.673 103.013 131.311 102.829C130.619 102.474 129.691 102.77 129.158 102.3C128.524 101.743 128.791 101.056 129.196 100.535C129.75 99.8239 129.941 99.9733 130.591 100.153C131.101 100.295 131.334 101.062 131.541 100.149C131.621 99.7989 130.741 98.0154 130.419 97.8146C129.971 97.5365 129.439 98.0188 129.002 97.5649C128.524 97.0719 128.99 96.0614 128.868 95.4396C128.694 94.57 128.167 94.1568 127.802 93.5111C127.418 92.8285 127.746 92.086 126.895 91.8324C126.225 91.6357 125.651 92.4496 124.924 91.8787C124.089 91.2221 124.838 90.4365 124.497 89.6925C124.31 89.2885 123.305 88.6166 122.931 88.3547C122.326 87.9318 121.518 87.8811 120.95 87.3563C120.372 86.8232 120.265 86.3506 119.431 86.1202C118.34 85.8191 118.658 86.0904 118.153 86.7243C117.708 87.2808 117.223 87.7395 116.467 87.1788C116.303 87.0557 115.988 86.3882 115.945 86.2604C115.688 85.466 116.196 85.4664 116.151 84.8125C116.115 84.2708 114.44 83.1934 113.747 83.4376C113.027 83.6889 113.681 84.3688 113.66 84.8926C113.636 85.4307 113.243 86.4302 112.662 86.5106C111.617 86.6598 111.335 84.9416 111.162 84.3279C110.919 83.4627 110.768 83.2219 109.968 82.7122C109.309 82.2928 108.958 81.8159 108.348 81.3414C107.625 80.775 106.564 80.6385 105.673 80.6238C104.906 80.6122 104.116 81.0885 103.384 81.0032C102.883 80.9452 102.213 79.9301 101.897 79.9617C101.026 80.0504 101.374 80.9849 101.614 81.2881C101.682 81.3757 102.307 81.6345 102.465 81.7871C102.6 81.918 102.589 82.2915 102.752 82.4231C103.048 82.6615 103.478 82.5072 103.717 82.7022C104.082 83.0026 104.138 83.4833 104.284 83.9122C104.596 84.8395 104.708 85.776 103.43 85.9207C102.447 86.0309 101.92 85.2307 101.918 84.3484C101.918 83.9111 102.326 83.6013 102.277 83.1603C102.212 82.5512 101.799 82.5419 101.405 82.1852C100.449 81.3245 100.743 80.9422 99.4418 80.8536C97.0361 80.6933 97.6314 77.9074 95.8056 76.965C94.7603 76.4263 94.6138 76.8582 95.0193 77.7885C95.3614 78.5657 95.8877 79.6864 94.6316 79.9227C93.782 80.0835 92.914 79.3218 92.7157 78.5505C92.4973 77.7039 92.9972 77.2273 93.4508 76.5571C94.053 75.6605 94.0085 75.7754 93.3224 74.8703C92.7653 74.1339 92.3115 73.3252 91.8442 72.5286C91.397 71.7655 91.2232 70.3359 90.2515 70.1868C89.3737 70.0544 88.4989 70.7874 87.9014 69.5883C87.556 68.8926 88.109 68.3016 87.8512 67.7246C87.7745 67.5529 87.3267 67.308 87.1835 67.0651C86.8763 66.5431 86.7372 65.4412 86.865 64.8666C87.31 65.0593 87.5453 65.2609 87.9091 65.5672C87.5742 64.1196 85.964 62.3786 86.1296 60.9249C86.2202 60.118 86.7946 59.6382 86.4529 58.7689C86.1002 57.8691 85.5744 57.8429 85.0065 58.4407C84.5562 58.9151 84.3802 60.3715 83.4182 59.103C83.0261 58.587 83.2393 58.0814 83.5755 57.7017C84.0099 57.2093 84.9281 57.4089 84.1789 56.3201C83.6988 55.6216 82.7268 55.8876 82.0687 55.5654C81.4935 55.2822 81.3554 54.5589 80.8224 54.2561C80.2934 53.9578 79.0707 54.1628 78.585 54.4322C78.1868 54.6531 78.2504 55.6192 77.3735 55.0326C77.0134 54.7921 76.9209 54.1763 77.2755 53.8027C77.5234 53.5413 77.9965 53.9744 78.176 53.5614C78.5248 52.7605 77.3778 52.9147 77.0335 52.8371C76.4162 52.6989 76.071 52.2538 75.5647 52.9772C75.4517 53.1384 75.0749 54.8659 75.0801 55.0622C75.0939 55.6239 75.6018 56.1033 75.7097 56.6621C75.8928 57.6268 75.54 58.5068 74.6962 59.0532C73.8078 59.631 74.2617 59.3785 73.6764 58.7972C73.5428 58.6631 72.8445 58.0871 72.8125 57.9258C72.7179 57.4582 73.0518 57.5386 73.0972 57.156C73.1239 56.9121 72.8743 56.2409 72.9418 56.0557C73.1013 55.6203 73.6816 55.735 73.8118 55.2322C73.9736 54.6179 73.0674 53.6825 73.0197 53.0046C72.94 51.8534 73.3068 52.4625 73.9034 51.7429C74.6428 50.8484 73.6516 51.1363 73.1291 50.9978C72.6368 50.8679 71.6118 50.4881 71.1985 50.83C70.7394 51.2092 71.0183 51.8753 70.8625 52.3766C70.6155 53.1725 70.2072 53.2206 69.615 53.6857C69.0782 54.1081 68.4615 54.4822 68.978 55.2852C69.3462 55.8578 69.9496 55.6738 70.0535 56.4676C70.0961 56.7932 69.7033 57.9818 69.3164 58.1412C68.4271 58.5076 68.0032 57.0921 67.8531 56.4695C67.5869 55.3822 67.635 55.4473 66.9179 54.7176C66.5344 54.3273 66.5267 54.736 66.4856 54.0619C66.4562 53.5879 67.0941 53.0745 67.0665 52.5137C66.9537 50.3018 65.5313 53.7383 65.516 54.5139C65.4972 55.516 65.7432 56.2467 65.0304 57.0949C64.5183 57.7029 63.8757 57.9697 63.3305 57.2886C62.7894 56.612 63.177 55.6642 63.3866 54.9786C63.6464 54.1264 63.5027 53.4964 63.4555 52.6123C62.7171 52.6987 63.0937 56.082 61.4719 54.787C61.3441 54.6848 61.0242 53.5951 61.0335 53.484C61.0681 53.1238 61.3181 53.068 61.383 52.7999C61.503 52.311 61.0284 51.4244 61.8358 51.3668C62.2764 51.3351 62.3859 52.3056 63.0401 51.9883C63.6502 51.6939 63.048 49.8527 62.8487 49.4939C62.7072 49.2366 62.3511 49.0006 62.1764 48.7132C62.032 48.4761 62.02 47.9418 61.789 47.767C61.3721 47.4498 61.3036 47.819 60.9039 47.6699C60.6468 47.5745 60.4499 47.2874 60.1433 47.1635C60.2051 47.8627 60.6353 48.4688 60.6986 49.059C60.7511 49.5463 60.5054 50.5034 60.4366 51.0064C60.281 52.1121 59.9156 52.1125 58.9849 52.5011C58.3456 52.7699 58.0077 53.2058 57.348 53.2628C57.1437 53.2813 56.9055 52.9859 56.6902 53.0046C55.9749 53.0626 55.9217 53.4472 55.3345 53.7438C54.912 53.9573 54.2181 53.7728 53.9586 53.9287C53.0131 54.4912 54.9841 57.308 55.1473 58.0525C54.444 57.6449 54.2025 56.9103 53.471 56.5437C53.3358 58.0588 55.4703 60.403 54.0612 61.6718C52.1467 63.3963 52.3629 59.4141 52.2392 58.6925C51.6628 58.8107 51.4471 59.2445 50.9094 59.3719C50.6106 59.4436 50.4222 59.1153 50.0919 59.2985C49.7015 59.5173 49.908 59.9549 49.6852 60.2792C48.9059 61.4099 47.2123 61.1897 46.1678 61.7369C46.5488 62.2532 47.5105 62.792 48.1923 62.6818C49.1087 62.5309 48.8283 61.3388 49.504 61.2162C49.8656 61.15 50.6087 62.3825 50.6592 62.717C50.7144 63.0894 50.2997 63.4261 50.3282 63.8446C50.3338 63.9489 50.88 63.8221 50.8939 63.8323C51.352 64.2304 50.4147 66.083 50.2086 66.3861C50.1186 66.5188 49.5414 67.3419 49.4834 67.3547C49.2516 67.4057 48.7799 66.7383 48.5416 66.6712C47.6664 66.4239 46.8138 67.1982 46.0891 66.3675C45.6948 65.9161 45.8745 64.13 44.8061 64.6502C44.3471 64.8735 44.6448 65.412 44.4911 65.7234C44.2988 66.1091 44.2884 66.0701 44.0252 66.3579C43.6624 66.7531 43.6224 66.6246 43.3797 67.1241C43.2014 67.4894 43.4496 67.7599 43.1455 68.145C42.9522 68.3917 42.3664 68.4122 42.1021 68.6752C41.8487 68.9269 41.6823 69.3781 41.5905 69.7119C41.2686 70.8844 41.5407 71.2125 42.7196 70.8966L42.7203 70.8992L42.7156 70.8921ZM86.3768 159.518C85.006 159.18 84.87 158.339 85.0256 157.078C85.1001 156.481 85.0517 156.28 84.9577 155.731C84.858 155.151 85.0185 154.698 84.9484 154.135C84.8059 152.978 84.3163 152.973 84.8982 151.959C85.1251 151.567 85.3225 150.378 85.5628 150.244C86.2316 149.867 86.8672 152.666 86.8087 153.124C86.7035 153.96 85.3041 155.098 85.7005 155.755C85.8812 156.055 86.5828 156.154 86.8418 156.444C87.1953 156.836 87.2284 157.22 87.2557 157.728C87.3113 158.685 87.2258 159.126 86.3768 159.518Z" fill="#F5CF5D"/>
<path id="Vector_2" d="M147.588 28.6943C147.15 27.0568 146.596 25.3552 145.462 24.0574C144.941 23.4642 144.194 23.1547 143.714 22.5563C143.292 22.0313 143.092 21.4413 142.61 20.9381C140.109 18.3293 136.916 17.2043 133.583 15.9941C132.909 15.7512 132.059 15.3827 131.335 15.3678C130.308 15.3448 130.639 15.9137 129.872 16.2167C129.256 16.4598 129.164 15.8074 128.677 15.7318C127.975 15.6245 128.238 16.3061 127.601 16.5411C126.3 17.0206 125.442 15.2307 124.372 15.044C123.584 14.9068 123.149 15.2963 122.358 14.9791C121.747 14.7332 121.844 14.5039 121.093 14.6076C121.885 16.7242 123.826 17.3463 124.959 19.0932C125.243 19.5323 125.578 19.9302 125.784 20.4183C125.945 20.8013 125.928 21.3629 126.217 21.6701C126.488 21.9568 126.92 21.8355 127.222 22.1418C127.572 22.4964 127.787 23.2049 127.684 23.6895C127.516 24.484 126.552 25.1961 125.776 24.6241C125.007 24.0558 125.481 22.7839 125.422 22.0447C125.409 21.8837 125.354 21.3247 125.246 21.2337C125.036 21.0531 124.582 21.2446 124.556 21.2209C124.085 20.8011 124.301 21.5038 124.02 20.4256C123.842 19.7406 123.826 18.912 123.491 18.2747C122.99 17.3196 121.865 16.9386 120.892 16.6171C120.455 16.4722 118.501 15.9012 118.181 16.516C117.914 17.0333 119.515 18.8162 119.628 19.4155C119.796 20.3095 119.219 21.634 118.207 21.0025C117.817 20.759 117.217 19.145 117.087 18.6896C116.832 17.7801 117.104 16.4677 116.065 17.5512C115.834 17.7912 115.953 18.2553 115.6 18.5169C115.345 18.7051 114.77 18.5083 114.593 18.7089C113.977 19.4004 115.359 19.693 115.105 20.5188C114.405 22.8041 112.079 18.7305 110.912 19.6784C110.119 20.3199 111.397 20.6879 111.687 20.8777C112.485 21.4076 113.442 21.8142 114.107 22.544C115.301 23.8539 116.836 26.0139 117.272 27.733C117.605 29.0478 117.614 28.3461 118.435 29.2183C119.097 29.9267 118.959 31.3204 117.982 31.6712C115.483 32.5665 117.259 28.7141 116.532 28.0231C115.857 27.3822 115.775 28.5799 115.382 27.2503C115.07 26.1864 115.393 24.9965 114.142 24.9668C113.258 24.9473 112.893 25.9812 112.322 24.6494C111.951 23.7822 112.774 22.8093 112.064 22.0776C111.052 21.0395 111.537 22.4863 110.955 22.5141C110.427 22.5384 110.645 22.1902 110.489 21.9089C110.492 21.7215 110.457 21.5413 110.393 21.3636C110.264 21.1085 110.055 20.9723 109.762 20.9503C109.439 20.4603 109.512 20.2737 109.023 20.0481C108.708 19.9012 108.115 20.2607 107.716 20.078C107.482 19.9735 107.23 19.3752 107.052 19.3448C106.322 19.2256 105.983 20.6592 104.909 20.2702C104.062 19.9623 104.304 18.8331 103.232 18.8781C102.088 18.9282 102.472 19.9453 101.897 20.5199C101.356 21.0633 100.477 20.8114 99.8068 21.1024C98.8658 21.5133 97.7208 22.5221 97.096 23.3247C96.8124 23.6876 96.3579 24.2746 96.4454 24.7777C96.5756 25.5229 97.0204 25.3981 96.794 26.2861C96.5724 27.1506 96.0137 27.5873 95.1199 27.3754C94.624 27.2576 94.4344 26.8404 93.866 26.9091C93.5695 26.944 92.886 27.4753 92.6335 27.6433C90.6444 28.9786 89.5737 31.2713 88.5604 33.3842C88.1768 34.1835 88.1697 34.5308 87.4646 34.9398C87.044 35.1862 86.9621 34.8599 86.6199 35.3054C86.3127 35.7053 86.4571 36.4829 86.5824 36.909C86.8814 37.9209 87.5282 38.965 87.904 39.973C88.3576 41.1887 88.6429 42.5024 89.2181 43.6631C89.4915 44.2167 89.9111 44.7032 90.1451 45.2757C90.3661 45.8098 90.3119 46.5208 90.5986 47.0095C91.0981 47.8674 92.2968 48.1897 92.9613 48.9783C94.2379 50.4944 94.9045 52.3077 96.2898 53.6693C96.8857 54.2534 97.2099 54.498 97.9056 53.9606C98.2393 53.7013 97.7783 53.2676 98.4245 53.1056C98.8436 52.9989 99.197 53.4252 99.3909 53.7131C100.004 54.6213 99.3544 55.113 99.0237 55.8089C98.429 57.0658 99.3317 57.3421 100.631 57.3228C101.276 57.3142 102.062 57.1649 102.7 57.0442C103.171 56.9542 103.361 57.1567 103.743 56.798C104.004 56.5555 103.78 55.8882 104.094 55.6259C105.06 54.81 105.386 56.7756 105.237 57.4758C105.121 58.0167 104.81 58.1028 104.985 58.7134C105.123 59.1974 105.743 59.8281 106.174 60.069C106.648 60.3321 108.163 60.7759 108.691 60.6929C109.948 60.498 109.44 59.1802 110.389 60.3968C110.931 61.0928 111.162 61.8611 112.101 61.0495C112.634 60.5891 112.99 59.3236 112.038 59.381C111.695 59.4003 111.494 60.0308 111.102 59.771C110.784 59.5582 111.298 58.4873 111.223 58.1478C111.115 57.6503 110.801 57.4753 110.801 56.9127C110.8 56.5675 111.259 54.8344 111.54 54.6477C112.278 54.1546 111.671 54.7656 112.312 54.8948C112.7 54.9719 113.364 54.8749 113.717 55.0114C114.874 55.4565 114.733 56.6225 114.522 57.5481C114.39 58.124 113.866 59.1781 113.9 59.7206C113.932 60.2023 115.138 61.7985 115.632 61.7722C116.515 61.7277 116.411 60.0201 117.534 60.0507C118.371 60.0715 119.333 62.3348 120.228 61.8666C121.019 61.4542 120.353 59.6351 122.087 60.4075C122.406 60.5504 122.551 61.0518 122.86 61.1447C123.229 61.2574 123.563 60.9341 123.948 60.931C124.285 60.9301 124.575 61.1753 124.916 61.19C125.288 61.2074 125.778 60.9115 126.121 61.0508C126.434 61.1788 126.428 61.6455 126.727 61.8051C127.269 62.0945 128.024 61.7473 128.518 61.4866C129.43 61.0057 130.614 60.1953 129.472 59.4008C128.426 58.6726 127.703 59.418 126.72 59.4974C126.467 59.5179 126.167 59.8491 125.984 59.469C125.717 58.9193 126.674 58.9722 126.883 58.8075C127.094 58.6422 127.312 57.9599 127.493 57.8975C127.925 57.7456 128.388 58.1478 128.774 58.3314C129.295 57.0913 128.625 55.8668 128.941 54.5538C129.186 53.5381 129.887 52.5118 129.942 54.1601C131.424 53.9192 130.956 54.5932 130.159 55.2302C129.871 55.4607 129.351 55.2349 129.597 55.8516C129.74 56.2088 130.191 56.2106 130.491 56.1998C130.469 56.2002 131.864 55.9684 131.862 55.9691C132.333 55.6951 132.255 55.6325 132.104 55.1605C132.037 54.9527 131.548 55.0697 131.515 54.7694C131.466 54.3257 131.994 54.0952 132.305 53.8558C131.906 53.6032 130.699 53.2497 130.543 52.9044C130.283 52.3389 130.775 52.0704 131.3 51.5788C131.558 51.337 131.764 51.318 131.963 51.0028C132.114 50.7588 131.995 50.2922 132.207 50.0681C132.978 49.2599 133.241 50.0139 133.17 50.6906C133.538 50.6141 133.854 50.3903 134.204 50.4942C134.727 50.6494 134.708 51.4623 135.363 50.8328C135.84 50.3734 135.521 50.3225 135.226 50.0029C134.643 49.3599 133.768 49.739 133.924 48.8143C133.926 48.8025 134.57 47.5016 134.586 47.4779C135.008 46.9443 135.711 47.246 136.031 46.9432C136.263 46.722 136.648 45.2845 136.368 44.9529C136.298 44.8712 134.686 44.7155 134.597 44.7059C133.761 44.6152 133.081 44.6746 132.268 44.3688C131.223 43.9773 130.119 43.2175 129.776 42.0725C129.391 40.7911 130.322 40.6531 131.2 41.3175C131.713 41.7066 132.351 43.6919 133.2 42.4726C133.607 41.8929 132.906 40.9051 132.46 40.59C131.948 40.2258 131.591 40.3158 131.326 39.6708C131.16 39.2695 130.959 37.7691 131.078 37.3416C131.243 36.7456 131.985 36.5246 132.167 35.9995C132.396 35.3307 131.879 35.33 131.378 34.8931C130.895 34.471 130.571 33.9979 130.253 33.4451C130.044 33.0804 129.34 31.9987 129.572 31.5883C129.879 31.041 130.587 31.6729 131.047 31.82C132.336 32.2322 132.94 32.4214 132.947 33.9628C132.953 35.1036 132.648 37.0907 134.15 37.0811C135.212 37.0722 136.356 35.3729 137.152 36.7447C137.606 37.5283 137.109 39.6563 138.416 39.2948C138.807 39.1873 139.736 38.5625 140.111 38.3449C140.945 37.8652 140.82 37.1911 141.261 36.4098C141.888 35.2946 143.279 34.5095 144.347 33.8975C144.774 33.6548 145.468 33.3909 145.771 33.0172C145.911 32.8432 145.831 32.4719 145.961 32.2812C146.167 31.9723 146.504 31.9237 146.734 31.6589C147.523 30.7453 147.893 29.8745 147.577 28.6944L147.588 28.6943Z" fill="#F5CF5D"/>
<path id="Vector_3" d="M154.072 179.505C154.372 181.517 156.432 180.341 155.962 178.752C155.829 178.307 155.328 178.038 155.133 177.578C155.125 177.558 154.703 176.107 155.234 176.407C155.567 176.595 155.337 177.054 155.675 177.296C156.135 177.623 157.008 177.04 157.6 177.723C158.142 178.353 157.658 181.719 159.463 180.514C160.488 179.831 159.101 177.405 160.477 177.03C162.184 176.568 161.142 179.552 162.013 179.917C162.48 180.114 163.565 179.459 163.756 179.039C164.062 178.364 163.351 177.31 163.944 176.681C164.356 176.246 164.977 176.474 165.453 176.892C166.105 177.464 165.822 177.937 165.938 178.743C166.767 178.607 167.221 178.08 167.519 177.273C167.724 176.717 168.211 175.339 168.211 174.768C168.212 173.973 167.337 173.508 167.347 172.675C167.356 172.023 167.771 171.028 168.09 170.472C169.237 171.245 169.502 171.996 169.236 173.276C169.064 174.1 169.548 174.866 169.298 175.554C169.124 176.034 168.503 175.814 168.64 176.359C168.626 176.307 169.642 177.034 169.59 177.026C170.245 177.124 171.161 176.37 171.461 175.786C171.639 175.444 171.493 174.879 171.92 174.678C172.432 174.437 172.788 175.122 173.25 175.102C173.671 175.084 174.967 173.92 175.067 173.443C175.238 172.608 174.178 171.798 175.57 171.19C176.068 170.973 176.531 171.361 177.046 171.069C177.408 170.863 177.745 170.118 177.796 169.746C177.92 168.829 177.417 168.25 176.515 168.319C175.479 168.397 175.27 169.312 175.054 167.851C175.001 167.488 174.926 166.783 175.172 166.465C175.555 165.971 175.914 166.241 176.385 166.112C177.631 165.778 177.206 165.126 177.657 164.152C177.858 163.717 178.71 163.078 177.725 162.964C177.367 162.923 176.948 163.623 176.58 163.537C176.186 163.446 175.784 163.037 176.155 162.618C176.592 162.129 178.534 163.033 178.042 161.975C177.878 161.622 177.245 161.794 177.103 161.522C176.917 161.163 177.407 160.573 177.59 160.289C178.021 160.725 178.132 161.814 178.812 161.671C179.702 161.483 178.729 160.44 178.744 160.078C178.767 159.501 178.771 159.942 179.047 159.558C179.333 159.154 180.316 159.072 179.305 158.529C178.662 158.184 178.258 158.921 177.664 158.915C176.853 158.909 177.02 158.349 176.39 157.992C176.184 157.877 175.105 157.659 174.856 157.645C174.463 157.622 174.65 157.258 174.139 157.479C173.65 157.689 173.835 158.506 173.169 158.564C172.232 158.648 173.144 155.605 171.794 155.872C170.986 156.033 170.184 158.648 170.141 159.283C170.105 159.825 171.409 162.586 169.786 162.582C169.071 162.58 169.005 161.543 169 161.061C168.998 160.678 169.176 160.292 169.165 159.92C169.153 159.489 168.895 159.038 168.911 158.681C168.938 158.056 169.114 157.788 169.067 157.157C169.026 156.63 168.927 156.033 168.904 155.488C168.891 155.234 168.763 154.994 168.752 154.726C168.744 154.529 169.128 154.239 169.097 153.996C169.059 153.712 168.615 153.249 168.491 152.983C168.326 152.625 168.476 152.117 167.992 151.928C166.197 151.231 166.946 155.448 166.988 156.041C167.031 156.65 167.245 157.614 166.541 157.926C165.808 158.251 165.346 157.659 165.249 156.943C165.081 155.715 165.423 154.228 165.391 152.98C165.375 152.243 165.468 151.502 165.448 150.783C165.417 149.784 165.024 149.593 164.445 149.034C163.7 148.316 162.207 146.347 162.184 148.826C162.179 149.432 162.792 149.665 162.794 150.109C162.797 150.441 162.305 150.369 162.258 150.639C162.195 150.986 162.541 151.041 162.536 151.336C162.527 152.091 162.139 155.656 160.523 153.873C159.78 153.051 160.545 152.801 160.913 152.275C161.401 151.573 161.357 150.673 161.455 149.813C161.677 147.837 161.293 146.975 160.423 145.306C160.229 144.935 159.365 143.373 159.722 142.942C160.153 142.421 160.659 143.706 161.082 143.934C161.444 142.962 160.563 142.02 159.899 141.37C159.703 141.179 158.992 140.36 158.686 140.31C158.069 140.207 158.166 140.726 157.553 140.865C156.38 141.129 156.987 139.752 156.74 139.016C156.321 137.765 154.707 137.473 153.588 137.023C153.021 136.795 152.377 136.428 151.783 136.298C150.991 136.125 150.938 136.455 150.273 136.622C149.664 136.777 149.716 136.827 149.051 136.516C148.845 136.42 147.91 135.546 147.744 136.287C147.625 136.82 148.944 138.047 149.247 138.452C149.849 139.254 150.359 140.44 150.116 141.361C149.972 141.904 149.781 141.711 149.82 142.313C149.824 142.368 150.121 142.804 150.152 142.98C150.177 143.136 149.985 143.374 149.984 143.557C149.989 144.366 150.622 146.085 149.266 146.102C147.653 146.123 148.702 144.412 148.702 143.704C148.7 142.804 147.697 142.706 146.999 142.188C146.576 141.874 146.306 141.582 145.804 141.381C145.265 141.165 144.871 141.253 144.466 140.791C144.215 140.506 144.236 140.036 143.999 139.744C143.784 139.48 142.621 138.7 142.223 139.042C141.491 139.666 143.579 140.564 143.774 140.887C144.338 141.807 143.724 142.817 142.898 142.985C142.445 143.078 141.604 142.744 141.378 143.314C141.181 143.814 142.154 144.538 142.144 145.134C142.121 146.315 140.84 146.684 140.245 145.584C139.832 144.819 140.462 143.019 140.802 142.366C140.875 142.226 141.211 142.276 141.249 142.084C141.299 141.833 141.076 141.842 141.073 141.636C141.07 141.052 140.227 141.135 141.556 140.913C141.472 140.424 141.229 138.883 140.656 138.751C140.125 138.628 140.124 139.484 139.912 139.689C139.592 140.001 139.373 139.878 139.033 140.095C137.986 140.765 135.393 142.945 137.013 143.946C137.527 144.265 138.619 144.123 139.055 144.588C139.678 145.252 138.813 145.212 138.281 145.573C137.686 145.979 137.686 146.248 137.546 146.962C137.318 148.117 137.697 148.376 137.957 149.501C138.102 150.126 138.075 151.087 137.098 150.865C136.227 150.667 136.461 149.611 136.526 148.978C136.61 148.153 136.368 147.496 136.364 146.683C136.362 146.227 137.089 144.748 136.068 144.977C135.504 145.103 135.613 146.238 135.437 146.649C135.104 147.421 134.6 147.947 134.402 148.831C134.26 149.462 134.381 150.485 133.779 150.895C132.995 151.427 132.008 150.264 131.373 150.616C131.095 150.772 131.348 151.138 131.177 151.287C130.954 151.481 130.565 151.628 130.375 151.846C129.918 152.371 129.591 153.402 129.583 154.07C129.574 154.856 129.964 155.462 129.519 156.208C129.042 157.004 128.324 156.875 128.102 157.804C127.882 158.728 128.099 158.994 128.616 159.432C129.069 159.811 129.763 159.869 129.601 160.729C129.404 161.778 128.601 161.378 128.145 160.839C127.4 159.959 127.334 159.577 126.766 160.904C125.991 162.715 125.792 164.631 125.219 166.48C124.931 167.408 124.556 168.241 124.395 169.208C124.318 169.676 124.1 170.515 124.203 170.982C124.322 171.519 124.854 171.877 124.976 172.443C125.311 174.018 123.683 175.427 125.232 176.918C125.651 177.32 126.949 178.002 127.554 177.736C128.117 177.49 128.689 175.619 129.629 176.727C130.109 177.295 129.5 178.365 129.945 179.079C130.463 179.914 131.678 180.078 132.513 180.4C133.401 180.744 134.513 181.562 135.509 181.281C136.703 180.944 136.507 180.065 137.74 180.888C138.579 181.446 138.436 181.44 139.312 180.713C139.539 180.523 139.783 180.57 139.982 180.329C140.284 179.968 140.129 179.235 140.749 179.264C141.431 179.297 142.28 180.938 142.895 181.305C143.438 181.627 144.363 182.101 144.945 182.144C144.811 181.438 144.198 181.026 144.288 180.244C144.367 179.56 144.963 179.005 145.689 179.23C146.308 179.423 146.915 180.816 146.798 181.398C146.652 182.128 145.571 182.197 145.548 183.067C145.485 185.541 148.998 183.836 149.135 182.157C149.201 181.364 148.326 180.684 148.219 179.87C148.123 179.146 148.335 179.148 148.052 178.488C147.927 178.197 147.578 177.871 147.408 177.589C149.419 176.687 147.426 176.516 147.994 174.867C148.46 173.511 149.725 174.193 149.944 175.251C150.073 175.879 150.004 176.482 149.778 177.072C149.425 177.997 149.258 177.882 149.743 178.81C150.448 180.151 150.112 180.278 149.431 181.588C150.15 181.627 150.867 181.57 151.56 181.333C152.623 180.97 152.238 181.062 152.157 180.135C151.997 178.301 153.29 177.524 154.086 179.487L154.072 179.505Z" fill="#F5CF5D"/>
<path id="Vector_4" d="M189.823 77.1687C190.556 77.2369 191.34 75.9739 191.877 75.5181C192.705 74.8144 193.745 74.2376 194.224 73.243C195.1 71.4262 194.525 69.4467 194.733 67.5665C194.856 66.4612 194.461 65.4028 194.278 64.3238C194.201 63.8819 194.041 63.4624 194.238 63.0393C194.381 62.7306 194.971 62.6505 195.069 62.3486C195.447 61.186 193.31 61.3577 193.273 60.3564C193.24 59.4627 195.699 59.9349 195.492 58.6337C195.421 58.1794 194.774 57.9765 194.686 57.4376C194.599 56.9065 195.089 56.505 195.066 56.0322C195.038 55.4465 194.848 55.6783 194.587 55.1717C194.295 54.6037 194.111 54.199 193.95 53.5458C193.776 52.8321 193.883 52.419 193.096 52.3903C191.921 52.3487 192.815 53.2483 192.159 53.8335C191.466 54.4539 190.871 54.2345 190.852 53.4874C190.843 53.1834 191.434 52.5765 191.556 52.3126C191.779 51.8297 191.876 51.3691 192.135 50.8875C192.26 50.6562 192.7 50.3796 192.605 50.0568C192.45 49.5302 192.041 49.9629 191.701 49.7586C191.031 49.3532 190.878 48.4975 190.189 48.1805C189.325 47.7798 188.872 48.5696 188.526 47.3394C188.268 46.4281 188.762 46.0422 187.664 45.5287C186.272 44.8767 186.996 45.6519 186.488 46.4232C185.809 47.4545 184.665 46.4575 185.173 45.4774C185.367 45.1052 186.365 44.8907 186.382 44.5465C186.424 43.7468 184.607 43.6041 184.185 43.4333C183.855 43.2987 183.74 42.8059 183.324 42.8255C182.588 42.8612 183.016 43.3146 182.716 43.59C182.145 44.1163 182.855 44.0262 181.911 44.1066C181.72 44.1243 180.721 43.8767 180.617 43.6677C180.241 42.8968 181.491 42.8738 180.846 42.0632C180.354 41.4458 179.805 41.7295 179.43 42.1335C179.131 42.456 178.97 43.8249 178.035 43.2205C177.262 42.7228 178.56 41.2218 176.923 41.4069C175.788 41.5357 175.953 42.7032 176.238 43.4763C176.61 44.4796 176.875 45.0102 176.143 45.9557C175.78 46.4235 175.189 47.0747 174.72 47.4288C173.833 48.0983 173.065 47.7331 174.019 46.8954C174.301 46.647 174.793 46.8466 175.07 46.5272C175.51 46.0222 175.211 45.5398 175.126 44.9721C175.043 44.4344 174.958 44.1591 175.178 43.6376C175.341 43.2543 176.199 42.5788 175.469 42.1476C175.084 41.9194 174.942 42.3167 174.563 42.3096C174.07 42.3025 173.883 42.0349 173.319 42.2001C172.231 42.5166 172.747 42.7629 172.761 43.5864C172.767 43.9968 172.491 44.33 172.515 44.7244C172.559 45.4926 173.039 45.5201 172.282 45.9876C171.144 46.6908 171.373 45.7854 171.148 45.2273C170.877 44.5506 169.624 43.6135 169.167 44.6078C168.814 45.3737 170.18 46.1776 170.309 46.9005C169.152 46.7288 168.636 44.6999 167.429 46.1347C167.209 46.397 167.293 46.7533 167.026 46.9753C166.756 47.198 166.388 47.0764 166.075 47.2105C165.318 47.5304 165.067 48.0936 164.531 48.6799C164.147 49.1004 163.029 49.6394 162.918 50.2236C162.749 51.1045 163.224 50.6373 163.679 50.7188C164.339 50.8372 164.717 50.6773 165.006 51.4411C165.089 51.6584 165.09 52.4658 164.959 52.6822C164.665 53.1618 164.841 52.7332 164.398 53.0999C163.044 54.2174 162.786 54.0052 163.746 55.8481C164.068 56.4639 164.579 57.0901 163.988 57.697C163.416 58.2846 162.968 57.9341 162.551 57.4831C161.764 56.63 161.664 54.2447 159.872 54.5187C158.024 54.8021 160.552 57.5675 160.812 58.1302C159.872 58.3013 158.811 57.7081 157.9 57.4759C158.128 58.5875 157.364 58.6752 156.443 59.2088C156.155 59.375 155.242 59.6449 155.124 59.9021C154.896 60.3976 155.56 60.9135 155.54 61.4451C155.52 61.9631 155.207 62.5064 154.586 62.3971C153.704 62.2434 154.112 61.3988 153.701 60.9797C153.252 60.5235 153.499 60.6132 152.862 60.9956C152.39 61.278 151.266 61.9999 151.006 62.4568C150.414 63.4984 151.837 64.0082 151.903 64.8569C151.933 65.2722 151.519 66.0515 151.033 66.062C150.308 66.0752 150.276 64.6744 149.805 64.4887C149.509 64.3731 149.123 64.6213 148.949 64.8881C148.312 65.858 149.337 65.4192 149.524 66.1489C149.882 67.5487 147.714 66.5838 147.076 67.0806C146.229 67.7422 145.778 69.1468 145.066 69.9784C143.816 71.4414 143.485 71.6971 144.007 73.5098C144.414 74.9244 144.121 76.4653 144.442 77.9447C144.752 79.3629 145.189 81.3155 146.245 82.3917C146.851 83.0065 147.666 82.7965 147.413 83.9477C147.292 84.4981 146.709 84.6153 146.744 85.2968C146.772 85.8714 147.374 86.6905 147.719 87.1525C148.642 88.3897 149.747 87.5337 151.039 87.4244C152.142 87.3321 153.023 87.6588 152.244 86.3969C151.981 85.9687 151.631 85.405 151.262 85.0472C150.812 84.6079 150.513 84.7632 150.329 84.1607C149.923 82.8238 151.438 81.5768 152.052 83.1725C152.347 83.9376 152.244 85.3552 153.029 85.9524C153.208 86.0884 153.946 86.3725 154.161 86.4458C154.564 86.5856 154.815 87.0199 155.366 86.5965C155.801 86.2625 155.569 85.6341 156.026 85.3109C156.482 84.9883 156.94 85.4673 157.359 85.3046C158.139 85.0039 157.669 83.8456 158.717 83.3672C159.142 83.1725 159.428 83.2824 159.89 83.1614C160.485 83.0049 160.948 82.4185 161.467 82.1177C162.613 81.4541 164.207 81.275 165.261 80.583C166.351 79.8676 165.188 79.3937 165.58 78.4476C165.736 78.0715 166.374 77.661 166.787 77.7621C167.522 77.9413 167.234 78.6616 167.355 79.1752C167.506 79.8201 167.399 79.9101 168.087 80.135C168.39 80.2348 169.538 80.2893 169.755 80.0251C170.105 79.5999 169.135 77.4922 170.706 78.1215C171.666 78.5075 170.835 79.9168 171.711 80.4036C171.94 80.5314 172.994 80.628 173.205 80.4572C173.615 80.1217 173.165 79.5904 173.323 79.136C173.507 78.6047 174.132 78.1532 174.665 78.4671C175.053 78.6946 174.862 79.367 175.19 79.6107C175.433 79.7905 175.918 79.7246 176.184 79.8819C176.761 80.223 176.535 80.849 177.151 79.9179C177.392 79.5554 177.462 78.4086 178.23 78.6178C178.872 78.794 178.609 79.5662 178.981 79.89C180.158 80.9171 180.218 78.1713 181.36 78.8682C181.927 79.2147 182.031 82.156 183.58 81.4209C183.795 81.3186 184.45 78.2517 185.479 79.3076C185.969 79.8115 185.115 80.8563 185.577 81.3926C186.297 82.2247 186.812 81.0618 187.099 80.5698C187.229 80.3456 187.96 79.3669 187.958 79.2533C187.952 79.0544 187.427 78.8161 187.375 78.7047C187.239 78.4043 187.211 78.111 187.09 77.8063C186.737 76.9065 186.267 75.4421 187.917 75.3481C190.144 75.2193 187.709 77.9078 189.807 77.1814L189.823 77.1687Z" fill="#F5CF5D"/>
<path id="Vector_5" d="M154.679 111.175C155.389 112.896 151.598 114.611 154.894 115.39C157.57 116.022 156.911 113.218 157.393 111.711C157.7 110.751 158.701 110.586 158.814 111.791C158.875 112.454 158.462 112.573 158.261 113.124C158.101 113.561 158.269 114.147 158.336 114.585C158.44 115.272 159.015 117.116 157.975 117.534C156.984 117.934 157.207 116.826 157.117 116.186C156.525 116.325 154.854 117.261 154.612 117.832C154.156 118.913 155.215 120.247 156.294 119.821C156.703 119.658 156.888 119.066 157.403 119.255C158.075 119.5 157.697 120.166 157.776 120.647C157.959 121.749 159.2 122.75 160.411 122.434C160.748 122.343 161.059 121.682 161.344 121.773C161.592 121.855 161.651 122.42 161.817 122.644C162.396 123.416 163.571 123.92 164.535 124.014C165.498 124.105 166.437 123.241 167.351 123.846C168.155 124.376 168.427 126.056 169.423 124.674C170.05 123.802 169.976 122.422 169.664 121.446C169.527 121.016 169.169 120.85 169.239 120.339C169.309 119.837 169.687 119.476 169.736 118.938C169.766 118.603 169.763 116.776 170.552 117.895C170.717 118.127 170.62 119.1 170.762 119.473C171.071 120.293 171.242 120.398 170.937 121.304C170.783 121.764 170.36 122.143 170.397 122.667C170.437 123.215 170.95 123.502 171.14 123.971C171.593 125.098 170.742 126.042 172.268 126.398C173.935 126.787 173.297 125.388 173.43 124.246C173.508 123.59 173.739 122.961 173.751 122.296C173.768 121.484 173.498 120.704 173.573 119.888C173.746 118 175.321 119.707 175.148 120.773C174.935 122.096 173.823 121.916 174.401 123.334C174.661 123.972 175.085 124.509 174.965 125.24C174.855 125.906 174.586 126.099 174.743 126.791C175.165 128.626 176.072 128.089 177.115 127.195C177.607 128.061 177.586 128.558 178.568 128.916C178.683 128.957 179.285 129.162 179.324 129.152C179.75 129.032 179.52 128.808 179.8 128.675C180.491 128.344 180.572 128.01 181.295 128.548C181.829 128.947 182.028 129.972 182.906 129.639C183.512 129.41 183.313 128.532 183.952 128.328C184.951 128.01 184.754 129.018 185.177 129.386C186.466 130.507 186.194 128.093 187.723 128.242C188.776 128.343 188.448 128.808 189.123 129.284C189.674 129.673 190.17 129.654 190.851 129.642C191.635 129.628 192.499 129.597 193.264 129.376C194.005 129.16 194.345 128.522 195.039 128.366C195.421 128.281 195.818 128.49 196.221 128.407C196.641 128.32 196.976 127.859 197.356 127.807C197.919 127.729 198.26 128.47 198.749 128.239C200.292 127.501 196.992 125.071 198.162 124.151C199.612 123.014 198.832 126.347 199.965 126.133C200.691 125.997 200.596 125.142 200.697 124.663C200.958 123.397 201.054 123.826 202.172 123.516C202.862 123.325 203.441 122.776 203.812 122.177C204.262 121.45 203.992 120.807 204.264 120.091C204.531 119.388 205.027 119.403 205.511 118.882C206.053 118.299 206.22 117.253 206.395 116.511C206.633 115.5 206.809 114.383 206.729 113.342C206.706 113.027 206.614 111.571 206.367 111.492C205.772 111.305 206.076 111.927 205.517 112.074C204.761 112.277 204.475 111.107 204.746 110.604C204.993 110.141 205.663 110.241 205.72 109.651C205.769 109.146 204.778 108.441 204.475 108.073C204.127 107.647 203.6 107.279 203.301 106.912C202.743 106.229 203.386 106.051 203.089 105.413C202.732 104.642 202.338 106.581 202.332 106.61C202.259 107.144 202.483 108.322 201.554 108.202C199.713 107.966 202.069 105.379 201.966 104.87C201.571 102.916 198.756 106.448 199.481 104.18C199.568 103.911 200.405 103.642 199.676 103.281C199.06 102.974 197.866 104.244 197.409 104.507C197.252 103.191 197.826 102.403 198.866 101.716C199.279 101.443 200.094 101.191 199.878 100.551C199.7 100.023 198.189 99.5643 197.743 99.4461C197.088 99.2725 196.469 99.2371 195.81 99.366C195.335 99.4598 194.984 99.8782 194.477 99.5947C193.918 99.2807 193.86 96.1949 192.597 96.7903C192.285 96.9383 192.608 97.6562 192.604 97.8697C192.59 98.5888 192.222 99.1986 192.212 99.9111C192.201 100.683 192.786 101.28 192.755 102.032C192.724 102.73 192.006 103.677 191.25 103.089C190.636 102.611 191.153 102.05 191.131 101.475C191.102 100.765 191.078 101.204 190.742 100.702C190.28 100.01 190.373 100.443 190.467 99.6439C190.548 98.9374 190.883 98.0264 190.767 97.2414C190.682 96.6497 190.581 96.347 189.934 96.2184C189.09 96.0506 189.116 96.3762 189.049 96.9305C188.972 97.5603 189.361 97.9983 188.782 98.5305C188.216 99.054 187.609 98.9594 187.26 98.3041C186.941 97.7078 187.228 94.9317 185.584 95.8026C184.909 96.1623 185.628 97.0707 185.559 97.6702C185.469 98.4514 184.806 99.0093 184.693 99.7772C184.622 100.263 186.472 103.861 184.446 103.423C182.874 103.084 184.498 100.634 184.048 99.7487C183.81 99.2761 183.181 99.2042 183.077 98.7209C183.033 98.5147 183.681 97.5866 183.695 97.1805C183.763 95.4916 182.362 95.9787 182.029 97.2301C181.862 97.8588 182.233 99.1482 181.095 98.8636C180.313 98.6679 180.641 97.5547 180.29 97.1232C179.05 95.5919 178.899 98.6976 177.774 98.5686C176.918 98.471 176.949 97.4708 175.974 98.0562C175.584 98.2893 174.46 99.8172 174.4 100.252C174.309 100.914 174.962 101.359 174.902 102.012C174.823 102.883 173.963 103.169 173.278 103.467C173.165 102.765 173.435 101.511 173.055 100.956C172.67 100.397 171.721 100.389 171.323 100.959C170.982 101.448 171.097 102.702 171.009 103.332C170.87 104.325 171.118 104.792 171.303 105.712C171.394 106.168 171.53 107.04 171.04 107.35C170.337 107.793 169.469 106.712 169.399 106.138C169.268 105.064 170.944 102.436 168.571 102.328C167.864 102.297 167.18 103.081 166.518 103.27C165.547 103.546 164.688 103.187 163.722 103.211C162.526 103.241 161.264 103.758 160.099 104.02C159.085 104.25 158.574 104.795 157.68 105.168C157.075 105.423 156.352 105.334 156.127 106.088C155.973 106.601 156.58 107.226 156.306 107.677C155.951 108.258 155.541 107.532 155.045 107.964C154.445 108.488 154.57 110.497 154.682 111.169L154.679 111.175ZM180.052 125.715C179.996 125.381 180.106 123.519 180.643 123.375C181.102 123.252 181.662 124.644 181.659 125.111C181.659 125.276 181.281 127.09 181.175 127.122C180.752 127.243 180.231 125.997 180.052 125.715ZM181.925 120.148C182.369 121.837 180.412 122.92 180.282 120.714C180.259 120.326 180.498 119.038 180.877 118.855C181.555 118.528 181.74 119.678 181.922 120.148L181.925 120.148Z" fill="#F5CF5D"/>
<path id="Vector_6" d="M159.938 27.9011C161.399 27.5095 162.827 27.0566 164.303 26.6866C164.621 26.6069 167.322 26.3275 167.449 26.0318C167.788 25.2465 165.895 24.7531 165.446 24.9182C164.851 25.1395 164.691 26.4112 163.723 25.6217C162.857 24.9174 164.016 24.4214 163.727 23.7143C163.505 23.1694 161.504 22.9435 160.93 22.7459C159.614 22.2944 158.32 21.7668 156.957 21.4572C155.844 21.2043 154.243 20.6296 153.191 21.0801C153.892 21.9721 155.5 22.1934 156.558 22.5593C157.493 22.8854 159.775 23.8679 159.265 25.3458C159.086 25.8632 158.622 25.6194 158.236 25.8519C157.583 26.2463 157.896 26.3479 157.569 26.9643C157.045 27.9481 156.009 28.594 155.241 29.3958C154.389 30.2849 153.499 31.1924 152.907 32.2816C152.17 33.6405 153.318 33.8334 154.273 33.0433C155.312 32.1857 155.975 30.9087 157.03 30.0158C157.951 29.2349 158.839 28.3333 159.913 27.8488C159.92 27.8638 159.929 27.8781 159.936 27.8932L159.938 27.9011Z" fill="#F5CF5D"/>
<path id="Vector_7" d="M133.773 38.475C134.405 39.1863 133.445 39.6302 133.542 40.3321C133.577 40.5909 134.022 41.2074 134.185 41.3847C134.71 41.9508 135.256 42.2225 135.518 41.377C135.658 40.9241 135.278 40.1824 135.147 39.7653C135.045 39.4327 135.049 38.5326 134.957 38.3656C134.695 37.897 133.502 37.5702 133.776 38.4744L133.773 38.475Z" fill="#F5CF5D"/>
<path id="Vector_8" d="M50.7266 51.6237C50.4501 51.1781 50.3965 51.0647 49.9414 51.0679C49.8976 51.0677 48.9169 51.6572 48.9289 51.6154C48.7878 52.06 49.26 52.082 49.2478 52.4595C49.2329 52.9327 48.9743 52.8328 48.8433 53.2094C48.6962 53.6408 48.3842 53.5819 48.7159 54.0603C48.8925 54.3159 49.6997 54.2422 49.8966 54.1983C51.1723 53.9218 50.9164 52.8321 50.7266 51.6237Z" fill="#F5CF5D"/>
<path id="Vector_9" d="M147.437 137.707C147.094 137.978 146.555 139.027 146.539 139.464C146.515 140.131 146.63 139.974 146.969 140.398C147.216 140.48 147.431 140.613 147.61 140.797C147.782 140.992 147.887 141.22 147.93 141.475C148.154 141.671 148.645 142.367 149.023 141.843C149.05 141.804 148.278 140.188 148.228 139.828C148.167 139.398 148.289 137.484 147.438 137.704L147.437 137.707Z" fill="#F5CF5D"/>
<path id="Vector_10" d="M70.0902 50.0465C70.9365 50.0454 71.9947 50.2625 71.8817 49.1411C71.7752 48.0758 71.1027 48.0679 70.4588 48.3157C70.2116 48.4108 69.0309 49.0831 68.955 49.3089C68.7255 49.9897 69.5299 50.2776 70.0875 50.0472L70.0902 50.0465Z" fill="#F5CF5D"/>
<path id="Vector_11" d="M53.229 55.1425C52.9242 54.0947 50.9497 55.1017 50.8415 55.9796C50.5881 58.0021 53.5693 56.1427 53.229 55.1425Z" fill="#F5CF5D"/>
<path id="Vector_12" d="M47.8978 57.0758C48.1437 57.5223 48.3047 58.094 48.8785 57.9846C49.1726 57.928 49.6576 56.6984 49.6392 56.4181C49.6054 55.84 49.281 55.4948 48.6476 55.7089C48.1107 55.8887 48.0735 56.5579 47.8954 57.0764L47.8978 57.0758Z" fill="#F5CF5D"/>
<path id="Vector_13" d="M144.894 136.436C143.316 136.771 145.16 138.91 145.797 138.52C146.019 138.385 146.313 137.555 146.256 137.302C146.105 136.644 145.359 136.616 144.894 136.436Z" fill="#F5CF5D"/>
<path id="Vector_14" d="M134.701 51.3764C134.253 51.6806 131.821 52.5133 133.542 53.071C134.549 53.3969 135.707 52.0617 134.701 51.3764Z" fill="#F5CF5D"/>
<path id="Vector_15" d="M151.394 21.1524C151.708 21.0174 151.914 20.9298 152.118 20.8429C151.252 20.6333 149.931 20.578 149.061 21.0864C149.675 21.4082 150.551 21.216 151.394 21.1524Z" fill="#F5CF5D"/>
<path id="Vector_16" d="M66.18 49.0578C65.9484 49.4634 65.4988 50.4439 66.5546 50.1269C67.3227 49.8968 66.9093 49.0207 66.18 49.0578Z" fill="#F5CF5D"/>
<path id="Vector_17" d="M161.823 52.6965L162.498 53.2927C163.68 51.4218 161.577 51.3801 161.91 52.6238C161.882 52.6486 161.851 52.6717 161.823 52.6965Z" fill="#F5CF5D"/>
<path id="Vector_18" d="M47.6208 64.5652C46.8725 64.7904 46.7192 65.952 47.6664 65.723C48.5395 65.5138 47.9887 64.808 47.6208 64.5652Z" fill="#F5CF5D"/>
<path id="Vector_19" d="M56.8252 49.6303C56.3259 49.2879 56.3024 49.1849 56.0839 49.7761C56.5701 50.2525 56.5406 50.1651 56.8252 49.6303Z" fill="#F5CF5D"/>
<path id="Vector_20" d="M136.087 39.648C136.334 39.7542 136.517 39.8352 136.7 39.9163C136.912 39.466 136.967 39.6074 136.367 39.2252C136.292 39.3361 136.219 39.4502 136.087 39.648Z" fill="#F5CF5D"/>
<path id="Vector_21" d="M59.162 46.7153C58.9171 46.5804 58.7583 46.4934 58.5995 46.4065C58.3419 46.8394 58.2716 46.7411 58.7945 47.1345C58.8986 47.0172 59 46.9037 59.1662 46.7173L59.162 46.7153Z" fill="#F5CF5D"/>
<path id="Vector_22" d="M54.8841 51.1226C54.7962 51.0606 54.7339 51.0144 54.6722 50.9705C54.5685 51.5596 54.5086 51.4246 54.783 51.7211C54.8147 51.5289 54.8492 51.3384 54.8841 51.1226Z" fill="#F5CF5D"/>
<path id="Vector_23" d="M57.9445 50.0936C57.7671 50.3953 57.8081 50.6436 58.0681 50.8408C58.2093 50.584 58.2211 50.3316 58.1009 50.0844C58.0481 50.0885 57.9973 50.0895 57.9445 50.0936Z" fill="#F5CF5D"/>
<path id="Vector_24" d="M125.672 15.3402C125.998 15.5245 126.246 15.4772 126.413 15.1952C125.978 14.9705 126.039 15.0553 125.672 15.3402Z" fill="#F5CF5D"/>
<path id="Vector_25" d="M86.2097 159.572C87.1139 159.161 87.2053 158.708 87.1545 157.723C87.1271 157.202 87.098 156.806 86.7274 156.405C86.4531 156.11 85.7145 156.013 85.5258 155.706C85.1092 155.035 86.5992 153.852 86.7202 152.99C86.7859 152.518 86.137 149.644 85.4262 150.037C85.1737 150.176 84.9522 151.402 84.7089 151.808C84.0813 152.854 84.5999 152.858 84.7438 154.046C84.8132 154.625 84.6396 155.092 84.7402 155.688C84.8351 156.252 84.8846 156.459 84.8008 157.073C84.6248 158.37 84.7624 159.236 86.2097 159.572Z" fill="white"/>
<path id="Vector_26" d="M179.837 125.749C180.025 126.032 180.56 127.276 181.016 127.145C181.132 127.114 181.571 125.276 181.574 125.109C181.587 124.638 181.011 123.245 180.516 123.378C179.937 123.533 179.783 125.413 179.837 125.749Z" fill="white"/>
<path id="Vector_27" d="M181.882 120.277C181.697 119.816 181.526 118.684 180.808 119.019C180.409 119.206 180.137 120.481 180.154 120.864C180.252 123.039 182.318 121.936 181.882 120.277Z" fill="white"/>
</g>
</svg>
