<svg width="33" height="33" viewBox="0 0 33 33" fill="none" xmlns="http://www.w3.org/2000/svg">
<path d="M16.125 29.5625C15.8115 29.5625 15.5427 29.4729 15.3188 29.2937C15.0948 29.1146 14.9268 28.8794 14.8148 28.5883C14.3893 27.3341 13.8518 26.1583 13.2023 25.0609C12.5753 23.9635 11.6906 22.6758 10.5484 21.1977C9.40625 19.7195 8.47682 18.3086 7.76016 16.9648C7.06589 15.6211 6.71875 13.9974 6.71875 12.0937C6.71875 9.47344 7.62578 7.25625 9.43984 5.44219C11.2763 3.60573 13.5047 2.6875 16.125 2.6875C18.7453 2.6875 20.9625 3.60573 22.7766 5.44219C24.613 7.25625 25.5313 9.47344 25.5313 12.0937C25.5313 14.1318 25.1393 15.8339 24.3555 17.2C23.594 18.5437 22.7094 19.8763 21.7016 21.1977C20.4922 22.8102 19.574 24.1539 18.9469 25.2289C18.3422 26.2815 17.8383 27.4013 17.4352 28.5883C17.3232 28.9018 17.144 29.1482 16.8977 29.3273C16.6737 29.4841 16.4161 29.5625 16.125 29.5625ZM16.125 24.7586C16.5057 23.9971 16.9313 23.2469 17.4016 22.5078C17.8943 21.7687 18.6109 20.7833 19.5516 19.5516C20.5146 18.2974 21.2984 17.144 21.9031 16.0914C22.5302 15.0164 22.8438 13.6839 22.8438 12.0937C22.8438 10.2349 22.1831 8.65599 20.8617 7.35703C19.5628 6.03568 17.9839 5.375 16.125 5.375C14.2661 5.375 12.676 6.03568 11.3547 7.35703C10.0557 8.65599 9.40625 10.2349 9.40625 12.0937C9.40625 13.6839 9.70859 15.0164 10.3133 16.0914C10.9404 17.144 11.7354 18.2974 12.6984 19.5516C13.6391 20.7833 14.3445 21.7687 14.8148 22.5078C15.3076 23.2469 15.7443 23.9971 16.125 24.7586ZM16.125 15.4531C17.0656 15.4531 17.8607 15.1284 18.5102 14.4789C19.1596 13.8294 19.4844 13.0344 19.4844 12.0937C19.4844 11.1531 19.1596 10.3581 18.5102 9.70859C17.8607 9.05911 17.0656 8.73438 16.125 8.73438C15.1844 8.73438 14.3893 9.05911 13.7398 9.70859C13.0904 10.3581 12.7656 11.1531 12.7656 12.0937C12.7656 13.0344 13.0904 13.8294 13.7398 14.4789C14.3893 15.1284 15.1844 15.4531 16.125 15.4531Z" fill="#FFBB00"/>
</svg>
