<svg width="209" height="49" viewBox="0 0 209 49" fill="none" xmlns="http://www.w3.org/2000/svg">
<path d="M59.824 24.656H69.136L68.824 27.656C61.496 27.496 54.44 27.496 47.656 27.656L47.512 24.656H56.56V20.072C53.904 20.072 51.584 20.088 49.6 20.12L49.456 17.288H56.56V13.448C54.896 13.448 53.12 13.464 51.232 13.496C50.88 14.424 50.504 15.344 50.104 16.256L47.056 15.824C48.32 13.104 49.16 10.328 49.576 7.496L52.648 7.76C52.488 8.768 52.296 9.744 52.072 10.688H56.56V6.68H59.824V10.688H68.176L67.888 13.52C66.208 13.472 63.52 13.448 59.824 13.448V17.288H67.144L66.904 20.12C65.048 20.088 62.688 20.072 59.824 20.072V24.656ZM78.544 21.704L75.856 23.072C74.704 21.696 73.72 20.344 72.904 19.016L75.52 17.84C76.336 19.072 77.344 20.36 78.544 21.704ZM87.976 17.888L91 18.632C90.28 20.136 89.392 21.584 88.336 22.976L85.504 21.92C86.528 20.672 87.352 19.328 87.976 17.888ZM87.232 12.824C82.256 12.792 77.84 12.816 73.984 12.896L73.816 11.192H87.232V9.56H72.88L72.736 7.4H90.448V16.712C83.616 16.584 77.776 16.584 72.928 16.712L72.76 14.552H87.232V12.824ZM83.056 20.984C85.984 23.752 89.416 25.4 93.352 25.928L91.336 28.544C89.48 28.208 87.72 27.584 86.056 26.672C84.44 25.792 83.032 24.72 81.832 23.456C80.104 25.984 77.088 27.688 72.784 28.568L70.888 26.024C74.504 25.448 77.08 24.344 78.616 22.712C79.832 21.416 80.496 19.616 80.608 17.312L83.656 17.408C83.608 18.72 83.408 19.912 83.056 20.984Z" fill="#FFD35C"/>
<path d="M109.84 14.552H113.368V10.208H109.84V14.552ZM114.568 17.984V28.16C108.76 28.048 103.064 28.048 97.48 28.16V17.984H114.568ZM116.152 7.808V16.952C113.496 16.824 110.512 16.824 107.2 16.952V7.808H116.152ZM111.544 23.696C107.88 23.632 104.192 23.632 100.48 23.696V25.688H111.544V23.696ZM111.544 21.968V20.216H100.48V21.968H111.544ZM103.576 13.736C104.472 14.728 105.64 15.464 107.08 15.944L104.704 17.864C103.488 17.112 102.416 16.12 101.488 14.888C100.544 16.104 99.336 17.128 97.864 17.96L95.032 16.208C97.016 15.552 98.392 14.728 99.16 13.736C98.008 13.736 96.84 13.76 95.656 13.808L95.536 11.624H99.952V11.432V9.968C99.504 9.984 99.056 9.992 98.608 9.992C98.352 10.472 98.04 10.928 97.672 11.36L95.536 10.592C96.448 9.52 97.152 8.2 97.648 6.632L99.832 6.992C99.704 7.44 99.6 7.768 99.52 7.976H106.144L105.976 10.016C104.568 9.984 103.536 9.968 102.88 9.968V11.336V11.624H106.672L106.48 13.808C105.824 13.792 104.856 13.768 103.576 13.736ZM134.68 25.328V28.544H131.584V25.328C129.264 25.328 126.768 25.352 124.096 25.4L123.976 22.64H131.584V20.84C129.136 20.872 127.144 20.896 125.608 20.912L125.416 18.752C126.344 17.552 127.032 16.528 127.48 15.68C126.568 15.696 125.656 15.712 124.744 15.728L124.624 13.208H128.632C128.824 12.76 129.024 12.224 129.232 11.6L132.352 11.744C132.112 12.352 131.92 12.84 131.776 13.208H140.32L140.056 15.728C137.256 15.68 134.112 15.656 130.624 15.656C130.112 16.632 129.488 17.56 128.752 18.44H131.944V16.472H134.68V18.44H139.744L139.6 20.912C137.456 20.88 135.816 20.864 134.68 20.864V22.64H140.848L140.56 25.4C138.608 25.384 136.648 25.36 134.68 25.328ZM132.424 8.312H140.896L140.632 11.024H123.64V16.76C123.64 21.896 123.136 25.752 122.128 28.328L118.864 27.512C120 25.16 120.568 21.576 120.568 16.76V8.312H129.04C129.024 7.976 128.984 7.432 128.92 6.68H132.52C132.488 7.064 132.456 7.608 132.424 8.312Z" fill="white"/>
<path d="M0.0291221 28.1816C3.15315 31.9646 5.01208 36.9095 10.8306 38.0409C9.34957 36.8058 8.05161 35.8677 6.94846 34.7387C6.40862 34.1848 6.09176 33.301 5.92746 32.5161C5.7749 31.7902 6.20677 31.5545 6.96724 31.8939C8.82616 32.7212 10.6734 33.631 12.6121 34.2178C15.6962 35.1536 18.102 36.9095 19.9703 39.6625C20.2966 39.2688 20.5571 38.9671 20.8059 38.6537C22.4559 36.5913 24.5026 35.1488 27.0446 34.3545C29.2931 33.6522 31.4877 32.7777 33.8489 31.9292C34.9779 33.1242 33.4452 35.3138 29.4222 37.626C30.4972 37.9348 31.5464 37.6685 32.9054 36.6573C35.4755 34.7458 37.1771 32.1178 38.7732 29.4073C39.0408 28.95 39.3623 28.5257 39.6604 28.0873C39.7778 28.1203 39.8951 28.1557 40.0125 28.1887C40.0125 28.6624 40.0829 29.148 40.0007 29.6076C38.975 35.3256 35.79 39.7332 31.483 43.3912C30.7929 43.9781 29.7367 44.2091 28.8096 44.4188C26.2278 45.0057 23.6295 45.5219 21.0265 46.0074C20.3764 46.1276 19.6676 46.13 19.0197 46.0098C16.3698 45.5242 13.7246 45.0034 11.0958 44.4188C10.2556 44.2326 9.31202 43.9993 8.6783 43.469C4.29151 39.8133 1.10176 35.3633 0.0408585 29.6052C-0.0436382 29.1456 0.0291221 28.6577 0.0291221 28.1816Z" fill="#FFD35C"/>
<path d="M28.5794 32.3558C25.2019 33.037 22.3806 34.4818 20.0546 37.1287C17.9493 34.8448 15.4754 33.2585 12.3138 32.5727C13.4545 28.7096 15.1421 25.3391 18.9444 23.6963C19.9138 23.2768 21.4371 23.4111 22.4158 23.8896C25.8286 25.5607 27.4176 28.7049 28.5794 32.3558Z" fill="#FFD35C"/>
<path d="M30.3329 12.0929C30.1569 14.497 29.6194 16.7032 28.1947 18.61C26.3193 21.1225 23.7445 20.8232 22.6343 17.8817C21.2871 14.3108 21.7635 10.8319 23.9276 7.72074C25.7161 5.14928 28.3308 5.51696 29.4762 8.44197C29.9268 9.59453 30.0583 10.872 30.3329 12.0929Z" fill="#FFD35C"/>
<path d="M19.3133 14.3792C18.7617 15.9348 18.4073 17.6035 17.6046 19.013C16.6751 20.644 14.9735 20.7077 13.5441 19.4797C10.6454 16.9907 9.80743 10.5043 11.9809 7.37426C13.2366 5.56411 15.2457 5.56646 16.7807 7.43554C18.4003 9.40597 18.9401 11.7512 18.9659 14.2496L19.3133 14.3792Z" fill="#FFD35C"/>
<path d="M3.25407 21.4171C3.2705 18.9376 4.17884 17.2217 5.69978 16.8092C7.21602 16.3968 9.02096 17.3749 10.2602 19.383C11.6638 21.6599 12.2858 24.1088 11.4502 26.7486C10.671 29.2046 8.57266 29.9258 6.5377 28.3655C4.2868 26.6402 3.26346 24.2502 3.25407 21.4171Z" fill="#FFD35C"/>
<path d="M37.7076 21.2592C37.5715 24.4364 36.5458 26.9159 34.0719 28.5776C32.2552 29.7985 30.3658 29.1032 29.5607 27.0597C28.3754 24.0522 29.6969 19.4726 32.3069 17.547C34.4029 16.0008 36.5904 16.682 37.3532 19.1662C37.5832 19.9134 37.6208 20.7218 37.71 21.2592H37.7076Z" fill="#FFD35C"/>
<path d="M52.2441 36.2451H56.0654C56.5439 36.2451 56.9518 36.2998 57.2891 36.4092C57.6263 36.514 57.902 36.6781 58.1162 36.9014C58.335 37.1201 58.4945 37.3981 58.5947 37.7354C58.695 38.068 58.7451 38.4622 58.7451 38.918C58.7451 39.3053 58.7041 39.6198 58.6221 39.8613C58.5446 40.1029 58.4466 40.2943 58.3281 40.4355C58.2096 40.5768 58.0775 40.6794 57.9316 40.7432C57.7858 40.8024 57.6491 40.8457 57.5215 40.873V40.8867C57.6035 40.8958 57.7015 40.9163 57.8154 40.9482C57.9294 40.9756 58.0479 41.0212 58.1709 41.085C58.2939 41.1442 58.4147 41.2262 58.5332 41.3311C58.6517 41.4313 58.7588 41.5612 58.8545 41.7207C58.9502 41.8802 59.0277 42.0739 59.0869 42.3018C59.1462 42.5251 59.1758 42.7871 59.1758 43.0879C59.1758 43.6895 59.1165 44.1794 58.998 44.5576C58.8796 44.9359 58.6995 45.2321 58.458 45.4463C58.221 45.6605 57.918 45.8063 57.5488 45.8838C57.1842 45.9613 56.7559 46 56.2637 46H52.2441V36.2451ZM55.7441 40.3604C55.9902 40.3604 56.1999 40.3444 56.373 40.3125C56.5462 40.2806 56.6875 40.2168 56.7969 40.1211C56.9108 40.0208 56.9928 39.8818 57.043 39.7041C57.0931 39.5264 57.1182 39.2917 57.1182 39C57.1182 38.7585 57.0885 38.5579 57.0293 38.3984C56.9701 38.2344 56.8835 38.1045 56.7695 38.0088C56.6556 37.9131 56.5143 37.8447 56.3457 37.8037C56.1816 37.7627 55.9948 37.7422 55.7852 37.7422H53.8848V40.3604H55.7441ZM56.0654 44.5029C56.2751 44.5029 56.4642 44.487 56.6328 44.4551C56.806 44.4186 56.9518 44.3503 57.0703 44.25C57.1934 44.1497 57.2868 44.0107 57.3506 43.833C57.4189 43.6507 57.4531 43.4115 57.4531 43.1152C57.4531 42.819 57.4235 42.582 57.3643 42.4043C57.3096 42.222 57.2207 42.083 57.0977 41.9873C56.9792 41.8916 56.8265 41.8301 56.6396 41.8027C56.4574 41.7708 56.2386 41.7549 55.9834 41.7549H53.8848V44.5029H56.0654ZM62.04 37.5645C61.8532 37.5645 61.6982 37.5508 61.5752 37.5234C61.4567 37.4961 61.3587 37.4482 61.2812 37.3799C61.2083 37.3115 61.1559 37.2181 61.124 37.0996C61.0967 36.9811 61.083 36.8285 61.083 36.6416C61.083 36.4548 61.0967 36.3021 61.124 36.1836C61.1559 36.0605 61.2083 35.9626 61.2812 35.8896C61.3587 35.8167 61.4567 35.7666 61.5752 35.7393C61.6982 35.7119 61.8532 35.6982 62.04 35.6982C62.2269 35.6982 62.3796 35.7119 62.498 35.7393C62.6211 35.7666 62.7191 35.8167 62.792 35.8896C62.8649 35.9626 62.915 36.0605 62.9424 36.1836C62.9697 36.3021 62.9834 36.4548 62.9834 36.6416C62.9834 36.8285 62.9697 36.9811 62.9424 37.0996C62.915 37.2181 62.8649 37.3115 62.792 37.3799C62.7191 37.4482 62.6211 37.4961 62.498 37.5234C62.3796 37.5508 62.2269 37.5645 62.04 37.5645ZM61.2266 38.7881H62.8535V46H61.2266V38.7881ZM64.7402 42.3906C64.7402 41.7799 64.8063 41.2399 64.9385 40.7705C65.0706 40.2965 65.2757 39.8978 65.5537 39.5742C65.8363 39.2507 66.1917 39.0046 66.6201 38.8359C67.0485 38.6673 67.5612 38.583 68.1582 38.583C68.7552 38.583 69.2679 38.6673 69.6963 38.8359C70.1292 39.0046 70.4847 39.2507 70.7627 39.5742C71.0407 39.8978 71.2458 40.2965 71.3779 40.7705C71.5101 41.2399 71.5762 41.7799 71.5762 42.3906C71.5762 43.0013 71.5101 43.5459 71.3779 44.0244C71.2458 44.4984 71.0407 44.8971 70.7627 45.2207C70.4847 45.5443 70.1292 45.7904 69.6963 45.959C69.2679 46.1276 68.7552 46.2119 68.1582 46.2119C67.5612 46.2119 67.0485 46.1276 66.6201 45.959C66.1917 45.7904 65.8363 45.5443 65.5537 45.2207C65.2757 44.8971 65.0706 44.4984 64.9385 44.0244C64.8063 43.5459 64.7402 43.0013 64.7402 42.3906ZM68.1582 44.8379C68.5182 44.8379 68.8099 44.7855 69.0332 44.6807C69.2565 44.5713 69.4297 44.4141 69.5527 44.209C69.6758 43.9993 69.7578 43.7441 69.7988 43.4434C69.8444 43.138 69.8672 42.7871 69.8672 42.3906C69.8672 41.9987 69.8444 41.6523 69.7988 41.3516C69.7578 41.0462 69.6758 40.791 69.5527 40.5859C69.4297 40.3763 69.2565 40.2191 69.0332 40.1143C68.8099 40.0049 68.5182 39.9502 68.1582 39.9502C67.8027 39.9502 67.5133 40.0049 67.29 40.1143C67.0667 40.2191 66.8913 40.3763 66.7637 40.5859C66.6406 40.791 66.5563 41.0462 66.5107 41.3516C66.4697 41.6523 66.4492 41.9987 66.4492 42.3906C66.4492 42.7871 66.4697 43.138 66.5107 43.4434C66.5563 43.7441 66.6406 43.9993 66.7637 44.209C66.8913 44.4141 67.0667 44.5713 67.29 44.6807C67.5133 44.7855 67.8027 44.8379 68.1582 44.8379ZM75.4795 36.2451H77.6533L80.8457 46H79.0342L78.2139 43.3545H74.8916L74.1055 46H72.3145L75.4795 36.2451ZM77.7627 41.8848L76.5596 37.7559H76.5322L75.3291 41.8848H77.7627ZM82.0762 38.7881H83.4775L83.5732 39.5742C83.9287 39.3418 84.3275 39.1504 84.7695 39C85.2116 38.8496 85.7083 38.7607 86.2598 38.7334L86.2461 40.415C85.6764 40.4242 85.182 40.4538 84.7627 40.5039C84.348 40.5495 83.9925 40.6315 83.6963 40.75V46H82.0762V38.7881ZM87.1621 42.3906C87.1621 41.707 87.2441 41.126 87.4082 40.6475C87.5768 40.1689 87.8024 39.7816 88.085 39.4854C88.3721 39.1846 88.707 38.9658 89.0898 38.8291C89.4727 38.6924 89.8805 38.624 90.3135 38.624C90.6462 38.624 90.9447 38.6468 91.209 38.6924C91.4733 38.7334 91.6989 38.779 91.8857 38.8291C92.1045 38.8883 92.2936 38.9544 92.4531 39.0273V40.1484C92.2982 40.1348 92.1296 40.1188 91.9473 40.1006C91.7923 40.0915 91.6169 40.0824 91.4209 40.0732C91.2249 40.0596 91.0199 40.0527 90.8057 40.0527C90.4639 40.0527 90.1699 40.0824 89.9238 40.1416C89.6777 40.2008 89.4772 40.3148 89.3223 40.4834C89.1673 40.6475 89.0534 40.8822 88.9805 41.1875C88.9076 41.4883 88.8711 41.8848 88.8711 42.377C88.8711 42.8783 88.9121 43.2839 88.9941 43.5938C89.0807 43.9036 89.2106 44.1452 89.3838 44.3184C89.557 44.487 89.7734 44.6009 90.0332 44.6602C90.293 44.7148 90.6006 44.7422 90.9561 44.7422C91.1794 44.7422 91.3844 44.7376 91.5713 44.7285C91.7627 44.7148 91.929 44.6989 92.0703 44.6807C92.2344 44.6624 92.3825 44.6396 92.5146 44.6123V45.7471C92.3688 45.8291 92.1911 45.902 91.9814 45.9658C91.8037 46.0205 91.5804 46.0706 91.3115 46.1162C91.0426 46.1618 90.7282 46.1846 90.3682 46.1846C89.9261 46.1846 89.5091 46.123 89.1172 46C88.7298 45.8815 88.3903 45.6764 88.0986 45.3848C87.8115 45.0931 87.5837 44.7057 87.415 44.2227C87.2464 43.735 87.1621 43.1243 87.1621 42.3906ZM94.2578 35.377H95.8779V39.1367C96.1195 39.0456 96.3792 38.9613 96.6572 38.8838C96.8942 38.82 97.1654 38.7607 97.4707 38.7061C97.7806 38.6514 98.0996 38.624 98.4277 38.624C98.7559 38.624 99.0521 38.6605 99.3164 38.7334C99.5853 38.8018 99.8109 38.9271 99.9932 39.1094C100.18 39.2871 100.324 39.5309 100.424 39.8408C100.524 40.1462 100.574 40.5381 100.574 41.0166V46H98.9473V41.2148C98.9473 41.0234 98.9336 40.8571 98.9062 40.7158C98.8789 40.57 98.8197 40.4515 98.7285 40.3604C98.6419 40.2646 98.5143 40.194 98.3457 40.1484C98.1816 40.1029 97.9629 40.0801 97.6895 40.0801C97.4707 40.0801 97.2542 40.0938 97.04 40.1211C96.8304 40.1484 96.639 40.1781 96.4658 40.21C96.2607 40.2464 96.0648 40.2874 95.8779 40.333V46H94.2578V35.377ZM103.767 37.5645C103.58 37.5645 103.425 37.5508 103.302 37.5234C103.183 37.4961 103.085 37.4482 103.008 37.3799C102.935 37.3115 102.882 37.2181 102.851 37.0996C102.823 36.9811 102.81 36.8285 102.81 36.6416C102.81 36.4548 102.823 36.3021 102.851 36.1836C102.882 36.0605 102.935 35.9626 103.008 35.8896C103.085 35.8167 103.183 35.7666 103.302 35.7393C103.425 35.7119 103.58 35.6982 103.767 35.6982C103.953 35.6982 104.106 35.7119 104.225 35.7393C104.348 35.7666 104.446 35.8167 104.519 35.8896C104.591 35.9626 104.642 36.0605 104.669 36.1836C104.696 36.3021 104.71 36.4548 104.71 36.6416C104.71 36.8285 104.696 36.9811 104.669 37.0996C104.642 37.2181 104.591 37.3115 104.519 37.3799C104.446 37.4482 104.348 37.4961 104.225 37.5234C104.106 37.5508 103.953 37.5645 103.767 37.5645ZM102.953 38.7881H104.58V46H102.953V38.7881ZM105.865 38.7881H107.629L109.406 44.4893H109.434L111.211 38.7881H112.975L110.486 46H108.36L105.865 38.7881ZM113.658 42.3154C113.658 41.5635 113.756 40.946 113.952 40.4629C114.148 39.9798 114.408 39.5993 114.731 39.3213C115.055 39.0433 115.424 38.8519 115.839 38.7471C116.254 38.6377 116.68 38.583 117.117 38.583C117.669 38.583 118.124 38.6582 118.484 38.8086C118.849 38.959 119.138 39.1709 119.353 39.4443C119.567 39.7132 119.717 40.0368 119.804 40.415C119.89 40.7933 119.934 41.2103 119.934 41.666C119.934 41.8802 119.924 42.1012 119.906 42.3291C119.893 42.557 119.872 42.7917 119.845 43.0332H115.326C115.331 43.3568 115.365 43.6302 115.429 43.8535C115.497 44.0723 115.606 44.2523 115.757 44.3936C115.912 44.5303 116.115 44.6305 116.365 44.6943C116.62 44.7536 116.937 44.7832 117.315 44.7832C117.634 44.7832 117.933 44.7764 118.211 44.7627C118.489 44.7445 118.733 44.724 118.942 44.7012C119.188 44.6784 119.412 44.6488 119.612 44.6123V45.7471C119.38 45.8337 119.127 45.9111 118.854 45.9795C118.621 46.0387 118.35 46.0911 118.04 46.1367C117.73 46.1868 117.4 46.2119 117.049 46.2119C116.511 46.2119 116.033 46.1436 115.613 46.0068C115.194 45.8747 114.839 45.6559 114.547 45.3506C114.26 45.0407 114.039 44.6374 113.884 44.1406C113.733 43.6439 113.658 43.0355 113.658 42.3154ZM118.437 41.8164V41.5566C118.437 41.2832 118.418 41.0462 118.382 40.8457C118.35 40.6406 118.282 40.472 118.177 40.3398C118.072 40.2077 117.924 40.1097 117.732 40.0459C117.541 39.9821 117.286 39.9502 116.967 39.9502C116.625 39.9502 116.345 39.9912 116.126 40.0732C115.912 40.1507 115.743 40.2692 115.62 40.4287C115.502 40.5837 115.42 40.7773 115.374 41.0098C115.333 41.2422 115.312 41.5111 115.312 41.8164H118.437Z" fill="white"/>
</svg>
