<svg width="102" height="112" viewBox="0 0 102 112" fill="none" xmlns="http://www.w3.org/2000/svg">
<path d="M7.256 108.566H14.856V106.902H7.256V108.566ZM14.856 103.494H7.256V105.142H14.856V103.494ZM14.856 100.086H7.256V101.734H14.856V100.086ZM11.4 98.262H16.888V111.11H14.856V110.326H7.256V111.126H5.32V98.262H9.416C9.592 97.574 9.768 96.806 9.848 96.166L12.152 96.422C11.912 97.062 11.656 97.686 11.4 98.262ZM34.104 98.454L32.648 99.302C32.392 98.71 31.784 97.798 31.224 97.142L32.6 96.374C33.176 97.014 33.816 97.878 34.104 98.454ZM21.288 111.206L19.48 110.454C20.12 109.718 20.92 108.438 21.448 107.334L23.24 107.798C22.728 108.95 21.944 110.31 21.288 111.206ZM24.232 107.958L25.992 107.766C26.2 108.726 26.392 109.974 26.408 110.758L24.536 111.03C24.536 110.246 24.408 108.95 24.232 107.958ZM34.104 101.126H31.192C31.784 103.142 32.792 104.806 34.424 105.638C34.008 106.022 33.448 106.726 33.176 107.238C31.912 106.454 31.016 105.254 30.36 103.766C29.736 105.126 28.584 106.422 26.632 107.446C26.328 107.014 25.736 106.47 25.304 106.118C28.072 104.694 28.968 102.854 29.24 101.126H27.208V99.99C26.04 103.638 23.88 105.926 21.144 107.126C20.872 106.71 20.232 105.974 19.816 105.67C20.984 105.206 22.024 104.582 22.904 103.75C22.424 103.35 21.848 102.934 21.352 102.614L22.376 101.638C22.856 101.926 23.416 102.294 23.896 102.646C24.12 102.342 24.344 102.006 24.536 101.67C24.04 101.334 23.432 100.966 22.904 100.694L23.736 99.638C24.168 99.814 24.696 100.102 25.16 100.39C25.336 99.958 25.464 99.51 25.592 99.03H23.544C22.744 100.454 21.768 101.782 20.632 102.758C20.344 102.39 19.752 101.83 19.368 101.542C21 100.214 22.312 97.926 22.904 96.054L24.712 96.518C24.584 96.838 24.44 97.174 24.28 97.526H26.216L26.552 97.478L27.736 97.926C27.64 98.406 27.528 98.886 27.4 99.334H29.336V96.422H31.144V99.334H34.104V101.126ZM27.464 107.926L29.24 107.622C29.64 108.55 30.04 109.814 30.184 110.598L28.296 110.966C28.2 110.182 27.832 108.902 27.464 107.926ZM30.728 107.894L32.408 107.19C33.144 108.166 34.024 109.494 34.424 110.374L32.632 111.19C32.28 110.326 31.448 108.918 30.728 107.894ZM39.016 106.63L40.44 106.166L40.744 107.862C39.096 108.422 37.288 108.998 35.864 109.478L35.432 107.686C35.96 107.558 36.568 107.382 37.256 107.174V103.446H35.8V101.702H37.256V98.87H35.576V97.142H40.648V98.87H39.016V101.702H40.28V103.446H39.016V106.63ZM50.408 105.43L48.824 106.598C48.344 105.59 47.24 104.086 46.264 102.822V111.126H44.36V104.054C43.64 105.142 42.84 106.102 42.04 106.886C41.72 106.486 40.984 105.734 40.552 105.366C42.344 103.878 43.896 101.478 44.888 98.886H41.224V97.062H50.264V98.886H47C46.776 99.478 46.536 100.054 46.264 100.646V101.926L47.24 101.222C48.344 102.518 49.768 104.278 50.408 105.43ZM65.544 97.158V98.694H57.336V97.158H60.504C60.408 96.902 60.312 96.63 60.232 96.406L62.024 96.07C62.168 96.39 62.328 96.806 62.456 97.158H65.544ZM65.96 100.07V101.638H56.888V100.07H58.824C58.744 99.718 58.6 99.334 58.472 99.014L60.008 98.71C60.2 99.11 60.408 99.67 60.504 100.07H62.312C62.488 99.622 62.664 99.11 62.776 98.71L64.504 99.03C64.312 99.398 64.152 99.75 63.976 100.07H65.96ZM56.568 105.558L56.936 107.286C55.288 107.974 53.464 108.71 52.024 109.27L51.4 107.318C51.928 107.158 52.552 106.966 53.24 106.726V101.798H51.688V99.99H53.24V96.406H55.096V99.99H56.456V101.798H55.096V106.086C55.592 105.91 56.072 105.734 56.568 105.558ZM59.256 105.142V105.814H63.352V105.142H59.256ZM59.256 103.366V104.038H63.352V103.366H59.256ZM63.88 109.446H64.328C64.44 109.446 64.568 109.446 64.648 109.414C64.728 109.382 64.792 109.286 64.84 109.094C64.872 108.902 64.888 108.47 64.904 107.894C65.224 108.198 65.912 108.518 66.36 108.678C66.312 109.27 66.248 109.91 66.12 110.182C65.976 110.454 65.752 110.646 65.448 110.774C65.208 110.87 64.76 110.918 64.456 110.918H63.432C63.016 110.918 62.504 110.79 62.216 110.534C61.912 110.262 61.768 109.926 61.768 108.95V107.014H60.616C60.344 109.126 59.544 110.438 56.552 111.19C56.392 110.758 55.944 110.054 55.576 109.734C58.04 109.254 58.616 108.438 58.84 107.014H57.512V102.182H65.176V107.014H63.528V108.998C63.528 109.206 63.528 109.318 63.592 109.382C63.656 109.43 63.752 109.446 63.88 109.446ZM80.008 96.47L81.8 97.206C80.712 98.742 79.112 100.134 77.592 101.078C77.288 100.678 76.728 100.102 76.248 99.75C77.592 99.03 79.176 97.734 80.008 96.47ZM80.408 100.79L82.152 101.526C80.968 103.142 79.24 104.63 77.608 105.622C77.304 105.19 76.776 104.646 76.296 104.294C77.752 103.494 79.512 102.15 80.408 100.79ZM70.28 99.59V100.198H74.264V99.59H70.28ZM70.28 97.91V98.502H74.264V97.91H70.28ZM76.712 102.086V103.526H67.752V102.086H71.352C71.272 101.91 71.208 101.75 71.128 101.606L72.376 101.35H68.472V96.758H76.152V101.35H73.016C73.144 101.574 73.288 101.83 73.384 102.086H76.712ZM69.192 107.43L70.776 107.91C70.344 108.87 69.64 109.974 69.048 110.662C68.76 110.39 68.104 109.894 67.736 109.67C68.312 109.078 68.856 108.214 69.192 107.43ZM70.488 105.302V106.134H74.072V105.302H70.488ZM75.928 107.366H73.16V109.462C73.16 110.246 73.048 110.63 72.504 110.87C72.008 111.094 71.336 111.11 70.488 111.11C70.408 110.63 70.184 110.022 69.96 109.59C70.44 109.606 70.936 109.606 71.096 109.606C71.256 109.606 71.304 109.558 71.304 109.414V107.366H68.728V104.07H75.928V107.366ZM80.696 105.27L82.456 105.926C81.256 108.07 79.368 109.846 77.272 111.014C76.984 110.55 76.472 109.958 76.008 109.558C76.056 109.686 76.104 109.798 76.152 109.91L74.744 110.582C74.504 109.91 73.944 108.806 73.432 107.974L74.776 107.414C75.176 108.038 75.672 108.886 75.976 109.51C77.864 108.614 79.72 107.078 80.696 105.27ZM86.888 99.334H85.72V105.222H86.888V99.334ZM88.456 97.59V106.966H85.72V108.39H84.072V97.59H88.456ZM94.2 102.998H93.176V105.99H94.2V102.998ZM95.432 107.302H93.176V108.15H91.944V101.686H95.432V107.302ZM98.088 98.806V109.222C98.088 110.07 97.928 110.534 97.4 110.806C96.872 111.11 96.136 111.158 95.096 111.142C95.032 110.662 94.792 109.894 94.568 109.446C95.128 109.478 95.768 109.478 95.976 109.462C96.184 109.462 96.248 109.398 96.248 109.19V100.422H91.096V111.03H89.288V98.806H91.768C92.072 97.974 92.376 96.95 92.52 96.166L94.744 96.55C94.424 97.334 94.088 98.118 93.768 98.806H98.088Z" fill="#69531E"/>
<circle cx="50.5" cy="43.25" r="41.5" fill="#FFEEBD" stroke="#FFBB00" stroke-width="2"/>
<g clip-path="url(#clip0_273_1665)">
<path d="M72.829 21.4542L73.3145 21.9396C74.9749 23.6084 76.002 25.9084 76.002 28.4479C76.002 30.9875 74.9749 33.2875 73.3145 34.9563L47.1124 61.1584C46.0207 62.25 44.5624 62.9709 42.9353 63.1209L42.9082 63.1229L34.5457 63.8771L30.4332 67.9896C29.9561 68.5125 29.2728 68.8375 28.5124 68.8375C27.077 68.8375 25.9145 67.675 25.9145 66.2396C25.9145 65.4813 26.2395 64.8 26.7561 64.325L26.7582 64.3229L30.8707 60.2104L31.6249 51.8479C31.7874 50.1979 32.5061 48.7417 33.5895 47.6459L59.7895 21.4459C61.4582 19.7854 63.7582 18.7584 66.2999 18.7584C68.8478 18.7584 71.1561 19.7917 72.8249 21.4625L72.829 21.4542ZM35.302 49.3313C34.5957 50.0438 34.1249 50.9938 34.0186 52.05L34.0165 52.0688L33.3499 59.4021L35.3749 61.4292L42.7082 60.7625C43.7853 60.6625 44.7353 60.1896 45.4436 59.4771L46.3853 58.5375L44.602 56.7542L45.8999 55.4521L47.6811 57.2354L50.0353 54.8813L48.252 53.0979L49.5499 51.7959L51.3311 53.5792L53.7082 51.2063L51.927 49.4229L53.229 48.1209L55.0103 49.9042L57.3645 47.55L55.5811 45.7667L56.8832 44.4646L58.6645 46.2479L61.0374 43.875L59.2561 42.0917L60.5582 40.7896L62.3395 42.5729L64.6915 40.2188L62.9103 38.4354L64.2124 37.1334L65.9936 38.9167L68.3665 36.5438L66.5853 34.7604L67.8853 33.4584L69.6686 35.2417L71.6332 33.2792C72.8665 32.0438 73.6311 30.3396 73.6311 28.4563C73.6311 26.5729 72.8686 24.8667 71.6332 23.6334L71.1478 23.1479C69.9124 21.9146 68.2082 21.15 66.3249 21.15C64.4415 21.15 62.7353 21.9125 61.502 23.1479L35.302 49.3313Z" fill="#FFBB00"/>
<path d="M66.8564 27.9104C67.1085 28.1646 67.2627 28.5146 67.2627 28.9021C67.2627 29.2896 67.1064 29.6375 66.8564 29.8937L39.1898 57.5604C38.9294 57.8937 38.5273 58.1062 38.0752 58.1062C37.296 58.1062 36.6627 57.475 36.6627 56.6937C36.6627 56.2416 36.8752 55.8396 37.2044 55.5812L37.2064 55.5791L64.8731 27.9125C65.1273 27.6604 65.4773 27.5062 65.8648 27.5062C66.2523 27.5062 66.6002 27.6604 66.8544 27.9125L66.8564 27.9104Z" fill="#FFBB00"/>
</g>
<defs>
<clipPath id="clip0_273_1665">
<rect width="50" height="50" fill="white" transform="matrix(-1 0 0 1 76 18.75)"/>
</clipPath>
</defs>
</svg>
